<?xml version="1.0" standalone="no"?>
<!DOCTYPE svg PUBLIC "-//W3C//DTD SVG 1.1//EN" "http://www.w3.org/Graphics/SVG/1.1/DTD/svg11.dtd" >
<svg xmlns="http://www.w3.org/2000/svg" xmlns:xlink="http://www.w3.org/1999/xlink" version="1.1">
<metadata>
Created by FontForge 20170731 at Mon Jul 25 09:00:29 2016
 By Aleksey,,,
Copyright (c) 2016 by Jorge Alberto Marti'nez Marti'nez. All rights reserved.
</metadata>
<defs>
<font id="FondueW00-Heavy" horiz-adv-x="848" >
  <font-face 
    font-family="FondueW00-Heavy"
    font-weight="900"
    font-stretch="normal"
    units-per-em="1000"
    panose-1="1 0 0 0 0 0 0 0 0 0"
    ascent="800"
    descent="-200"
    x-height="396"
    cap-height="540"
    bbox="-276 -350 1684 883"
    underline-thickness="50"
    underline-position="-175"
    unicode-range="U+0020-FB02"
  />
<missing-glyph horiz-adv-x="628" 
d="M90 -350v1000h448v-1000h-448zM110 -337h50l154 437l154 -437h50l-180 483l180 484h-50l-154 -437l-154 437h-50l180 -484z" />
    <glyph glyph-name="uniFB01" unicode="fi" horiz-adv-x="837" 
d="M811 170l47 -137q-75 -53 -171 -53q-67 0 -111.5 18t-67.5 51.5t-23 83.5v115h-135v-261q0 -53 -22 -94t-62.5 -68.5t-99 -41t-129.5 -13.5l-31 141q52 0 83.5 22t32.5 64v251h-100v148h100q11 88 92.5 131t236.5 43q143 0 256 -13l-6 -133q-178 7 -222 7q-61 0 -91 -7.5
t-36 -27.5h365v-187q0 -55 54 -55q22 0 40 16z" />
    <glyph glyph-name="uniFB02" unicode="fl" horiz-adv-x="880" 
d="M856 170l47 -137q-75 -53 -171 -53q-67 0 -111.5 18t-67.5 51.5t-23 83.5v296l-70 2q-96 0 -108 -35h138v-148h-140v-261q0 -53 -22 -94t-62.5 -68.5t-99 -41t-129.5 -13.5l-31 141q52 0 83.5 22t32.5 64v251h-100v148h100q7 64 47 101t111.5 55t182.5 18q144 0 299 -20
v-341q0 -55 54 -55q22 0 40 16z" />
    <glyph glyph-name="f_f.liga" unicode="ff" horiz-adv-x="927" 
d="M813 431q-30 0 -50.5 -9.5t-26.5 -25.5h178v-148h-180v-261q0 -53 -22 -94t-62.5 -68.5t-99 -41t-129.5 -13.5l-31 141q52 0 83.5 22t32.5 64v251h-156v-261q0 -53 -22 -94t-62.5 -68.5t-99 -41t-129.5 -13.5l-31 141q52 0 83.5 22t32.5 64v251h-100v148h100
q5 38 22.5 70t48.5 55.5t76 36t102 12.5q70 0 136 -10l-6 -131l-82 2q-26 0 -44 -9.5t-23 -25.5h154q5 38 24.5 70t53 55.5t82 36t109.5 12.5q86 0 166 -10l-6 -132q-84 3 -122 3z" />
    <glyph glyph-name="f_f_i.liga" unicode="ffi" horiz-adv-x="1221" 
d="M1195 170l47 -137q-75 -53 -171 -53q-67 0 -111.5 18t-67.5 51.5t-23 83.5v115h-135v-261q0 -53 -22 -94t-62.5 -68.5t-99 -41t-129.5 -13.5l-31 141q52 0 83.5 22t32.5 64v251h-156v-261q0 -53 -22 -94t-62.5 -68.5t-99 -41t-129.5 -13.5l-31 141q52 0 83.5 22t32.5 64
v251h-100v148h100q5 38 22.5 70t48.5 55.5t76 36t102 12.5q70 0 136 -10l-6 -131l-82 2q-26 0 -44 -9.5t-23 -25.5h154q11 88 92.5 131t236.5 43q143 0 256 -13l-6 -133q-178 7 -222 7q-61 0 -91 -7.5t-36 -27.5h365v-187q0 -55 54 -55q22 0 40 16z" />
    <glyph glyph-name="f_f_l.liga" unicode="ffl" horiz-adv-x="1264" 
d="M1240 170l47 -137q-75 -53 -171 -53q-67 0 -111.5 18t-67.5 51.5t-23 83.5v296l-70 2q-96 0 -108 -35h138v-148h-140v-261q0 -53 -22 -94t-62.5 -68.5t-99 -41t-129.5 -13.5l-31 141q52 0 83.5 22t32.5 64v251h-156v-261q0 -53 -22 -94t-62.5 -68.5t-99 -41t-129.5 -13.5
l-31 141q52 0 83.5 22t32.5 64v251h-100v148h100q5 38 22.5 70t48.5 55.5t76 36t102 12.5q70 0 136 -10l-6 -131l-82 2q-26 0 -44 -9.5t-23 -25.5h154q7 64 47 101t111.5 55t182.5 18q144 0 299 -20v-341q0 -55 54 -55q22 0 40 16z" />
    <glyph glyph-name="f_b.liga" unicode="fb" horiz-adv-x="1230" 
d="M992 416q94 0 151 -51.5t57 -140.5q0 -52 -23 -97.5t-67.5 -78t-109.5 -50.5t-144 -18q-190 0 -326 54v395l-70 2q-96 0 -108 -35h138v-148h-140v-261q0 -53 -22 -94t-62.5 -68.5t-99 -41t-129.5 -13.5l-31 141q52 0 83.5 22t32.5 64v251h-100v148h100q7 64 47 101
t111.5 55t182.5 18q144 0 299 -20v-257q20 28 52.5 57.5t80 47.5t97.5 18zM857 136q52 0 82 15t30 40q0 20 -17.5 32t-44.5 12q-40 0 -78.5 -16.5t-66.5 -53.5v-20q17 -3 47 -6t48 -3z" />
    <glyph glyph-name="f_h.liga" unicode="fh" horiz-adv-x="1260" 
d="M1233 170l51 -135q-34 -25 -80 -40t-99 -15q-183 0 -183 150v20q0 14 -7.5 22.5t-20.5 8.5q-37 0 -74.5 -49t-68.5 -132h-221v429l-70 2q-96 0 -108 -35h138v-148h-140v-261q0 -53 -22 -94t-62.5 -68.5t-99 -41t-129.5 -13.5l-31 141q52 0 83.5 22t32.5 64v251h-100v148
h100q7 64 47 101t111.5 55t182.5 18q144 0 299 -20v-255l-2 -30q17 30 50 65.5t74 56t67.5 25t43.5 4.5q74 1 116.5 -39.5t42.5 -122.5v-48q0 -52 41 -52q20 0 38 16z" />
    <glyph glyph-name="f_j.liga" unicode="fj" horiz-adv-x="770" 
d="M738 396v-409q0 -53 -22 -94t-63.5 -68.5t-100 -41t-129.5 -13.5l-31 141q51 0 82 22t32 64v251h-156v-261q0 -53 -22 -94t-62.5 -68.5t-99 -41t-129.5 -13.5l-31 141q52 0 83.5 22t32.5 64v251h-100v148h100q11 88 92.5 131t236.5 43q143 0 256 -13l-6 -133
q-178 7 -222 7q-61 0 -91 -7.5t-36 -27.5h386z" />
    <glyph glyph-name="f_k.liga" unicode="fk" horiz-adv-x="1184" 
d="M1131 165l47 -135q-66 -50 -150 -50q-41 0 -80 11t-75 46l-52 50q-36 -37 -70 -87h-221v429l-70 2q-96 0 -108 -35h138v-148h-140v-261q0 -53 -22 -94t-62.5 -68.5t-99 -41t-129.5 -13.5l-31 141q52 0 83.5 22t32.5 64v251h-100v148h100q7 64 47 101t111.5 55t182.5 18
q144 0 299 -20v-255q0 -14 -4 -40q61 69 142 111t172 50l54 -164q-76 -9 -140 -40l37 -37q13 -13 29.5 -21t31.5 -8q25 0 47 19z" />
    <glyph glyph-name="f_t.liga" unicode="ft" horiz-adv-x="1007" 
d="M943 170l44 -135q-42 -26 -98 -40.5t-115 -14.5q-84 0 -138.5 26t-83 74t-28.5 121v47h-174v-261q0 -53 -22 -94t-62.5 -68.5t-99 -41t-129.5 -13.5l-31 141q52 0 83.5 22t32.5 64v251h-100v148h100q5 38 22.5 70t48.5 55.5t76 36t102 12.5q70 0 136 -10l-6 -131l-82 2
q-26 0 -44 -9.5t-23 -25.5h172v40l232 104v-144h213v-148h-213v-22q0 -36 24 -54t78 -18q48 0 85 16z" />
    <glyph glyph-name="f_v.liga" unicode="fv" horiz-adv-x="1131" 
d="M883 396h235q0 -63 -16 -118t-48.5 -105t-88.5 -95t-132.5 -71.5t-148.5 -26.5q-79 0 -124.5 40t-45.5 122v46q0 29 -11.5 44.5t-32.5 15.5h-120v-261q0 -53 -22 -94t-62.5 -68.5t-99 -41t-129.5 -13.5l-31 141q52 0 83.5 22t32.5 64v251h-100v148h100q5 38 24.5 70
t53 55.5t82 36t109.5 12.5q86 0 166 -10l-6 -132q-84 3 -122 3q-30 0 -50.5 -9.5t-26.5 -25.5h224q57 0 94 -17.5t56.5 -50.5t19.5 -82v-20q0 -14 6 -22.5t17 -8.5t30 10.5t38 33.5t32.5 63t13.5 94z" />
    <glyph glyph-name="f_w.liga" unicode="fw" horiz-adv-x="1503" 
d="M1250 396h235q0 -99 -36 -178.5t-95 -132t-128 -79t-134 -26.5q-73 0 -114 40t-41 122v3q0 13 3 22q-43 -83 -119 -135t-157 -52q-70 0 -110 40t-40 122v46q0 29 -11.5 44.5t-32.5 15.5h-120v-261q0 -53 -22 -94t-62.5 -68.5t-99 -41t-129.5 -13.5l-31 141q52 0 83.5 22
t32.5 64v251h-100v148h100q5 38 24.5 70t53 55.5t82 36t109.5 12.5q86 0 166 -10l-6 -132q-84 3 -122 3q-30 0 -50.5 -9.5t-26.5 -25.5h224q57 0 94 -17.5t56.5 -50.5t19.5 -82v-10q0 -14 6 -22.5t17 -8.5q24 0 59 50.5t69 140.5h212v-150q0 -31 27 -31q11 0 30 9.5t38 30.5
t32.5 57t13.5 84z" />
    <glyph glyph-name="f_y.liga" unicode="fy" horiz-adv-x="1192" 
d="M917 396h224v-321q0 -70 -22 -126.5t-67 -96.5t-115.5 -61t-163.5 -21q-149 0 -257 45l39 135q87 -28 179 -28q62 0 99.5 16t56.5 52.5t19 108.5v1q0 19 3 38q-37 -68 -102 -112.5t-137 -45.5q-74 -1 -116.5 39.5t-42.5 122.5v46q0 29 -11.5 44.5t-32.5 15.5h-120v-261
q0 -53 -22 -94t-62.5 -68.5t-99 -41t-129.5 -13.5l-31 141q52 0 83.5 22t32.5 64v251h-100v148h100q5 38 24.5 70t53 55.5t82 36t109.5 12.5q86 0 166 -10l-6 -132q-84 3 -122 3q-30 0 -50.5 -9.5t-26.5 -25.5h224q57 0 94 -17.5t56.5 -50t19.5 -81.5v-1q0 -14 7.5 -22.5
t20.5 -8.5q37 0 74.5 49t68.5 132z" />
    <glyph glyph-name="t_v.liga" unicode="tv" horiz-adv-x="1224" 
d="M977 396h235q0 -63 -16 -118t-48.5 -105t-88.5 -95t-132.5 -71.5t-148.5 -26.5q-79 0 -124.5 40t-45.5 122v46q0 29 -11.5 44.5t-32.5 15.5h-234v-22q0 -36 24 -54t78 -18q48 0 85 16l44 -135q-42 -26 -98 -40.5t-115 -14.5q-84 0 -138.5 26t-83 74t-28.5 121v47h-82v148
h82v40l232 104v-144h340q57 0 94 -17.5t56.5 -50.5t19.5 -82v-20q0 -14 6 -22.5t17 -8.5t30 10.5t38 33.5t32.5 63t13.5 94z" />
    <glyph glyph-name="t_w.liga" unicode="tw" horiz-adv-x="1597" 
d="M1344 396h235q0 -99 -36 -178.5t-95 -132t-128 -79t-134 -26.5q-73 0 -114 40t-41 122v3q0 13 3 22q-43 -83 -119 -135t-157 -52q-70 0 -110 40t-40 122v46q0 29 -11.5 44.5t-32.5 15.5h-234v-22q0 -36 24 -54t78 -18q48 0 85 16l44 -135q-42 -26 -98 -40.5t-115 -14.5
q-84 0 -138.5 26t-83 74t-28.5 121v47h-82v148h82v40l232 104v-144h340q57 0 94 -17.5t56.5 -50.5t19.5 -82v-10q0 -14 6 -22.5t17 -8.5q24 0 59 50.5t69 140.5h212v-150q0 -31 27 -31q11 0 30 9.5t38 30.5t32.5 57t13.5 84z" />
    <glyph glyph-name="t_y.liga" unicode="ty" horiz-adv-x="1286" 
d="M1011 396h224v-321q0 -70 -22 -126.5t-67 -96.5t-115.5 -61t-163.5 -21q-149 0 -257 45l39 135q87 -28 179 -28q62 0 99.5 16t56.5 52.5t19 108.5v1q0 19 3 38q-37 -68 -102 -112.5t-137 -45.5q-74 -1 -116.5 39.5t-42.5 122.5v46q0 29 -11.5 44.5t-32.5 15.5h-234v-22
q0 -36 24 -54t78 -18q48 0 85 16l44 -135q-42 -26 -98 -40.5t-115 -14.5q-84 0 -138.5 26t-83 74t-28.5 121v47h-82v148h82v40l232 104v-144h340q57 0 94 -17.5t56.5 -50t19.5 -81.5v-1q0 -14 7.5 -22.5t20.5 -8.5q37 0 74.5 49t68.5 132z" />
    <glyph glyph-name=".notdef" horiz-adv-x="628" 
d="M90 -350v1000h448v-1000h-448zM110 -337h50l154 437l154 -437h50l-180 483l180 484h-50l-154 -437l-154 437h-50l180 -484z" />
    <glyph glyph-name=".null" horiz-adv-x="0" 
 />
    <glyph glyph-name="nonmarkingreturn" horiz-adv-x="333" 
 />
    <glyph glyph-name="space" unicode=" " horiz-adv-x="270" 
 />
    <glyph glyph-name="exclam" unicode="!" horiz-adv-x="354" 
d="M274 235h-194q-18 213 -20.5 283t-2.5 128h240q0 -75 -3 -140t-6.5 -111.5t-8 -96t-5.5 -63.5zM177 -20q-64 0 -100 21.5t-36 59.5t36 59.5t100 21.5t100 -21.5t36 -59.5t-36 -59.5t-100 -21.5z" />
    <glyph glyph-name="quotedbl" unicode="&#x22;" horiz-adv-x="479" 
d="M208 667h-165l4 -234h138zM446 667h-165l4 -234h138z" />
    <glyph glyph-name="numbersign" unicode="#" 
d="M815 310h-153l-21 -81h124v-147h-161l-21 -82h-165l21 82h-134l-21 -82h-165l21 82h-107v147h144l21 81h-115v147h152l21 83h165l-21 -83h134l21 83h165l-21 -83h116v-147zM476 229l21 81h-134l-21 -81h134z" />
    <glyph glyph-name="dollar" unicode="$" horiz-adv-x="761" 
d="M681 170q0 -92 -71 -140t-198 -50v-61h-56v62q-86 3 -156.5 19.5t-133.5 48.5l54 140q112 -54 265 -54q33 0 55 4t22 18q0 7 -14.5 12t-93 10.5t-116 13.5t-62 17t-49 24.5t-41 44t-16.5 67.5q0 41 19.5 72.5t56.5 53.5t90.5 34.5t119.5 15.5v62h56v-61q57 0 128.5 -7.5
t129.5 -27.5l-39 -144q-102 25 -207 25q-63 0 -99 -5t-36 -14q0 -7 14 -11.5t93 -9t116.5 -12t62 -16t49 -24t41 -43t16.5 -64.5z" />
    <glyph glyph-name="percent" unicode="%" horiz-adv-x="982" 
d="M210 565q56 0 97.5 -21.5t63 -56t21.5 -79.5t-21.5 -79.5t-63 -56t-97.5 -21.5t-97.5 21.5t-63 56t-21.5 79.5t21.5 79.5t63 56t97.5 21.5zM828 560l-475 -560h-195l477 560h193zM210 462q-20 0 -34 -15.5t-14 -38.5t14 -38.5t34 -15.5t34 15.5t14 38.5t-14 38.5
t-34 15.5zM772 309q56 0 97.5 -21.5t63 -56t21.5 -79.5t-21.5 -79.5t-63 -56t-97.5 -21.5t-97.5 21.5t-63 56t-21.5 79.5t21.5 79.5t63 56t97.5 21.5zM772 206q-20 0 -34 -15.5t-14 -38.5t14 -38.5t34 -15.5t34 15.5t14 38.5t-14 38.5t-34 15.5z" />
    <glyph glyph-name="ampersand" unicode="&#x26;" horiz-adv-x="1018" 
d="M906 205q-6 -39 -32 -75.5t-62 -59t-67 -33.5q28 -17 58.5 -27t54.5 -10q41 0 77 19l47 -135q-69 -50 -160 -50q-75 0 -164.5 46t-168.5 120h-94q-190 0 -281 54t-91 155q0 81 68 135.5t187 63.5q13 71 85 111.5t185 40.5q69 0 129 -10t100 -27l-45 -155q-68 17 -153 17
q-37 0 -58 -11.5t-21 -33.5q0 -29 31 -81.5t78 -104.5q68 7 77 59l-100 8v120h407v-137zM257 225q0 -30 28.5 -49.5t73.5 -22.5q-42 62 -66 131q-17 -8 -26.5 -24t-9.5 -35z" />
    <glyph glyph-name="quotesingle" unicode="'" horiz-adv-x="241" 
d="M208 667h-165l4 -234h138z" />
    <glyph glyph-name="parenleft" unicode="(" horiz-adv-x="415" 
d="M258 180q0 -95 38 -172t107 -128l-115 -103q-128 72 -196 176t-68 227t68 227t196 176l115 -103q-69 -51 -107 -128t-38 -172z" />
    <glyph glyph-name="parenright" unicode=")" horiz-adv-x="415" 
d="M127 583q128 -72 196 -176t68 -227t-68 -227t-196 -176l-115 103q69 51 107 128t38 172t-38 172t-107 128z" />
    <glyph glyph-name="asterisk" unicode="*" horiz-adv-x="438" 
d="M408 480l-105 -18l71 -80l-109 -74l-46 93l-46 -93l-109 74l72 81l-106 17l38 125l98 -45l-14 107h134l-14 -106l98 44z" />
    <glyph glyph-name="plus" unicode="+" horiz-adv-x="566" 
d="M534 344v-156h-169v-164h-164v164h-169v156h169v164h164v-164h169z" />
    <glyph glyph-name="comma" unicode="," horiz-adv-x="323" 
d="M160 155q28 0 58 -10.5t50 -39.5t20 -68q0 -32 -12 -71.5t-41.5 -79t-67.5 -71.5l-111 57q43 52 60 111q-39 8 -61.5 30t-22.5 54q0 19 11.5 40t42.5 34.5t74 13.5z" />
    <glyph glyph-name="hyphen" unicode="-" horiz-adv-x="371" 
d="M46 293h279v-154h-279v154z" />
    <glyph glyph-name="period" unicode="." horiz-adv-x="320" 
d="M160 -21q-28 0 -58 8t-50 29.5t-20 50.5q0 19 11.5 40t42.5 34.5t74 13.5q28 0 58 -8t50 -29.5t20 -50.5q0 -19 -11.5 -40t-42.5 -34.5t-74 -13.5z" />
    <glyph glyph-name="slash" unicode="/" horiz-adv-x="621" 
d="M20 -210l405 860h176l-403 -860h-178z" />
    <glyph glyph-name="zero" unicode="0" horiz-adv-x="762" 
d="M381 560q71 0 135 -19.5t112.5 -57t76 -92t27.5 -121.5t-27.5 -121.5t-76 -92t-112.5 -57t-135 -19.5t-135 19.5t-112.5 57t-76 92t-27.5 121.5t27.5 121.5t76 92t112.5 57t135 19.5zM381 167q21 0 46 10t43 35.5t18 57.5q0 20 -10.5 44.5t-37 41.5t-59.5 17
q-21 0 -46 -10t-43 -35.5t-18 -57.5q0 -20 10.5 -44.5t37 -41.5t59.5 -17z" />
    <glyph glyph-name="one" unicode="1" horiz-adv-x="532" 
d="M260 540h201v-540h-236v228q0 18 3 36q-43 -22 -91.5 -33.5t-93.5 -11.5l-30 174q35 0 77.5 10.5t77 33t56.5 49.5t36 54z" />
    <glyph glyph-name="two" unicode="2" horiz-adv-x="666" 
d="M562 185h60v-185h-584v160q192 70 231.5 86.5t63.5 31t36.5 28.5t12.5 29q0 12 -9 25t-33.5 20.5t-56.5 7.5q-50 0 -105.5 -7t-94.5 -20l-42 164q111 35 282 35q155 0 225.5 -42t70.5 -132q0 -77 -56.5 -127.5t-182.5 -85.5q117 12 182 12z" />
    <glyph glyph-name="three" unicode="3" horiz-adv-x="697" 
d="M537 268q128 -40 128 -136q0 -74 -83.5 -113t-252.5 -39q-62 0 -144.5 8.5t-162.5 32.5l41 161q48 -16 106.5 -25.5t109.5 -9.5q66 0 101 6t35 22t-44.5 25.5t-160.5 9.5v118q107 0 154 7t47 23q0 7 -11 14t-40.5 11.5t-67.5 4.5q-58 0 -114 -7t-96 -20l-42 164
q116 35 292 35q164 0 240 -40.5t76 -123.5q0 -40 -29.5 -72.5t-81.5 -55.5z" />
    <glyph glyph-name="four" unicode="4" horiz-adv-x="772" 
d="M748 252v-167h-93v-85h-236v85h-346l-77 146q87 54 146.5 143.5t59.5 165.5h223q0 -33 -12 -80t-45 -102.5t-79 -105.5h130v144h236v-144h93z" />
    <glyph glyph-name="five" unicode="5" horiz-adv-x="682" 
d="M303 330q343 0 343 -174q0 -85 -82 -130.5t-249 -45.5q-176 0 -292 35l42 164q92 -27 210 -27q66 0 93.5 7t27.5 22q0 14 -37.5 24.5t-115.5 10.5q-91 0 -179 -8l33 332h532v-166h-351l-5 -45z" />
    <glyph glyph-name="six" unicode="6" horiz-adv-x="685" 
d="M444 335q55 0 107 -17.5t81 -56t29 -88.5q0 -45 -22 -81t-62 -61t-95.5 -38t-120.5 -13q-55 0 -112.5 12t-99.5 37.5t-67 55.5t-38.5 67t-13.5 78q0 80 33.5 142t100.5 103.5t168 63t233 21.5v-165q-133 0 -213 -27t-97 -83q77 50 189 50zM356 135q36 -1 56 9t20 26
q0 15 -18.5 23.5t-46.5 8.5q-25 0 -52.5 -6t-47.5 -17q26 -44 89 -44z" />
    <glyph glyph-name="seven" unicode="7" horiz-adv-x="636" 
d="M20 540h602v-160q-39 -22 -78.5 -59.5t-72 -89.5t-53 -113t-20.5 -118h-236q0 108 53.5 209.5t140.5 158.5q-68 -13 -168 -13h-168v185z" />
    <glyph glyph-name="eight" unicode="8" horiz-adv-x="698" 
d="M557 272q53 -20 81 -53.5t28 -76.5q0 -78 -79 -120t-238 -42t-238 42t-79 120q0 43 28.5 76t80.5 52q-92 36 -92 116q0 86 77.5 130t222.5 44t222.5 -44t77.5 -130q0 -78 -92 -114zM349 409q-30 0 -49.5 -10.5t-19.5 -28.5q0 -19 19.5 -28.5t47.5 -9.5q30 0 50.5 9.5
t20.5 28.5q0 18 -19.5 28.5t-49.5 10.5zM349 136q34 0 54 10t20 27q0 20 -20.5 30t-51.5 10q-32 0 -54 -10t-22 -30q0 -17 20 -27t54 -10z" />
    <glyph glyph-name="nine" unicode="9" horiz-adv-x="685" 
d="M324 560q55 0 112.5 -12t99.5 -37.5t67 -55.5t38.5 -67t13.5 -78q0 -80 -33.5 -142t-100.5 -103.5t-168 -63t-233 -21.5v165q133 0 213 27t97 83q-77 -50 -189 -50q-55 0 -107 17.5t-81 56t-29 88.5q0 45 22 81t62 61t95.5 38t120.5 13zM253 370q0 -15 18.5 -23.5
t46.5 -8.5q25 0 52.5 6t47.5 17q-26 44 -89 44q-36 1 -56 -9t-20 -26z" />
    <glyph glyph-name="colon" unicode=":" horiz-adv-x="340" 
d="M170 254q-28 0 -58 8t-50 29.5t-20 50.5q0 19 11.5 40t42.5 34.5t74 13.5q28 0 58 -8t50 -29.5t20 -50.5q0 -19 -11.5 -40t-42.5 -34.5t-74 -13.5zM170 -21q-28 0 -58 8t-50 29.5t-20 50.5q0 19 11.5 40t42.5 34.5t74 13.5q28 0 58 -8t50 -29.5t20 -50.5q0 -19 -11.5 -40
t-42.5 -34.5t-74 -13.5z" />
    <glyph glyph-name="semicolon" unicode=";" horiz-adv-x="341" 
d="M170 254q-28 0 -58 8t-50 29.5t-20 50.5q0 19 11.5 40t42.5 34.5t74 13.5q28 0 58 -8t50 -29.5t20 -50.5q0 -19 -11.5 -40t-42.5 -34.5t-74 -13.5zM171 155q28 0 58 -10.5t50 -39.5t20 -68q0 -32 -12 -71.5t-41.5 -79t-67.5 -71.5l-111 57q43 52 60 111q-39 8 -61.5 30
t-22.5 54q0 19 11.5 40t42.5 34.5t74 13.5z" />
    <glyph glyph-name="less" unicode="&#x3c;" horiz-adv-x="553" 
d="M514 363l-298 -98l298 -98l-51 -141l-432 177v124l432 177z" />
    <glyph glyph-name="equal" unicode="=" horiz-adv-x="640" 
d="M69 335v156h502v-156h-502zM69 57v156h502v-156h-502z" />
    <glyph glyph-name="greater" unicode="&#x3e;" horiz-adv-x="553" 
d="M90 504l432 -177v-124l-432 -177l-51 141l298 98l-298 98z" />
    <glyph glyph-name="question" unicode="?" horiz-adv-x="618" 
d="M278 667q157 0 234.5 -42t77.5 -128q0 -43 -20.5 -76t-52.5 -55t-87.5 -47t-67.5 -37t-12 -22l2 -25h-191q-9 21 -9 48q0 19 10 40.5t36 42.5t77.5 45.5t61.5 33.5t10 16q0 9 -11 18t-39.5 14.5t-65.5 5.5q-97 0 -167 -19l-38 155q101 32 252 32zM261 142q64 0 100 -21.5
t36 -59.5t-36 -59.5t-100 -21.5t-100 21.5t-36 59.5t36 59.5t100 21.5z" />
    <glyph glyph-name="at" unicode="@" horiz-adv-x="1104" 
d="M584 598q76 0 158.5 -17t154.5 -58.5t110.5 -94.5t50.5 -99t12 -82q0 -78 -29.5 -130t-85 -79.5t-137.5 -27.5q-74 0 -123.5 26.5t-58.5 80.5q-35 -51 -86 -79t-109 -28q-81 0 -129.5 44.5t-48.5 120.5q0 46 20 85.5t58 68t94 44t124 15.5q162 0 275 -45v-146
q0 -17 9 -26.5t21 -9.5q21 0 35 21t14 65q0 97 -89 152.5t-256 55.5q-80 0 -149.5 -18.5t-120 -54t-78.5 -88.5t-28 -118q0 -108 71 -170.5t197 -62.5q57 0 110.5 16t93.5 45l57 -112q-50 -43 -124.5 -67.5t-164.5 -24.5q-85 0 -158.5 25t-127.5 73.5t-84 119.5t-30 158
q0 98 42 177t117.5 133.5t177 83t215.5 28.5zM514 167q33 0 65 14t55 45v19q-36 7 -77 7q-44 0 -68.5 -13t-24.5 -34q0 -18 14 -28t36 -10z" />
    <glyph glyph-name="A" unicode="A" horiz-adv-x="858" 
d="M852 170l47 -133q-70 -57 -174 -57q-109 0 -165 84h-251l-33 -64h-264l216 370h-75v170h157q141 0 219.5 -35.5t119.5 -119.5l82 -169q22 -46 35.5 -56.5t33.5 -10.5q31 0 52 21zM439 314l-59 -114h113z" />
    <glyph glyph-name="B" unicode="B" horiz-adv-x="789" 
d="M621 279q76 -19 106 -54t30 -82q0 -82 -90.5 -122.5t-276.5 -40.5q-135 0 -319 20v540q191 20 310 20q96 0 166.5 -11t114.5 -31t64.5 -48.5t20.5 -63.5q0 -93 -126 -127zM487 372q0 21 -22 32t-84 11q-33 0 -74 -3v-81h113q32 0 49.5 11.5t17.5 29.5zM390 130
q55 0 81 10t26 32q0 43 -71 43h-119v-82q47 -3 83 -3z" />
    <glyph glyph-name="C" unicode="C" horiz-adv-x="744" 
d="M667 224l59 -167q-122 -77 -313 -77q-78 0 -139.5 17t-105 41.5t-75 59t-49 78.5t-17.5 94q0 67 29.5 122t84 92t132 56.5t169.5 19.5q83 0 155 -10t119 -27l-49 -175q-87 17 -195 17q-100 0 -150.5 -26t-50.5 -69q0 -42 46.5 -68.5t135.5 -26.5q130 0 214 49z" />
    <glyph glyph-name="D" unicode="D" horiz-adv-x="802" 
d="M390 560q88 0 160 -19.5t121.5 -56.5t76 -91.5t26.5 -122.5q0 -67 -29 -121.5t-81 -92t-122.5 -57t-151.5 -19.5q-162 0 -319 20v540q167 20 319 20zM400 167q28 0 59 10t51 35.5t20 57.5q0 21 -11.5 45t-43.5 41t-75 17q-56 0 -93 -4v-197q47 -5 93 -5z" />
    <glyph glyph-name="E" unicode="E" horiz-adv-x="775" 
d="M700 171l51 -145q-133 -46 -306 -46q-174 0 -258 50.5t-84 152.5v191h-80v166h706v-166h-390v-38h320v-136h-319q9 -52 146 -52q136 0 214 23z" />
    <glyph glyph-name="F" unicode="F" horiz-adv-x="760" 
d="M736 367h-389v-58h331v-156h-331v-153h-236v367h-80v173h705v-173z" />
    <glyph glyph-name="G" unicode="G" horiz-adv-x="776" 
d="M504 273h232v-280q-36 -13 -77 -13q-94 0 -132 59q-27 -29 -72.5 -44t-105.5 -15q-65 0 -123.5 19.5t-103 57t-69.5 92t-25 121.5t29.5 122t84 92t132 56.5t169.5 19.5q83 0 155 -10t119 -27l-49 -175q-87 17 -195 17q-100 0 -150.5 -26t-50.5 -69q0 -19 12.5 -42t48 -38
t91.5 -15q47 0 80 11v87z" />
    <glyph glyph-name="H" unicode="H" horiz-adv-x="918" 
d="M878 165l47 -133q-76 -52 -183 -52q-82 0 -132.5 38.5t-50.5 114.5v46h-252v-179h-236v540h236v-170h252v170h236v-329q0 -62 45 -62q20 0 38 16z" />
    <glyph glyph-name="I" unicode="I" horiz-adv-x="378" 
d="M71 540h236v-540h-236v540z" />
    <glyph glyph-name="J" unicode="J" horiz-adv-x="390" 
d="M83 540h236v-559q0 -40 -18 -78.5t-61 -68t-112 -47t-166 -17.5l-29 133q27 0 62.5 8t61.5 31t26 59v539z" />
    <glyph glyph-name="K" unicode="K" horiz-adv-x="844" 
d="M792 170l47 -133q-67 -57 -164 -57q-42 0 -83.5 12.5t-84.5 57.5l-94 111q-69 -71 -131 -161h-210l-1 540h236l1 -106q0 -58 -13 -147q85 101 193.5 172.5t236.5 100.5l63 -180q-51 -12 -105 -34t-99 -49l81 -102q24 -30 40 -38t35 -8q31 0 52 21z" />
    <glyph glyph-name="L" unicode="L" horiz-adv-x="643" 
d="M307 173h316v-173h-552v540h236v-367z" />
    <glyph glyph-name="M" unicode="M" horiz-adv-x="1012" 
d="M972 165l47 -133q-76 -52 -183 -52q-82 0 -132.5 38.5t-50.5 114.5v51q0 54 13 110l-166 -201l-167 214q6 -24 10 -59.5t4 -63.5v-184h-236v370h-80v170h161q119 -1 185.5 -28t107.5 -85l32 -46l151 159h221v-329q0 -62 45 -62q20 0 38 16z" />
    <glyph glyph-name="N" unicode="N" horiz-adv-x="893" 
d="M586 540h236v-540h-211l-282 318q7 -28 12.5 -69.5t5.5 -74.5v-174h-236v370h-80v170h161q100 -1 166.5 -21t115.5 -76l123 -141q-11 53 -11 124v114z" />
    <glyph glyph-name="O" unicode="O" horiz-adv-x="826" 
d="M413 560q78 0 139.5 -17t105 -41.5t75 -59t49 -78.5t17.5 -94t-17.5 -94t-49 -78.5t-75 -59t-105 -41.5t-139.5 -17t-139.5 17t-105 41.5t-75 59t-49 78.5t-17.5 94t17.5 94t49 78.5t75 59t105 41.5t139.5 17zM413 167q28 0 61.5 10t57 35.5t23.5 57.5t-23.5 57.5
t-57 35.5t-61.5 10t-61.5 -10t-57 -35.5t-23.5 -57.5t23.5 -57.5t57 -35.5t61.5 -10z" />
    <glyph glyph-name="P" unicode="P" horiz-adv-x="784" 
d="M400 560q181 0 274 -53.5t93 -159.5q0 -53 -23 -94t-68.5 -68.5t-112.5 -41t-153 -13.5l-103 2v-132h-236v540q180 20 329 20zM410 295q113 0 113 52q0 46 -113 46q-54 0 -103 -4v-92z" />
    <glyph glyph-name="Q" unicode="Q" horiz-adv-x="826" 
d="M628 -36q21 0 46.5 8.5t43.5 22.5l54 -150q-59 -50 -162 -50q-19 0 -47 3.5t-83 20t-86 21.5t-61 5q-85 0 -154 -30l-58 166q67 28 163 33q-82 18 -138.5 54t-87.5 86.5t-31 115.5q0 50 17.5 94t49 78.5t75 59t105 41.5t139.5 17t140 -17t105.5 -41.5t75 -59t49 -78.5
t17.5 -94q0 -47 -20 -94.5t-65.5 -84.5t-112.5 -61t-151 -29l25 -7q54 -16 76.5 -21.5t44.5 -7t31 -1.5zM413 373q-28 0 -61.5 -10t-57 -35.5t-23.5 -57.5t23.5 -57.5t57 -35.5t61.5 -10t61.5 10t57.5 35.5t24 57.5t-24 57.5t-57.5 35.5t-61.5 10z" />
    <glyph glyph-name="R" unicode="R" horiz-adv-x="853" 
d="M790 170l47 -133q-67 -57 -164 -57q-49 0 -86.5 14.5t-73.5 44.5l-106 103h-100v-142h-236v540q188 20 349 20q377 0 377 -190q0 -117 -137 -169l19 -21q27 -31 59 -31q31 0 52 21zM307 391v-91h133q64 0 89 12t25 35t-28 35.5t-106 12.5q-39 0 -113 -4z" />
    <glyph glyph-name="S" unicode="S" horiz-adv-x="748" 
d="M280 376q0 -9 19 -14.5t97.5 -10t117 -10.5t66.5 -13.5t60 -23t54.5 -46.5t22.5 -75q0 -37 -14.5 -74t-50.5 -65.5t-96.5 -46t-150.5 -17.5q-115 0 -204.5 18t-168.5 56l58 144q128 -58 297 -58q48 0 67 7t19 22q0 5 -6 9.5t-23 8t-112.5 11t-141 20t-70.5 25.5t-44 31
t-29.5 43t-10.5 55q0 59 40.5 100t122.5 64.5t214 23.5q65 0 145.5 -8t145.5 -29l-42 -149q-49 12 -112 19t-120 7q-150 0 -150 -24z" />
    <glyph glyph-name="T" unicode="T" horiz-adv-x="783" 
d="M759 349h-270v-126q0 -74 65 -74q29 0 53 16l46 -134q-80 -51 -197 -51q-67 0 -112 19.5t-68 53t-23 82.5v214h-234v191h740v-191z" />
    <glyph glyph-name="U" unicode="U" horiz-adv-x="890" 
d="M850 165l47 -133q-76 -52 -183 -52q-73 0 -121.5 30.5t-58.5 90.5q-42 -63 -105.5 -92t-133.5 -29q-106 0 -169 59t-63 171v330h236v-276q0 -45 22 -69t59 -24q52 0 85 34t49.5 103.5t16.5 191.5v40h236v-329q0 -62 45 -62q20 0 38 16z" />
    <glyph glyph-name="V" unicode="V" horiz-adv-x="855" 
d="M603 540h264l-311 -540h-235l-173 324q-24 45 -31 52t-15.5 11t-22.5 4q-31 0 -52 -21l-42 120q32 32 76 51t93 19q64 0 109 -30t76 -90l108 -208z" />
    <glyph glyph-name="W" unicode="W" horiz-adv-x="1137" 
d="M883 540h252l-253 -540h-164l-101 237l-27 76l-27 -76l-101 -237h-165l-148 324q-15 34 -29.5 50.5t-39.5 16.5q-31 0 -52 -21l-47 133q67 57 164 57q69 0 111 -29t66 -86l35 -85q13 -34 25 -80q17 56 27 80l78 180h206l78 -180q8 -18 23 -67q13 48 20 67z" />
    <glyph glyph-name="X" unicode="X" horiz-adv-x="859" 
d="M798 170l47 -133q-64 -57 -169 -57q-53 0 -93.5 16t-76.5 51l-81 78q-130 -122 -326 -145l-63 180q135 16 242 105l-99 92q-17 16 -34.5 25t-31.5 9q-31 0 -52 -21l-47 133q64 57 169 57q53 0 93.5 -16t76.5 -51l80 -78q131 122 326 145l63 -180q-133 -16 -242 -104
l100 -93q17 -16 34.5 -25t31.5 -9q31 0 52 21z" />
    <glyph glyph-name="Y" unicode="Y" horiz-adv-x="804" 
d="M836 540l-304 -337v-203h-236v192l-147 168q-27 31 -59 31q-31 0 -52 -21l-47 133q67 57 164 57q111 0 165 -63l43 -51q36 -42 55 -73q12 23 52 73l74 94h292z" />
    <glyph glyph-name="Z" unicode="Z" horiz-adv-x="763" 
d="M683 206l58 -150q-43 -47 -92 -61.5t-104 -14.5q-67 0 -155 20.5t-143 20.5q-89 0 -185 -42l-26 178l356 204q-54 -6 -118 -6h-226v185h651v-185l-237 -146q-8 -5 -22.5 -12t-24.5 -10q13 -3 47 -11.5t57.5 -11.5t43.5 -3q81 0 120 45z" />
    <glyph glyph-name="bracketleft" unicode="[" horiz-adv-x="441" 
d="M415 427q-75 -7 -152 -9v-476q77 -2 152 -9v-143h-354v780h354v-143z" />
    <glyph glyph-name="backslash" unicode="\" horiz-adv-x="621" 
d="M601 -210h-178l-403 860h176z" />
    <glyph glyph-name="bracketright" unicode="]" horiz-adv-x="441" 
d="M380 570v-780h-354v143q75 7 152 9v476q-77 2 -152 9v143h354z" />
    <glyph glyph-name="asciicircum" unicode="^" horiz-adv-x="581" 
d="M359 559l194 -356l-155 -43l-108 247l-107 -247l-155 43l194 356h137z" />
    <glyph glyph-name="underscore" unicode="_" horiz-adv-x="580" 
d="M50 0h480v-154h-480v154z" />
    <glyph glyph-name="grave" unicode="`" horiz-adv-x="348" 
d="M130 731l198 -185l-95 -98l-213 155z" />
    <glyph glyph-name="a" unicode="a" horiz-adv-x="796" 
d="M772 170l51 -135q-34 -25 -80 -40t-99 -15q-167 0 -182 125q-19 -28 -52 -58t-80.5 -48.5t-98.5 -18.5q-94 0 -151 51.5t-57 140.5q0 52 23 97.5t67.5 78t109.5 50.5t144 18q190 0 326 -54v-156q0 -52 41 -52q20 0 38 16zM316 161q40 0 78.5 16.5t66.5 53.5v20
q-17 3 -47 6t-48 3q-52 0 -82 -15t-30 -40q0 -20 17.5 -32t44.5 -12z" />
    <glyph glyph-name="b" unicode="b" horiz-adv-x="743" 
d="M512 416q94 0 151 -51.5t57 -140.5q0 -52 -23 -97.5t-67.5 -78t-109.5 -50.5t-144 -18q-190 0 -326 54v516h232v-257q20 28 52.5 57.5t80 47.5t97.5 18zM377 136q52 0 82 15t30 40q0 20 -17.5 32t-44.5 12q-40 0 -78.5 -16.5t-66.5 -53.5v-20q17 -3 47 -6t48 -3z" />
    <glyph glyph-name="c" unicode="c" horiz-adv-x="634" 
d="M568 179l55 -131q-103 -68 -281 -68q-70 0 -129.5 14.5t-101.5 42.5t-65 69t-23 92q0 103 91 160.5t252 57.5q147 0 232 -22l-26 -153q-72 12 -166 12q-71 0 -110 -14t-39 -41q0 -28 37 -41.5t99 -13.5q103 0 175 36z" />
    <glyph glyph-name="d" unicode="d" horiz-adv-x="811" 
d="M777 170l51 -135q-34 -25 -80 -40t-99 -15q-171 0 -182 130q-42 -62 -103 -96t-132 -34q-94 0 -151 51.5t-57 140.5q0 52 20 97t57.5 78t90.5 51t116 18q86 0 158 -27v161h232v-344q0 -52 41 -52q20 0 38 16zM317 161q42 0 81.5 18t67.5 58v6q-59 17 -119 17
q-42 0 -67 -15t-25 -40q0 -20 17.5 -32t44.5 -12z" />
    <glyph glyph-name="e" unicode="e" horiz-adv-x="668" 
d="M385 124q53 0 105.5 7t92.5 20l47 -112q-49 -29 -122 -44t-162 -15q-72 0 -132 14.5t-102.5 42.5t-65.5 69t-23 92q0 52 24 93.5t67.5 69t101 41.5t123.5 14q79 0 138.5 -16.5t96.5 -44t54.5 -61t17.5 -66.5q0 -25 -17.5 -42.5t-46.5 -17.5h-332q3 -11 17.5 -21.5
t46 -16.5t71.5 -6zM339 280q-37 0 -61 -12t-26 -28h168q4 0 5 4q0 11 -23.5 23.5t-62.5 12.5z" />
    <glyph glyph-name="f" unicode="f" horiz-adv-x="543" 
d="M429 431q-30 0 -50.5 -9.5t-26.5 -25.5h178v-148h-180v-261q0 -53 -22 -94t-62.5 -68.5t-99 -41t-129.5 -13.5l-31 141q52 0 83.5 22t32.5 64v251h-100v148h100q5 38 24.5 70t53 55.5t82 36t109.5 12.5q86 0 166 -10l-6 -132q-84 3 -122 3z" />
    <glyph glyph-name="g" unicode="g" horiz-adv-x="742" 
d="M367 416q190 0 326 -54v-287q0 -70 -22 -126.5t-67 -96.5t-115.5 -61t-163.5 -21q-149 0 -257 45l39 135q87 -28 179 -28q62 0 99.5 16t56.5 52.5t19 108.5v4q-20 -28 -52.5 -57.5t-80 -47.5t-97.5 -18q-94 0 -151 51.5t-57 140.5q0 52 23 97.5t67.5 78t109.5 50.5
t144 18zM316 161q40 0 78.5 16.5t66.5 53.5v20q-17 3 -47 6t-48 3q-52 0 -82 -15t-30 -40q0 -20 17.5 -32t44.5 -12z" />
    <glyph glyph-name="h" unicode="h" horiz-adv-x="782" 
d="M755 170l51 -135q-34 -25 -80 -40t-99 -15q-183 0 -183 150v20q0 14 -7.5 22.5t-20.5 8.5q-37 0 -74.5 -49t-68.5 -132h-221v550h232v-255l-2 -30q17 30 50 65.5t74 56t67.5 25t43.5 4.5q74 1 116.5 -39.5t42.5 -122.5v-48q0 -52 41 -52q20 0 38 16z" />
    <glyph glyph-name="i" unicode="i" horiz-adv-x="400" 
d="M300 570q0 -38 -36 -59.5t-100 -21.5t-100 21.5t-36 59.5t36 59.5t100 21.5t100 -21.5t36 -59.5zM374 170l47 -137q-75 -53 -171 -53q-67 0 -111.5 18t-67.5 51.5t-23 83.5v263h232v-187q0 -55 54 -55q22 0 40 16z" />
    <glyph glyph-name="j" unicode="j" horiz-adv-x="344" 
d="M176 651q64 0 100 -21.5t36 -59.5t-36 -59.5t-100 -21.5t-100 21.5t-36 59.5t36 59.5t100 21.5zM60 396h232v-409q0 -53 -22 -94t-63.5 -68.5t-100 -41t-129.5 -13.5l-31 141q51 0 82 22t32 64v399z" />
    <glyph glyph-name="k" unicode="k" horiz-adv-x="706" 
d="M653 165l47 -135q-66 -50 -150 -50q-41 0 -80 11t-75 46l-52 50q-36 -37 -70 -87h-221v550h232v-255q0 -14 -4 -40q61 69 142 111t172 50l54 -164q-76 -9 -140 -40l37 -37q13 -13 29.5 -21t31.5 -8q25 0 47 19z" />
    <glyph glyph-name="l" unicode="l" horiz-adv-x="398" 
d="M374 170l47 -137q-75 -53 -171 -53q-67 0 -111.5 18t-67.5 51.5t-23 83.5v417h232v-341q0 -55 54 -55q22 0 40 16z" />
    <glyph glyph-name="m" unicode="m" horiz-adv-x="1138" 
d="M1111 170l51 -135q-34 -25 -80 -40t-99 -15q-183 0 -183 150v20q0 14 -7.5 22.5t-20.5 8.5q-27 0 -58 -43.5t-60 -137.5h-232v150q0 14 -7.5 22.5t-20.5 8.5q-27 0 -58 -43.5t-60 -137.5h-224v396h232v-96q0 -15 -4 -41q36 68 95.5 112t129.5 45q24 0 49 -6t47 -23
t37.5 -49.5t15.5 -83.5v-4q33 70 93.5 117.5t135.5 48.5q24 0 49 -6t47 -23t37.5 -49.5t15.5 -83.5v-48q0 -52 41 -52q20 0 38 16z" />
    <glyph glyph-name="n" unicode="n" horiz-adv-x="785" 
d="M758 170l51 -135q-34 -25 -80 -40t-99 -15q-183 0 -183 150v20q0 14 -7.5 22.5t-20.5 8.5q-37 0 -74.5 -49t-68.5 -132h-224v396h232v-96q0 -16 -4 -44q37 69 102.5 114t137.5 46q74 1 116.5 -39.5t42.5 -122.5v-48q0 -52 41 -52q20 0 38 16z" />
    <glyph glyph-name="o" unicode="o" horiz-adv-x="670" 
d="M335 416q66 0 123.5 -14.5t100 -43t66 -69.5t23.5 -91t-23.5 -91t-66 -69.5t-100 -43t-123.5 -14.5t-123.5 14.5t-100 43t-66 69.5t-23.5 91t23.5 91t66 69.5t100 43t123.5 14.5zM335 139q33 0 56 17t23 42t-23 42t-56 17t-56 -17t-23 -42t23 -42t56 -17z" />
    <glyph glyph-name="p" unicode="p" horiz-adv-x="746" 
d="M514 416q94 0 151 -51.5t57 -140.5q0 -52 -20 -97t-57.5 -78t-90.5 -51t-116 -18q-85 0 -154 25v-215h-232v606h232v-103q41 58 102 90.5t128 32.5zM399 136q42 0 67 15t25 40q0 20 -17.5 32t-44.5 12q-40 0 -78.5 -16.5t-66.5 -53.5v-13q59 -16 115 -16z" />
    <glyph glyph-name="q" unicode="q" horiz-adv-x="743" 
d="M367 416q190 0 326 -54v-572h-232v313q-20 -28 -52.5 -57.5t-80 -47.5t-97.5 -18q-94 0 -151 51.5t-57 140.5q0 52 23 97.5t67.5 78t109.5 50.5t144 18zM316 161q40 0 78.5 16.5t66.5 53.5v20q-17 3 -47 6t-48 3q-52 0 -82 -15t-30 -40q0 -20 17.5 -32t44.5 -12z" />
    <glyph glyph-name="r" unicode="r" horiz-adv-x="567" 
d="M281 256q28 51 75 90.5t96 54.5t92 15v-223q-227 0 -268 -193h-224v396h232v-96q0 -16 -4 -44h1z" />
    <glyph glyph-name="s" unicode="s" horiz-adv-x="645" 
d="M387 256q68 -5 118 -17t81 -39t31 -70q0 -49 -32.5 -82t-95 -50.5t-156.5 -17.5q-162 0 -299 42l28 122q108 -40 257 -40q25 0 44.5 4.5t19.5 14.5q0 7 -15 11.5t-64 8t-68 5.5q-63 6 -109 19.5t-73.5 39t-27.5 65.5q0 71 84 108t249 36q159 0 252 -22l-21 -118
q-89 13 -212 16q-74 0 -95.5 -4.5t-21.5 -12.5q0 -5 12 -9t56 -6.5t58 -3.5z" />
    <glyph glyph-name="t" unicode="t" horiz-adv-x="581" 
d="M517 170l44 -135q-42 -26 -98 -40.5t-115 -14.5q-84 0 -138.5 26t-83 74t-28.5 121v47h-82v148h82v40l232 104v-144h213v-148h-213v-22q0 -36 24 -54t78 -18q48 0 85 16z" />
    <glyph glyph-name="u" unicode="u" horiz-adv-x="800" 
d="M764 170l51 -135q-34 -25 -80 -40t-99 -15q-183 0 -183 150v1l1 10q-42 -68 -109.5 -114t-142.5 -47q-72 -1 -113 39.5t-41 122.5v254h232v-150q0 -14 7.5 -22.5t20.5 -8.5q30 0 71 48.5t82 132.5h224v-190q0 -52 41 -52q20 0 38 16z" />
    <glyph glyph-name="v" unicode="v" horiz-adv-x="735" 
d="M488 396h235q0 -63 -16 -118t-48.5 -105t-88.5 -95t-132.5 -71.5t-148.5 -26.5q-79 0 -124.5 40t-45.5 122v48q0 52 -41 52q-20 0 -38 -16l-51 135q34 25 80 40t99 15q183 0 183 -150v-40q0 -14 6 -22.5t17 -8.5t30 10.5t38 33.5t32.5 63t13.5 94z" />
    <glyph glyph-name="w" unicode="w" horiz-adv-x="1108" 
d="M855 396h235q0 -99 -36 -178.5t-95 -132t-128 -79t-134 -26.5q-73 0 -114 40t-41 122v3q0 13 3 22q-43 -83 -119 -135t-157 -52q-70 0 -110 40t-40 122v48q0 52 -41 52q-20 0 -38 -16l-51 135q34 25 80 40t99 15q183 0 183 -150v-30q0 -14 6 -22.5t17 -8.5q24 0 59 50.5
t69 140.5h212v-160q0 -31 27 -31q20 0 47.5 22t47 64t19.5 105z" />
    <glyph glyph-name="x" unicode="x" horiz-adv-x="747" 
d="M634 207l103 -101q-14 -28 -41 -58t-70 -49t-91 -19q-40 0 -71 12t-62 39l-38 35q-24 -18 -63 -37.5t-95 -33t-117 -16.5l-54 164q98 9 186 58q-27 21 -53 21q-16 0 -31.5 -9.5t-25.5 -23.5l-103 101q14 28 41 58t70 49t91 19q40 0 71 -12t62 -39l41 -38q51 38 123 61.5
t155 27.5l54 -164q-102 -9 -188 -60q24 -18 49 -18q16 0 31.5 9.5t25.5 23.5z" />
    <glyph glyph-name="y" unicode="y" horiz-adv-x="797" 
d="M522 396h224v-321q0 -70 -22 -126.5t-67 -96.5t-115.5 -61t-163.5 -21q-149 0 -257 45l39 135q87 -28 179 -28q62 0 99.5 16t56.5 52.5t19 108.5v1q0 19 3 38q-37 -68 -102 -112.5t-137 -45.5q-74 -1 -116.5 39.5t-42.5 122.5v48q0 52 -41 52q-20 0 -38 -16l-51 135
q34 25 80 40t99 15q183 0 183 -150v-20q0 -14 7.5 -22.5t20.5 -8.5q37 0 74.5 49t68.5 132z" />
    <glyph glyph-name="z" unicode="z" horiz-adv-x="668" 
d="M591 172l63 -116q-22 -34 -64.5 -55.5t-103.5 -21.5q-39 0 -70 6t-90.5 24.5t-98.5 18.5q-86 0 -176 -49l-21 144l243 115h-232v158h578v-148l-201 -83q43 -12 56.5 -14t27.5 -2q11 0 37.5 3.5t51.5 19.5z" />
    <glyph glyph-name="braceleft" unicode="{" horiz-adv-x="501" 
d="M387 -65h86l7 -135q-66 -10 -136 -10q-60 0 -99.5 13t-67.5 33.5t-47 59.5t-19 95v67q0 31 -21.5 43.5t-66.5 12.5v152q45 0 66.5 12.5t21.5 43.5v67q0 45 13.5 81.5t42 63.5t73 41.5t104.5 14.5q70 0 136 -10l-7 -135h-86q-34 0 -54 -13t-20 -36v-82q0 -76 -82 -124
q82 -48 82 -124v-82q0 -23 20 -36t54 -13z" />
    <glyph glyph-name="bar" unicode="|" horiz-adv-x="334" 
d="M61 650h212v-860h-212v860z" />
    <glyph glyph-name="braceright" unicode="}" horiz-adv-x="501" 
d="M390 322q0 -31 21.5 -43.5t66.5 -12.5v-152q-45 0 -66.5 -12.5t-21.5 -43.5v-67q0 -45 -13.5 -81.5t-42 -63.5t-73 -41.5t-104.5 -14.5q-70 0 -136 10l7 135h86q34 0 54 13t20 36v82q0 76 82 124q-82 48 -82 124v82q0 23 -20 36t-54 13h-86l-7 135q66 10 136 10
q60 0 99.5 -13t67.5 -33.5t47 -59.5t19 -95v-67z" />
    <glyph glyph-name="asciitilde" unicode="~" horiz-adv-x="619" 
d="M538 354l45 -127q-51 -53 -157 -53q-7 0 -25.5 1t-41.5 6t-82.5 24.5t-94.5 19.5q-32 0 -59 -10.5t-41 -28.5l-45 127q51 53 157 53q7 0 25.5 -1t41.5 -6t82.5 -24.5t94.5 -19.5q32 0 59 10.5t41 28.5z" />
    <glyph glyph-name="exclamdown" unicode="&#xa1;" horiz-adv-x="344" 
d="M172 456q64 0 100 -21.5t36 -59.5t-36 -59.5t-100 -21.5t-100 21.5t-36 59.5t36 59.5t100 21.5zM75 201h194q18 -213 20.5 -283t2.5 -128h-240q0 75 3 140t6.5 111.5t8 96t5.5 63.5z" />
    <glyph glyph-name="cent" unicode="&#xa2;" horiz-adv-x="661" 
d="M623 120q-84 -55 -211 -65v-54h-56v51h-14q-70 0 -129.5 14.5t-101.5 42.5t-65 69t-23 92q0 102 88 159t245 59v51h56v-52q119 -3 186 -21l-26 -153q-72 12 -166 12q-71 0 -110 -14t-39 -41q0 -28 37 -41.5t99 -13.5q103 0 175 36z" />
    <glyph glyph-name="sterling" unicode="&#xa3;" horiz-adv-x="718" 
d="M307 151q116 7 175 7h189v-158h-636v147q62 0 72 71h-59v50h61v81q0 90 71.5 132t229.5 42q164 0 272 -35l-42 -164q-38 13 -90 20t-100 7q-36 0 -62.5 -7.5t-36.5 -20.5t-10 -25v-30h232v-50h-234q-7 -38 -32 -67z" />
    <glyph glyph-name="currency" unicode="&#xa4;" horiz-adv-x="588" 
d="M526 270q0 -30 -10 -58.5t-26 -50.5l56 -54l-52 -51l-57 60q-31 -18 -69 -27t-74 -9t-74 9t-69 27l-57 -60l-51 51l56 54q-16 20 -26.5 48.5t-10.5 60.5t10.5 60.5t26.5 48.5l-56 54l51 51l57 -60q31 18 69 27t74 9t74 -9t69 -27l57 60l52 -51l-56 -54q16 -22 26 -50.5
t10 -58.5zM294 214q25 0 43 16.5t18 39.5t-18 39.5t-43 16.5t-43 -16.5t-18 -39.5t18 -39.5t43 -16.5z" />
    <glyph glyph-name="yen" unicode="&#xa5;" horiz-adv-x="839" 
d="M816 504l-251 -284h95v-50h-124v-26h124v-50h-124v-94h-236v94h-124v50h124v26h-124v50h95l-92 108q-27 28 -56 28q-31 0 -51 -18l-42 119q30 30 71 48t86 18q47 0 80 -13t60 -43l89 -98l109 135h291z" />
    <glyph glyph-name="brokenbar" unicode="&#xa6;" horiz-adv-x="332" 
d="M60 650h212v-310h-212v310zM60 100h212v-310h-212v310z" />
    <glyph glyph-name="section" unicode="&#xa7;" horiz-adv-x="687" 
d="M577 174q66 -41 66 -114q0 -89 -90.5 -136t-249.5 -47q-76 0 -143 10t-113 26l41 146q97 -25 198 -25q55 0 86.5 6t31.5 17q0 4 -5 8t-20 7.5t-103 11t-133.5 23.5t-67.5 34.5t-31.5 40.5t-9.5 48q0 37 20 66t56 47q-66 41 -66 114q0 89 90.5 136t249.5 47q76 0 143 -10
t113 -26l-41 -146q-97 25 -198 25q-55 0 -86.5 -6t-31.5 -17q0 -4 5 -8t20 -7.5t103 -11t133.5 -23.5t67.5 -34.5t31.5 -40.5t9.5 -48q0 -37 -20 -66t-56 -47zM265 267q0 -9 12 -17.5t37 -13.5t80 -13q12 2 20 9.5t8 17.5q0 9 -12 17.5t-37 13.5t-80 13q-12 -2 -20 -9.5
t-8 -17.5z" />
    <glyph glyph-name="dieresis" unicode="&#xa8;" horiz-adv-x="562" 
d="M136 489q-53 0 -84.5 22t-31.5 59t31.5 59t84.5 22t84.5 -22t31.5 -59t-31.5 -59t-84.5 -22zM426 489q-53 0 -84.5 22t-31.5 59t31.5 59t84.5 22t84.5 -22t31.5 -59t-31.5 -59t-84.5 -22z" />
    <glyph glyph-name="copyright" unicode="&#xa9;" horiz-adv-x="1036" 
d="M518 598q97 0 185.5 -26.5t156 -78t106 -127.5t38.5 -168t-38.5 -168t-106 -127.5t-156 -78t-185.5 -26.5t-185.5 26.5t-156 78t-106 127.5t-38.5 168t38.5 168t106 127.5t156 78t185.5 26.5zM518 -59q71 0 131.5 17t104 49.5t67 81t23.5 109.5t-23.5 109.5t-67 81
t-104 49.5t-131.5 17t-131.5 -17t-104 -49.5t-67 -81t-23.5 -109.5t23.5 -109.5t67 -81t104 -49.5t131.5 -17zM554 150q85 0 137 31l45 -127q-79 -52 -212 -52q-80 0 -139 27t-90 70t-31 99q0 45 17.5 77.5t46 56.5t83.5 42.5t133 18.5q117 0 186 -24l-39 -134
q-60 10 -124 10q-59 0 -89 -13t-30 -34t27.5 -34.5t78.5 -13.5z" />
    <glyph glyph-name="ordfeminine" unicode="&#xaa;" horiz-adv-x="629" 
d="M577 378l38 -100q-54 -41 -133 -41q-124 0 -139 86q-30 -41 -73.5 -63.5t-91.5 -22.5q-69 0 -110.5 38t-41.5 104q0 80 68 130.5t185 50.5q138 0 240 -40v-116q0 -38 30 -38q16 0 28 12zM244 371q59 0 97 44v24q-35 5 -63 5q-34 0 -54.5 -11t-20.5 -29q0 -15 11.5 -24
t29.5 -9z" />
    <glyph glyph-name="guillemotleft" unicode="&#xab;" horiz-adv-x="727" 
d="M357 387q-50 -54 -119 -89l-32 -15l32 -15q69 -35 119 -89l-93 -129q-20 26 -53 58t-81.5 61.5t-99.5 48.5v130q33 12 75.5 34.5t85.5 58t73 75.5zM578 268q69 -35 119 -89l-93 -129q-20 26 -53 58t-81.5 61.5t-99.5 48.5v130q33 12 75.5 34.5t85.5 58t73 75.5l93 -129
q-50 -54 -119 -89l-32 -15z" />
    <glyph glyph-name="registered" unicode="&#xae;" horiz-adv-x="637" 
d="M319 560q129 0 207 -66.5t78 -176.5q0 -54 -20 -99t-57.5 -77t-91 -49t-116.5 -17q-64 0 -117 17t-91 49t-58 77t-20 99t20 99.5t58 77.5t91 49t117 17zM319 155q89 0 141.5 44t52.5 118t-52.5 118.5t-141.5 44.5q-90 0 -142 -44.5t-52 -118.5t52 -118t142 -44zM431 276
q11 0 21 8l18 -53q-25 -22 -65 -22q-21 0 -40.5 7.5t-30.5 21.5l-31 34h-18v-56h-96v208q69 8 127 8q139 0 139 -73q0 -19 -10 -36.5t-42 -29.5l5 -6q11 -11 23 -11zM285 368v-36h39q32 0 32 18q0 10 -9 14.5t-31 4.5z" />
    <glyph glyph-name="macron" unicode="&#xaf;" horiz-adv-x="406" 
d="M20 631h366v-132h-366v132z" />
    <glyph glyph-name="degree" unicode="&#xb0;" horiz-adv-x="336" 
d="M168 304q-29 0 -61.5 10.5t-55 38.5t-22.5 69t22.5 69t55 38.5t61.5 10.5t61.5 -10.5t55 -38.5t22.5 -69t-22.5 -69t-55 -38.5t-61.5 -10.5zM168 380q20 0 34 12t14 30t-14 30t-34 12t-34 -12t-14 -30t14 -30t34 -12z" />
    <glyph glyph-name="plusminus" unicode="&#xb1;" horiz-adv-x="616" 
d="M390 480h169v-156h-169v-115h-164v115h-169v156h169v113h164v-113zM57 0v156h502v-156h-502z" />
    <glyph glyph-name="acute" unicode="&#xb4;" horiz-adv-x="348" 
d="M218 731l110 -128l-213 -155l-95 98z" />
    <glyph glyph-name="paragraph" unicode="&#xb6;" horiz-adv-x="747" 
d="M362 560q180 0 302 -20v-690h-133v550l-42 2v-552h-133v327h-13q-155 0 -236 49t-81 145q0 94 85 141.5t251 47.5z" />
    <glyph glyph-name="periodcentered" unicode="&#xb7;" horiz-adv-x="322" 
d="M161 213q-28 0 -58 8t-50 29.5t-20 50.5q0 19 11.5 40t42.5 34.5t74 13.5q28 0 58 -8t50 -29.5t20 -50.5q0 -19 -11.5 -40t-42.5 -34.5t-74 -13.5z" />
    <glyph glyph-name="cedilla" unicode="&#xb8;" horiz-adv-x="296" 
d="M155 -43q62 -10 94 -36.5t32 -65.5t-35.5 -63.5t-108.5 -24.5q-68 0 -112 18l33 78q23 -6 48 -6q32 0 32 13q0 20 -89 20h-2l20 144l92 -32z" />
    <glyph glyph-name="ordmasculine" unicode="&#xba;" horiz-adv-x="504" 
d="M252 560q73 0 124.5 -22t78 -57.5t26.5 -81.5q0 -47 -29 -85.5t-84 -57.5t-116 -19t-116 19t-84 57.5t-29 85.5q0 46 26.5 81.5t78 57.5t124.5 22zM252 355q23 1 39 13.5t16 30.5t-16.5 30.5t-38.5 12.5t-38.5 -12.5t-16.5 -30.5t16 -30.5t39 -13.5z" />
    <glyph glyph-name="guillemotright" unicode="&#xbb;" horiz-adv-x="727" 
d="M123 516q20 -26 53 -58t81.5 -61.5t99.5 -48.5v-130q-33 -12 -75.5 -34.5t-85.5 -58t-73 -75.5l-93 129q50 54 119 89l32 15l-32 15q-69 35 -119 89zM463 516q20 -26 53 -58t81.5 -61.5t99.5 -48.5v-130q-33 -12 -75.5 -34.5t-85.5 -58t-73 -75.5l-93 129q50 54 119 89
l32 15l-32 15q-69 35 -119 89z" />
    <glyph glyph-name="onequarter" unicode="&#xbc;" horiz-adv-x="1012" 
d="M142 265v132q-47 -22 -97 -22l-18 115q42 0 78.5 17.5t56.5 52.5h139v-295h-159zM614 560h193l-475 -560h-195zM982 155v-106h-52v-49h-128v49h-207l-46 85q22 13 49 38t46 60t19 63h131q0 -65 -63 -140h71v77h128v-77h52z" />
    <glyph glyph-name="onehalf" unicode="&#xbd;" horiz-adv-x="997" 
d="M142 265v132q-47 -22 -97 -22l-18 115q42 0 78.5 17.5t56.5 52.5h139v-295h-159zM614 560h193l-475 -560h-195zM847 107q60 6 72 6h37v-113h-323v94q99 30 135 44.5t36 29.5q0 18 -57 18t-95 -18l-27 113q70 19 169 19q81 0 124 -24.5t43 -70.5q0 -65 -114 -98z" />
    <glyph glyph-name="threequarters" unicode="&#xbe;" horiz-adv-x="1056" 
d="M390 328q0 -40 -48 -61t-144 -21q-17 0 -65.5 3.5t-101.5 18.5l26 102q54 -19 114 -19q63 0 63 10t-101 10v59q45 0 72 1.5t27 8.5q0 12 -54 12q-64 0 -111 -15l-26 104q60 19 158 19q94 0 137.5 -22t43.5 -67q0 -44 -63 -71q73 -20 73 -72zM678 560h193l-475 -560h-195z
M1028 155v-106h-52v-49h-128v49h-207l-46 85q22 13 49 38t46 60t19 63h131q0 -65 -63 -140h71v77h128v-77h52z" />
    <glyph glyph-name="questiondown" unicode="&#xbf;" horiz-adv-x="614" 
d="M355 295q-64 0 -100 21.5t-36 59.5t36 59.5t100 21.5t100 -21.5t36 -59.5t-36 -59.5t-100 -21.5zM552 -43l38 -155q-101 -32 -252 -32q-157 0 -234.5 42t-77.5 128q0 43 20.5 76t52.5 55t87.5 47t67.5 37t12 22l-2 25h191q9 -21 9 -48q0 -19 -10 -40.5t-36 -42.5
t-77.5 -45.5t-61.5 -33.5t-10 -16q0 -9 11 -18t39.5 -14.5t65.5 -5.5q97 0 167 19z" />
    <glyph glyph-name="Agrave" unicode="&#xc0;" horiz-adv-x="858" 
d="M529 690l-95 -98l-213 155l110 128zM852 170l47 -133q-70 -57 -174 -57q-109 0 -165 84h-251l-33 -64h-264l216 370h-75v170h157q141 0 219.5 -35.5t119.5 -119.5l82 -169q22 -46 35.5 -56.5t33.5 -10.5q31 0 52 21zM439 314l-59 -114h113z" />
    <glyph glyph-name="Aacute" unicode="&#xc1;" horiz-adv-x="858" 
d="M647 745l-213 -155l-95 98l198 185zM852 170l47 -133q-70 -57 -174 -57q-109 0 -165 84h-251l-33 -64h-264l216 370h-75v170h157q141 0 219.5 -35.5t119.5 -119.5l82 -169q22 -46 35.5 -56.5t33.5 -10.5q31 0 52 21zM439 314l-59 -114h113z" />
    <glyph glyph-name="Acircumflex" unicode="&#xc2;" horiz-adv-x="858" 
d="M434 679l-116 -87l-92 109l208 154l208 -154l-92 -109zM852 170l47 -133q-70 -57 -174 -57q-109 0 -165 84h-251l-33 -64h-264l216 370h-75v170h157q141 0 219.5 -35.5t119.5 -119.5l82 -169q22 -46 35.5 -56.5t33.5 -10.5q31 0 52 21zM439 314l-59 -114h113z" />
    <glyph glyph-name="Atilde" unicode="&#xc3;" horiz-adv-x="858" 
d="M336 650q-34 0 -66 -13t-52 -36l-45 117q60 70 166 70q40 0 99 -19.5t94 -19.5q34 0 66 13t52 36l45 -117q-58 -70 -166 -70q-40 0 -99 19.5t-94 19.5zM852 170l47 -133q-70 -57 -174 -57q-109 0 -165 84h-251l-33 -64h-264l216 370h-75v170h157q141 0 219.5 -35.5
t119.5 -119.5l82 -169q22 -46 35.5 -56.5t33.5 -10.5q31 0 52 21zM439 314l-59 -114h113z" />
    <glyph glyph-name="Adieresis" unicode="&#xc4;" horiz-adv-x="858" 
d="M289 617q-53 0 -84.5 22t-31.5 59t31.5 59t84.5 22t84.5 -22t31.5 -59t-31.5 -59t-84.5 -22zM579 617q-53 0 -84.5 22t-31.5 59t31.5 59t84.5 22t84.5 -22t31.5 -59t-31.5 -59t-84.5 -22zM852 170l47 -133q-70 -57 -174 -57q-109 0 -165 84h-251l-33 -64h-264l216 370
h-75v170h157q141 0 219.5 -35.5t119.5 -119.5l82 -169q22 -46 35.5 -56.5t33.5 -10.5q31 0 52 21zM439 314l-59 -114h113z" />
    <glyph glyph-name="Aring" unicode="&#xc5;" horiz-adv-x="858" 
d="M434 600q-31 0 -68 10t-62.5 38t-25.5 69q0 53 44 84t112 31t112 -31t44 -84q0 -34 -18.5 -60t-54.5 -41.5t-83 -15.5zM434 748q-19 0 -31 -8.5t-12 -22.5q0 -11 9.5 -21.5t33.5 -10.5q19 0 31 8.5t12 23.5q0 14 -12 22.5t-31 8.5zM852 170l47 -133q-70 -57 -174 -57
q-109 0 -165 84h-251l-33 -64h-264l216 370h-75v170h157q141 0 219.5 -35.5t119.5 -119.5l82 -169q22 -46 35.5 -56.5t33.5 -10.5q31 0 52 21zM439 314l-59 -114h113z" />
    <glyph glyph-name="AE" unicode="&#xc6;" horiz-adv-x="1154" 
d="M1079 171l51 -145q-129 -46 -296 -46q-217 0 -291 84h-234l-33 -64h-264l217 370h-76v170h955v-166h-370v-38h300v-136h-299q9 -52 136 -52q130 0 204 23zM470 374l-90 -174h122v174h-32z" />
    <glyph glyph-name="Ccedilla" unicode="&#xc7;" horiz-adv-x="744" 
d="M429 -43q62 -10 94 -36.5t32 -65.5t-35.5 -63.5t-108.5 -24.5q-68 0 -112 18l33 78q23 -6 48 -6q32 0 32 13q0 20 -89 20h-2l13 95q-64 9 -120.5 32t-98.5 59.5t-65 86t-23 107.5q0 67 29.5 122t84 92t132 56.5t169.5 19.5q83 0 155 -10t119 -27l-49 -175q-87 17 -195 17
q-100 0 -150.5 -26t-50.5 -69q0 -42 46.5 -68.5t135.5 -26.5q130 0 214 49l59 -167q-113 -73 -295 -77z" />
    <glyph glyph-name="Egrave" unicode="&#xc8;" horiz-adv-x="775" 
d="M499 690l-95 -98l-213 155l110 128zM700 171l51 -145q-133 -46 -306 -46q-174 0 -258 50.5t-84 152.5v191h-80v166h706v-166h-390v-38h320v-136h-319q9 -52 146 -52q136 0 214 23z" />
    <glyph glyph-name="Eacute" unicode="&#xc9;" horiz-adv-x="775" 
d="M617 745l-213 -155l-95 98l198 185zM700 171l51 -145q-133 -46 -306 -46q-174 0 -258 50.5t-84 152.5v191h-80v166h706v-166h-390v-38h320v-136h-319q9 -52 146 -52q136 0 214 23z" />
    <glyph glyph-name="Ecircumflex" unicode="&#xca;" horiz-adv-x="775" 
d="M404 679l-116 -87l-92 109l208 154l208 -154l-92 -109zM700 171l51 -145q-133 -46 -306 -46q-174 0 -258 50.5t-84 152.5v191h-80v166h706v-166h-390v-38h320v-136h-319q9 -52 146 -52q136 0 214 23z" />
    <glyph glyph-name="Edieresis" unicode="&#xcb;" horiz-adv-x="775" 
d="M259 617q-53 0 -84.5 22t-31.5 59t31.5 59t84.5 22t84.5 -22t31.5 -59t-31.5 -59t-84.5 -22zM549 617q-53 0 -84.5 22t-31.5 59t31.5 59t84.5 22t84.5 -22t31.5 -59t-31.5 -59t-84.5 -22zM700 171l51 -145q-133 -46 -306 -46q-174 0 -258 50.5t-84 152.5v191h-80v166h706
v-166h-390v-38h320v-136h-319q9 -52 146 -52q136 0 214 23z" />
    <glyph glyph-name="Igrave" unicode="&#xcc;" horiz-adv-x="378" 
d="M86 875l198 -185l-95 -98l-213 155zM71 540h236v-540h-236v540z" />
    <glyph glyph-name="Iacute" unicode="&#xcd;" horiz-adv-x="378" 
d="M292 873l110 -128l-213 -155l-95 98zM71 540h236v-540h-236v540z" />
    <glyph glyph-name="Icircumflex" unicode="&#xce;" horiz-adv-x="378" 
d="M189 679l-116 -87l-92 109l208 154l208 -154l-92 -109zM71 0v540h236v-540h-236z" />
    <glyph glyph-name="Idieresis" unicode="&#xcf;" horiz-adv-x="378" 
d="M44 617q-53 0 -84.5 22t-31.5 59t31.5 59t84.5 22t84.5 -22t31.5 -59t-31.5 -59t-84.5 -22zM334 617q-53 0 -84.5 22t-31.5 59t31.5 59t84.5 22t84.5 -22t31.5 -59t-31.5 -59t-84.5 -22zM71 540h236v-540h-236v540z" />
    <glyph glyph-name="Eth" unicode="&#xd0;" horiz-adv-x="835" 
d="M423 560q88 0 160 -19.5t121.5 -56.5t76 -91.5t26.5 -122.5q0 -67 -29 -121.5t-81 -92t-122.5 -57t-151.5 -19.5q-162 0 -319 20v206h-93v130h93v204q167 20 319 20zM433 167q28 0 59 10t51 35.5t20 57.5q0 21 -11.5 45t-43.5 41t-75 17q-56 0 -93 -4v-33h116v-130h-116
v-34q47 -5 93 -5z" />
    <glyph glyph-name="Ntilde" unicode="&#xd1;" horiz-adv-x="893" 
d="M347 650q-34 0 -66 -13t-52 -36l-45 117q60 70 166 70q40 0 99 -19.5t94 -19.5q34 0 66 13t52 36l45 -117q-58 -70 -166 -70q-40 0 -99 19.5t-94 19.5zM586 540h236v-540h-211l-282 318q7 -28 12.5 -69.5t5.5 -74.5v-174h-236v370h-80v170h161q100 -1 166.5 -21
t115.5 -76l123 -141q-11 53 -11 124v114z" />
    <glyph glyph-name="Ograve" unicode="&#xd2;" horiz-adv-x="826" 
d="M508 690l-95 -98l-213 155l110 128zM413 560q78 0 139.5 -17t105 -41.5t75 -59t49 -78.5t17.5 -94t-17.5 -94t-49 -78.5t-75 -59t-105 -41.5t-139.5 -17t-139.5 17t-105 41.5t-75 59t-49 78.5t-17.5 94t17.5 94t49 78.5t75 59t105 41.5t139.5 17zM413 167q28 0 61.5 10
t57 35.5t23.5 57.5t-23.5 57.5t-57 35.5t-61.5 10t-61.5 -10t-57 -35.5t-23.5 -57.5t23.5 -57.5t57 -35.5t61.5 -10z" />
    <glyph glyph-name="Oacute" unicode="&#xd3;" horiz-adv-x="826" 
d="M626 745l-213 -155l-95 98l198 185zM413 560q78 0 139.5 -17t105 -41.5t75 -59t49 -78.5t17.5 -94t-17.5 -94t-49 -78.5t-75 -59t-105 -41.5t-139.5 -17t-139.5 17t-105 41.5t-75 59t-49 78.5t-17.5 94t17.5 94t49 78.5t75 59t105 41.5t139.5 17zM413 167q28 0 61.5 10
t57 35.5t23.5 57.5t-23.5 57.5t-57 35.5t-61.5 10t-61.5 -10t-57 -35.5t-23.5 -57.5t23.5 -57.5t57 -35.5t61.5 -10z" />
    <glyph glyph-name="Ocircumflex" unicode="&#xd4;" horiz-adv-x="826" 
d="M413 679l-116 -87l-92 109l208 154l208 -154l-92 -109zM413 560q78 0 139.5 -17t105 -41.5t75 -59t49 -78.5t17.5 -94t-17.5 -94t-49 -78.5t-75 -59t-105 -41.5t-139.5 -17t-139.5 17t-105 41.5t-75 59t-49 78.5t-17.5 94t17.5 94t49 78.5t75 59t105 41.5t139.5 17z
M413 167q28 0 61.5 10t57 35.5t23.5 57.5t-23.5 57.5t-57 35.5t-61.5 10t-61.5 -10t-57 -35.5t-23.5 -57.5t23.5 -57.5t57 -35.5t61.5 -10z" />
    <glyph glyph-name="Otilde" unicode="&#xd5;" horiz-adv-x="826" 
d="M315 650q-34 0 -66 -13t-52 -36l-45 117q60 70 166 70q40 0 99 -19.5t94 -19.5q34 0 66 13t52 36l45 -117q-58 -70 -166 -70q-40 0 -99 19.5t-94 19.5zM413 560q78 0 139.5 -17t105 -41.5t75 -59t49 -78.5t17.5 -94t-17.5 -94t-49 -78.5t-75 -59t-105 -41.5t-139.5 -17
t-139.5 17t-105 41.5t-75 59t-49 78.5t-17.5 94t17.5 94t49 78.5t75 59t105 41.5t139.5 17zM413 167q28 0 61.5 10t57 35.5t23.5 57.5t-23.5 57.5t-57 35.5t-61.5 10t-61.5 -10t-57 -35.5t-23.5 -57.5t23.5 -57.5t57 -35.5t61.5 -10z" />
    <glyph glyph-name="Odieresis" unicode="&#xd6;" horiz-adv-x="826" 
d="M268 617q-53 0 -84.5 22t-31.5 59t31.5 59t84.5 22t84.5 -22t31.5 -59t-31.5 -59t-84.5 -22zM558 617q-53 0 -84.5 22t-31.5 59t31.5 59t84.5 22t84.5 -22t31.5 -59t-31.5 -59t-84.5 -22zM413 560q78 0 139.5 -17t105 -41.5t75 -59t49 -78.5t17.5 -94t-17.5 -94
t-49 -78.5t-75 -59t-105 -41.5t-139.5 -17t-139.5 17t-105 41.5t-75 59t-49 78.5t-17.5 94t17.5 94t49 78.5t75 59t105 41.5t139.5 17zM413 167q28 0 61.5 10t57 35.5t23.5 57.5t-23.5 57.5t-57 35.5t-61.5 10t-61.5 -10t-57 -35.5t-23.5 -57.5t23.5 -57.5t57 -35.5
t61.5 -10z" />
    <glyph glyph-name="multiply" unicode="&#xd7;" horiz-adv-x="530" 
d="M497 371l-118 -106l118 -107l-109 -118l-123 118l-123 -118l-109 118l118 107l-118 106l110 117l122 -117l122 117z" />
    <glyph glyph-name="Oslash" unicode="&#xd8;" horiz-adv-x="887" 
d="M885 424l-83 -38q27 -51 27 -116q0 -50 -17.5 -94t-49 -78.5t-75 -59t-105 -41.5t-139.5 -17q-66 0 -128 14.5t-104.5 38t-67.5 45.5l-102 -47l-39 85l82 38q-27 54 -27 116q0 50 17.5 94t49 78.5t75 59t105 41.5t139.5 17q66 0 128 -14.5t104.5 -38t67.5 -45.5l102 47z
M301 270l1 -14l218 101q-35 16 -77 16q-28 0 -61.5 -10t-57 -35.5t-23.5 -57.5zM585 270l-1 14l-218 -102q37 -15 77 -15q28 0 61.5 10t57 35.5t23.5 57.5z" />
    <glyph glyph-name="Ugrave" unicode="&#xd9;" horiz-adv-x="890" 
d="M510 690l-95 -98l-213 155l110 128zM850 165l47 -133q-76 -52 -183 -52q-73 0 -121.5 30.5t-58.5 90.5q-42 -63 -105.5 -92t-133.5 -29q-106 0 -169 59t-63 171v330h236v-276q0 -45 22 -69t59 -24q52 0 85 34t49.5 103.5t16.5 191.5v40h236v-329q0 -62 45 -62q20 0 38 16
z" />
    <glyph glyph-name="Uacute" unicode="&#xda;" horiz-adv-x="890" 
d="M628 745l-213 -155l-95 98l198 185zM850 165l47 -133q-76 -52 -183 -52q-73 0 -121.5 30.5t-58.5 90.5q-42 -63 -105.5 -92t-133.5 -29q-106 0 -169 59t-63 171v330h236v-276q0 -45 22 -69t59 -24q52 0 85 34t49.5 103.5t16.5 191.5v40h236v-329q0 -62 45 -62q20 0 38 16
z" />
    <glyph glyph-name="Ucircumflex" unicode="&#xdb;" horiz-adv-x="890" 
d="M415 679l-116 -87l-92 109l208 154l208 -154l-92 -109zM850 165l47 -133q-76 -52 -183 -52q-73 0 -121.5 30.5t-58.5 90.5q-42 -63 -105.5 -92t-133.5 -29q-106 0 -169 59t-63 171v330h236v-276q0 -45 22 -69t59 -24q52 0 85 34t49.5 103.5t16.5 191.5v40h236v-329
q0 -62 45 -62q20 0 38 16z" />
    <glyph glyph-name="Udieresis" unicode="&#xdc;" horiz-adv-x="890" 
d="M270 617q-53 0 -84.5 22t-31.5 59t31.5 59t84.5 22t84.5 -22t31.5 -59t-31.5 -59t-84.5 -22zM560 617q-53 0 -84.5 22t-31.5 59t31.5 59t84.5 22t84.5 -22t31.5 -59t-31.5 -59t-84.5 -22zM850 165l47 -133q-76 -52 -183 -52q-73 0 -121.5 30.5t-58.5 90.5
q-42 -63 -105.5 -92t-133.5 -29q-106 0 -169 59t-63 171v330h236v-276q0 -45 22 -69t59 -24q52 0 85 34t49.5 103.5t16.5 191.5v40h236v-329q0 -62 45 -62q20 0 38 16z" />
    <glyph glyph-name="Yacute" unicode="&#xdd;" horiz-adv-x="804" 
d="M630 745l-213 -155l-95 98l198 185zM836 540l-304 -337v-203h-236v192l-147 168q-27 31 -59 31q-31 0 -52 -21l-47 133q67 57 164 57q111 0 165 -63l43 -51q36 -42 55 -73q12 23 52 73l74 94h292z" />
    <glyph glyph-name="Thorn" unicode="&#xde;" horiz-adv-x="844" 
d="M447 494q181 0 274 -53.5t93 -159.5q0 -53 -23 -94t-68.5 -68.5t-112.5 -41t-153 -13.5l-103 2v-66h-236v309q0 61 -45 61h-49v170h157q92 0 137 -49q60 3 129 3zM457 229q113 0 113 52q0 46 -113 46q-54 0 -103 -4v-92z" />
    <glyph glyph-name="germandbls" unicode="&#xdf;" horiz-adv-x="765" 
d="M602 305q68 -16 104.5 -55.5t36.5 -92.5q0 -42 -14 -71.5t-37.5 -51.5t-66.5 -38t-104 -16q-51 0 -99.5 8t-80.5 21l19 163q60 -16 110 -16q31 0 50 9t19 25q0 20 -37.5 31t-105.5 11h-31v111q36 0 62 8t26 34q0 20 -19 31t-56 11q-41 0 -67.5 -16t-26.5 -46v-378
q0 -53 -22 -94t-63.5 -68.5t-100 -41t-129.5 -13.5l-31 141q51 0 82 22t32 64v368q0 44 20.5 82t62 65.5t105 42.5t145.5 15q144 0 221 -41t77 -112q0 -35 -22 -64t-59 -48z" />
    <glyph glyph-name="agrave" unicode="&#xe0;" horiz-adv-x="796" 
d="M479 546l-95 -98l-213 155l110 128zM772 170l51 -135q-34 -25 -80 -40t-99 -15q-167 0 -182 125q-19 -28 -52 -58t-80.5 -48.5t-98.5 -18.5q-94 0 -151 51.5t-57 140.5q0 52 23 97.5t67.5 78t109.5 50.5t144 18q190 0 326 -54v-156q0 -52 41 -52q20 0 38 16zM316 161
q40 0 78.5 16.5t66.5 53.5v20q-17 3 -47 6t-48 3q-52 0 -82 -15t-30 -40q0 -20 17.5 -32t44.5 -12z" />
    <glyph glyph-name="aacute" unicode="&#xe1;" horiz-adv-x="796" 
d="M597 603l-213 -155l-95 98l198 185zM772 170l51 -135q-34 -25 -80 -40t-99 -15q-167 0 -182 125q-19 -28 -52 -58t-80.5 -48.5t-98.5 -18.5q-94 0 -151 51.5t-57 140.5q0 52 23 97.5t67.5 78t109.5 50.5t144 18q190 0 326 -54v-156q0 -52 41 -52q20 0 38 16zM316 161
q40 0 78.5 16.5t66.5 53.5v20q-17 3 -47 6t-48 3q-52 0 -82 -15t-30 -40q0 -20 17.5 -32t44.5 -12z" />
    <glyph glyph-name="acircumflex" unicode="&#xe2;" horiz-adv-x="796" 
d="M384 530l-116 -87l-92 109l208 154l208 -154l-92 -109zM772 170l51 -135q-34 -25 -80 -40t-99 -15q-167 0 -182 125q-19 -28 -52 -58t-80.5 -48.5t-98.5 -18.5q-94 0 -151 51.5t-57 140.5q0 52 23 97.5t67.5 78t109.5 50.5t144 18q190 0 326 -54v-156q0 -52 41 -52
q20 0 38 16zM316 161q40 0 78.5 16.5t66.5 53.5v20q-17 3 -47 6t-48 3q-52 0 -82 -15t-30 -40q0 -20 17.5 -32t44.5 -12z" />
    <glyph glyph-name="atilde" unicode="&#xe3;" horiz-adv-x="796" 
d="M286 514q-34 0 -66 -13t-52 -36l-45 117q60 70 166 70q40 0 99 -19.5t94 -19.5q34 0 66 13t52 36l45 -117q-58 -70 -166 -70q-40 0 -99 19.5t-94 19.5zM772 170l51 -135q-34 -25 -80 -40t-99 -15q-167 0 -182 125q-19 -28 -52 -58t-80.5 -48.5t-98.5 -18.5
q-94 0 -151 51.5t-57 140.5q0 52 23 97.5t67.5 78t109.5 50.5t144 18q190 0 326 -54v-156q0 -52 41 -52q20 0 38 16zM316 161q40 0 78.5 16.5t66.5 53.5v20q-17 3 -47 6t-48 3q-52 0 -82 -15t-30 -40q0 -20 17.5 -32t44.5 -12z" />
    <glyph glyph-name="adieresis" unicode="&#xe4;" horiz-adv-x="796" 
d="M239 489q-53 0 -84.5 22t-31.5 59t31.5 59t84.5 22t84.5 -22t31.5 -59t-31.5 -59t-84.5 -22zM529 489q-53 0 -84.5 22t-31.5 59t31.5 59t84.5 22t84.5 -22t31.5 -59t-31.5 -59t-84.5 -22zM772 170l51 -135q-34 -25 -80 -40t-99 -15q-167 0 -182 125q-19 -28 -52 -58
t-80.5 -48.5t-98.5 -18.5q-94 0 -151 51.5t-57 140.5q0 52 23 97.5t67.5 78t109.5 50.5t144 18q190 0 326 -54v-156q0 -52 41 -52q20 0 38 16zM316 161q40 0 78.5 16.5t66.5 53.5v20q-17 3 -47 6t-48 3q-52 0 -82 -15t-30 -40q0 -20 17.5 -32t44.5 -12z" />
    <glyph glyph-name="aring" unicode="&#xe5;" horiz-adv-x="796" 
d="M384 453q-31 0 -68 10t-62.5 38t-25.5 69q0 53 44 84t112 31t112 -31t44 -84q0 -34 -18.5 -60t-54.5 -41.5t-83 -15.5zM384 601q-19 0 -31 -8.5t-12 -22.5q0 -11 9.5 -21.5t33.5 -10.5q19 0 31 8.5t12 23.5q0 14 -12 22.5t-31 8.5zM772 170l51 -135q-34 -25 -80 -40
t-99 -15q-167 0 -182 125q-19 -28 -52 -58t-80.5 -48.5t-98.5 -18.5q-94 0 -151 51.5t-57 140.5q0 52 23 97.5t67.5 78t109.5 50.5t144 18q190 0 326 -54v-156q0 -52 41 -52q20 0 38 16zM316 161q40 0 78.5 16.5t66.5 53.5v20q-17 3 -47 6t-48 3q-52 0 -82 -15t-30 -40
q0 -20 17.5 -32t44.5 -12z" />
    <glyph glyph-name="ae" unicode="&#xe6;" horiz-adv-x="1098" 
d="M816 124q53 0 105.5 7t92.5 20l47 -112q-49 -29 -122 -44t-162 -15q-116 0 -196 36t-110 102q-41 -65 -104.5 -101.5t-135.5 -36.5q-94 0 -151 51.5t-57 140.5q0 52 23 97.5t67.5 78t109.5 50.5t144 18q134 0 238 -26q34 12 78 19t87 7q79 0 138.5 -16.5t96.5 -44
t54.5 -61t17.5 -66.5q0 -25 -17.5 -42.5t-46.5 -17.5h-332q3 -11 17.5 -21.5t46 -16.5t71.5 -6zM856 244q0 11 -23.5 23.5t-62.5 12.5q-37 0 -61 -12t-26 -28h168q4 0 5 4zM316 161q27 0 55 8t49.5 23.5t35.5 32.5l5 26q-17 3 -47 6t-48 3q-52 0 -82 -15t-30 -40
q0 -20 17.5 -32t44.5 -12z" />
    <glyph glyph-name="ccedilla" unicode="&#xe7;" horiz-adv-x="634" 
d="M379 -43q62 -10 94 -36.5t32 -65.5t-35.5 -63.5t-108.5 -24.5q-68 0 -112 18l33 78q23 -6 48 -6q32 0 32 13q0 20 -89 20h-2l13 93q-121 11 -191 67.5t-70 147.5q0 103 91 160.5t252 57.5q147 0 232 -22l-26 -153q-72 12 -166 12q-71 0 -110 -14t-39 -41q0 -28 37 -41.5
t99 -13.5q103 0 175 36l55 -131q-92 -62 -242 -67z" />
    <glyph glyph-name="egrave" unicode="&#xe8;" horiz-adv-x="668" 
d="M434 546l-95 -98l-213 155l110 128zM385 124q53 0 105.5 7t92.5 20l47 -112q-49 -29 -122 -44t-162 -15q-72 0 -132 14.5t-102.5 42.5t-65.5 69t-23 92q0 52 24 93.5t67.5 69t101 41.5t123.5 14q79 0 138.5 -16.5t96.5 -44t54.5 -61t17.5 -66.5q0 -25 -17.5 -42.5
t-46.5 -17.5h-332q3 -11 17.5 -21.5t46 -16.5t71.5 -6zM339 280q-37 0 -61 -12t-26 -28h168q4 0 5 4q0 11 -23.5 23.5t-62.5 12.5z" />
    <glyph glyph-name="eacute" unicode="&#xe9;" horiz-adv-x="668" 
d="M552 603l-213 -155l-95 98l198 185zM385 124q53 0 105.5 7t92.5 20l47 -112q-49 -29 -122 -44t-162 -15q-72 0 -132 14.5t-102.5 42.5t-65.5 69t-23 92q0 52 24 93.5t67.5 69t101 41.5t123.5 14q79 0 138.5 -16.5t96.5 -44t54.5 -61t17.5 -66.5q0 -25 -17.5 -42.5
t-46.5 -17.5h-332q3 -11 17.5 -21.5t46 -16.5t71.5 -6zM339 280q-37 0 -61 -12t-26 -28h168q4 0 5 4q0 11 -23.5 23.5t-62.5 12.5z" />
    <glyph glyph-name="ecircumflex" unicode="&#xea;" horiz-adv-x="668" 
d="M339 530l-116 -87l-92 109l208 154l208 -154l-92 -109zM385 124q53 0 105.5 7t92.5 20l47 -112q-49 -29 -122 -44t-162 -15q-72 0 -132 14.5t-102.5 42.5t-65.5 69t-23 92q0 52 24 93.5t67.5 69t101 41.5t123.5 14q79 0 138.5 -16.5t96.5 -44t54.5 -61t17.5 -66.5
q0 -25 -17.5 -42.5t-46.5 -17.5h-332q3 -11 17.5 -21.5t46 -16.5t71.5 -6zM339 280q-37 0 -61 -12t-26 -28h168q4 0 5 4q0 11 -23.5 23.5t-62.5 12.5z" />
    <glyph glyph-name="edieresis" unicode="&#xeb;" horiz-adv-x="668" 
d="M194 489q-53 0 -84.5 22t-31.5 59t31.5 59t84.5 22t84.5 -22t31.5 -59t-31.5 -59t-84.5 -22zM484 489q-53 0 -84.5 22t-31.5 59t31.5 59t84.5 22t84.5 -22t31.5 -59t-31.5 -59t-84.5 -22zM385 124q53 0 105.5 7t92.5 20l47 -112q-49 -29 -122 -44t-162 -15
q-72 0 -132 14.5t-102.5 42.5t-65.5 69t-23 92q0 52 24 93.5t67.5 69t101 41.5t123.5 14q79 0 138.5 -16.5t96.5 -44t54.5 -61t17.5 -66.5q0 -25 -17.5 -42.5t-46.5 -17.5h-332q3 -11 17.5 -21.5t46 -16.5t71.5 -6zM339 280q-37 0 -61 -12t-26 -28h168q4 0 5 4
q0 11 -23.5 23.5t-62.5 12.5z" />
    <glyph glyph-name="igrave" unicode="&#xec;" horiz-adv-x="400" 
d="M259 546l-95 -98l-213 155l110 128zM374 170l47 -137q-75 -53 -171 -53q-67 0 -111.5 18t-67.5 51.5t-23 83.5v263h232v-187q0 -55 54 -55q22 0 40 16z" />
    <glyph glyph-name="iacute" unicode="&#xed;" horiz-adv-x="400" 
d="M377 603l-213 -155l-95 98l198 185zM374 170l47 -137q-75 -53 -171 -53q-67 0 -111.5 18t-67.5 51.5t-23 83.5v263h232v-187q0 -55 54 -55q22 0 40 16z" />
    <glyph glyph-name="icircumflex" unicode="&#xee;" horiz-adv-x="400" 
d="M164 530l-116 -87l-92 109l208 154l208 -154l-92 -109zM374 170l47 -137q-75 -53 -171 -53q-67 0 -111.5 18t-67.5 51.5t-23 83.5v263h232v-187q0 -55 54 -55q22 0 40 16z" />
    <glyph glyph-name="idieresis" unicode="&#xef;" horiz-adv-x="400" 
d="M135 570q0 -37 -31.5 -59t-84.5 -22t-84.5 22t-31.5 59t31.5 59t84.5 22t84.5 -22t31.5 -59zM309 489q-53 0 -84.5 22t-31.5 59t31.5 59t84.5 22t84.5 -22t31.5 -59t-31.5 -59t-84.5 -22zM334 154q22 0 40 16l47 -137q-75 -53 -171 -53q-67 0 -111.5 18t-67.5 51.5
t-23 83.5v263h232v-187q0 -55 54 -55z" />
    <glyph glyph-name="eth" unicode="&#xf0;" horiz-adv-x="677" 
d="M532 478q57 -47 88.5 -108t31.5 -130q0 -60 -23.5 -109t-67 -82.5t-105 -51t-135.5 -17.5q-65 0 -120.5 13.5t-95.5 40t-62 64.5t-22 85q0 53 29 94t81 59.5t107 18.5q109 0 186 -48q-9 50 -37 94l-78 -41l-49 78l62 33q-18 15 -48 33l99 66q38 -15 72 -33l84 45l50 -79z
M326 135q73 0 93 57q-20 12 -49 19t-55 7q-28 0 -46.5 -10.5t-18.5 -29.5q0 -20 20 -32t56 -11z" />
    <glyph glyph-name="ntilde" unicode="&#xf1;" horiz-adv-x="785" 
d="M294 514q-34 0 -66 -13t-52 -36l-45 117q60 70 166 70q40 0 99 -19.5t94 -19.5q34 0 66 13t52 36l45 -117q-58 -70 -166 -70q-40 0 -99 19.5t-94 19.5zM758 170l51 -135q-34 -25 -80 -40t-99 -15q-183 0 -183 150v20q0 14 -7.5 22.5t-20.5 8.5q-37 0 -74.5 -49
t-68.5 -132h-224v396h232v-96q0 -16 -4 -44q37 69 102.5 114t137.5 46q74 1 116.5 -39.5t42.5 -122.5v-48q0 -52 41 -52q20 0 38 16z" />
    <glyph glyph-name="ograve" unicode="&#xf2;" horiz-adv-x="670" 
d="M430 546l-95 -98l-213 155l110 128zM335 416q66 0 123.5 -14.5t100 -43t66 -69.5t23.5 -91t-23.5 -91t-66 -69.5t-100 -43t-123.5 -14.5t-123.5 14.5t-100 43t-66 69.5t-23.5 91t23.5 91t66 69.5t100 43t123.5 14.5zM335 139q33 0 56 17t23 42t-23 42t-56 17t-56 -17
t-23 -42t23 -42t56 -17z" />
    <glyph glyph-name="oacute" unicode="&#xf3;" horiz-adv-x="670" 
d="M548 603l-213 -155l-95 98l198 185zM335 416q66 0 123.5 -14.5t100 -43t66 -69.5t23.5 -91t-23.5 -91t-66 -69.5t-100 -43t-123.5 -14.5t-123.5 14.5t-100 43t-66 69.5t-23.5 91t23.5 91t66 69.5t100 43t123.5 14.5zM335 139q33 0 56 17t23 42t-23 42t-56 17t-56 -17
t-23 -42t23 -42t56 -17z" />
    <glyph glyph-name="ocircumflex" unicode="&#xf4;" horiz-adv-x="670" 
d="M335 530l-116 -87l-92 109l208 154l208 -154l-92 -109zM335 416q66 0 123.5 -14.5t100 -43t66 -69.5t23.5 -91t-23.5 -91t-66 -69.5t-100 -43t-123.5 -14.5t-123.5 14.5t-100 43t-66 69.5t-23.5 91t23.5 91t66 69.5t100 43t123.5 14.5zM335 139q33 0 56 17t23 42t-23 42
t-56 17t-56 -17t-23 -42t23 -42t56 -17z" />
    <glyph glyph-name="otilde" unicode="&#xf5;" horiz-adv-x="670" 
d="M237 514q-34 0 -66 -13t-52 -36l-45 117q60 70 166 70q40 0 99 -19.5t94 -19.5q34 0 66 13t52 36l45 -117q-58 -70 -166 -70q-40 0 -99 19.5t-94 19.5zM335 416q66 0 123.5 -14.5t100 -43t66 -69.5t23.5 -91t-23.5 -91t-66 -69.5t-100 -43t-123.5 -14.5t-123.5 14.5
t-100 43t-66 69.5t-23.5 91t23.5 91t66 69.5t100 43t123.5 14.5zM335 139q33 0 56 17t23 42t-23 42t-56 17t-56 -17t-23 -42t23 -42t56 -17z" />
    <glyph glyph-name="odieresis" unicode="&#xf6;" horiz-adv-x="670" 
d="M190 489q-53 0 -84.5 22t-31.5 59t31.5 59t84.5 22t84.5 -22t31.5 -59t-31.5 -59t-84.5 -22zM480 489q-53 0 -84.5 22t-31.5 59t31.5 59t84.5 22t84.5 -22t31.5 -59t-31.5 -59t-84.5 -22zM335 416q66 0 123.5 -14.5t100 -43t66 -69.5t23.5 -91t-23.5 -91t-66 -69.5
t-100 -43t-123.5 -14.5t-123.5 14.5t-100 43t-66 69.5t-23.5 91t23.5 91t66 69.5t100 43t123.5 14.5zM335 139q33 0 56 17t23 42t-23 42t-56 17t-56 -17t-23 -42t23 -42t56 -17z" />
    <glyph glyph-name="divide" unicode="&#xf7;" horiz-adv-x="568" 
d="M174 483q0 36 29 55.5t81 19.5t81 -19.5t29 -55.5t-29 -55.5t-81 -19.5t-81 19.5t-29 55.5zM33 192v156h502v-156h-502zM174 55q0 36 29 55.5t81 19.5t81 -19.5t29 -55.5t-29 -55.5t-81 -19.5t-81 19.5t-29 55.5z" />
    <glyph glyph-name="oslash" unicode="&#xf8;" horiz-adv-x="762" 
d="M752 318l-76 -35q19 -40 19 -85q0 -50 -23.5 -91t-66 -69.5t-100 -43t-123.5 -14.5q-67 0 -126.5 15.5t-101.5 44.5l-103 -48l-39 85l77 36q-20 38 -20 85q0 50 23.5 91t66 69.5t100 43t123.5 14.5q68 0 127.5 -15.5t100.5 -44.5l102 47zM382 139q33 0 56 17t23 42
t-23 42t-56 17t-56 -17t-23 -42t23 -42t56 -17z" />
    <glyph glyph-name="ugrave" unicode="&#xf9;" horiz-adv-x="800" 
d="M465 546l-95 -98l-213 155l110 128zM764 170l51 -135q-34 -25 -80 -40t-99 -15q-183 0 -183 150v1l1 10q-42 -68 -109.5 -114t-142.5 -47q-72 -1 -113 39.5t-41 122.5v254h232v-150q0 -14 7.5 -22.5t20.5 -8.5q30 0 71 48.5t82 132.5h224v-190q0 -52 41 -52q20 0 38 16z
" />
    <glyph glyph-name="uacute" unicode="&#xfa;" horiz-adv-x="800" 
d="M583 603l-213 -155l-95 98l198 185zM764 170l51 -135q-34 -25 -80 -40t-99 -15q-183 0 -183 150v1l1 10q-42 -68 -109.5 -114t-142.5 -47q-72 -1 -113 39.5t-41 122.5v254h232v-150q0 -14 7.5 -22.5t20.5 -8.5q30 0 71 48.5t82 132.5h224v-190q0 -52 41 -52q20 0 38 16z
" />
    <glyph glyph-name="ucircumflex" unicode="&#xfb;" horiz-adv-x="800" 
d="M370 530l-116 -87l-92 109l208 154l208 -154l-92 -109zM764 170l51 -135q-34 -25 -80 -40t-99 -15q-183 0 -183 150v1l1 10q-42 -68 -109.5 -114t-142.5 -47q-72 -1 -113 39.5t-41 122.5v254h232v-150q0 -14 7.5 -22.5t20.5 -8.5q30 0 71 48.5t82 132.5h224v-190
q0 -52 41 -52q20 0 38 16z" />
    <glyph glyph-name="udieresis" unicode="&#xfc;" horiz-adv-x="800" 
d="M225 489q-53 0 -84.5 22t-31.5 59t31.5 59t84.5 22t84.5 -22t31.5 -59t-31.5 -59t-84.5 -22zM515 489q-53 0 -84.5 22t-31.5 59t31.5 59t84.5 22t84.5 -22t31.5 -59t-31.5 -59t-84.5 -22zM764 170l51 -135q-34 -25 -80 -40t-99 -15q-183 0 -183 150v1l1 10
q-42 -68 -109.5 -114t-142.5 -47q-72 -1 -113 39.5t-41 122.5v254h232v-150q0 -14 7.5 -22.5t20.5 -8.5q30 0 71 48.5t82 132.5h224v-190q0 -52 41 -52q20 0 38 16z" />
    <glyph glyph-name="yacute" unicode="&#xfd;" horiz-adv-x="797" 
d="M620 603l-213 -155l-95 98l198 185zM522 396h224v-321q0 -70 -22 -126.5t-67 -96.5t-115.5 -61t-163.5 -21q-149 0 -257 45l39 135q87 -28 179 -28q62 0 99.5 16t56.5 52.5t19 108.5v1q0 19 3 38q-37 -68 -102 -112.5t-137 -45.5q-74 -1 -116.5 39.5t-42.5 122.5v48
q0 52 -41 52q-20 0 -38 -16l-51 135q34 25 80 40t99 15q183 0 183 -150v-20q0 -14 7.5 -22.5t20.5 -8.5q37 0 74.5 49t68.5 132z" />
    <glyph glyph-name="thorn" unicode="&#xfe;" horiz-adv-x="746" 
d="M514 416q94 0 151 -51.5t57 -140.5q0 -52 -20 -97t-57.5 -78t-90.5 -51t-116 -18q-85 0 -154 25v-215h-232v760h232v-257q41 58 102 90.5t128 32.5zM399 136q42 0 67 15t25 40q0 20 -17.5 32t-44.5 12q-40 0 -78.5 -16.5t-66.5 -53.5v-13q59 -16 115 -16z" />
    <glyph glyph-name="ydieresis" unicode="&#xff;" horiz-adv-x="797" 
d="M262 489q-53 0 -84.5 22t-31.5 59t31.5 59t84.5 22t84.5 -22t31.5 -59t-31.5 -59t-84.5 -22zM552 489q-53 0 -84.5 22t-31.5 59t31.5 59t84.5 22t84.5 -22t31.5 -59t-31.5 -59t-84.5 -22zM522 396h224v-321q0 -70 -22 -126.5t-67 -96.5t-115.5 -61t-163.5 -21
q-149 0 -257 45l39 135q87 -28 179 -28q62 0 99.5 16t56.5 52.5t19 108.5v1q0 19 3 38q-37 -68 -102 -112.5t-137 -45.5q-74 -1 -116.5 39.5t-42.5 122.5v48q0 52 -41 52q-20 0 -38 -16l-51 135q34 25 80 40t99 15q183 0 183 -150v-20q0 -14 7.5 -22.5t20.5 -8.5
q37 0 74.5 49t68.5 132z" />
    <glyph glyph-name="Amacron" unicode="&#x100;" horiz-adv-x="858" 
d="M617 749v-132h-366v132h366zM852 170l47 -133q-70 -57 -174 -57q-109 0 -165 84h-251l-33 -64h-264l216 370h-75v170h157q141 0 219.5 -35.5t119.5 -119.5l82 -169q22 -46 35.5 -56.5t33.5 -10.5q31 0 52 21zM439 314l-59 -114h113z" />
    <glyph glyph-name="amacron" unicode="&#x101;" horiz-adv-x="796" 
d="M567 631v-132h-366v132h366zM772 170l51 -135q-34 -25 -80 -40t-99 -15q-167 0 -182 125q-19 -28 -52 -58t-80.5 -48.5t-98.5 -18.5q-94 0 -151 51.5t-57 140.5q0 52 23 97.5t67.5 78t109.5 50.5t144 18q190 0 326 -54v-156q0 -52 41 -52q20 0 38 16zM316 161
q40 0 78.5 16.5t66.5 53.5v20q-17 3 -47 6t-48 3q-52 0 -82 -15t-30 -40q0 -20 17.5 -32t44.5 -12z" />
    <glyph glyph-name="Abreve" unicode="&#x102;" horiz-adv-x="858" 
d="M434 602q-79 0 -139 44t-75 120l133 43q4 -35 25.5 -58.5t55.5 -23.5t55.5 23.5t25.5 58.5l133 -43q-15 -76 -75 -120t-139 -44zM852 170l47 -133q-70 -57 -174 -57q-109 0 -165 84h-251l-33 -64h-264l216 370h-75v170h157q141 0 219.5 -35.5t119.5 -119.5l82 -169
q22 -46 35.5 -56.5t33.5 -10.5q31 0 52 21zM439 314l-59 -114h113z" />
    <glyph glyph-name="abreve" unicode="&#x103;" horiz-adv-x="796" 
d="M384 458q-79 0 -139 44t-75 120l133 43q4 -35 25.5 -58.5t55.5 -23.5t55.5 23.5t25.5 58.5l133 -43q-15 -76 -75 -120t-139 -44zM772 170l51 -135q-34 -25 -80 -40t-99 -15q-167 0 -182 125q-19 -28 -52 -58t-80.5 -48.5t-98.5 -18.5q-94 0 -151 51.5t-57 140.5
q0 52 23 97.5t67.5 78t109.5 50.5t144 18q190 0 326 -54v-156q0 -52 41 -52q20 0 38 16zM316 161q40 0 78.5 16.5t66.5 53.5v20q-17 3 -47 6t-48 3q-52 0 -82 -15t-30 -40q0 -20 17.5 -32t44.5 -12z" />
    <glyph glyph-name="Aogonek" unicode="&#x104;" horiz-adv-x="858" 
d="M793 -113q26 0 47 13l49 -83q-31 -21 -67 -31t-69 -10q-73 0 -116.5 28t-43.5 81q0 59 63 104q-58 19 -96 75h-251l-33 -64h-264l216 370h-75v170h157q141 0 219.5 -35.5t119.5 -119.5l82 -169q22 -46 35.5 -56.5t33.5 -10.5q31 0 52 21l47 -133q-31 -25 -68 -39
q-39 -17 -60.5 -40t-21.5 -43q0 -28 44 -28zM439 314l-59 -114h113z" />
    <glyph glyph-name="aogonek" unicode="&#x105;" horiz-adv-x="796" 
d="M715 -113q26 0 47 13l49 -83q-31 -21 -67 -31t-69 -10q-73 0 -116.5 28t-43.5 81q0 57 60 102q-102 23 -113 118q-19 -28 -52 -58t-80.5 -48.5t-98.5 -18.5q-94 0 -151 51.5t-57 140.5q0 52 23 97.5t67.5 78t109.5 50.5t144 18q190 0 326 -54v-156q0 -52 41 -52
q20 0 38 16l51 -135q-37 -26 -73 -38q-37 -17 -58 -39.5t-21 -42.5q0 -28 44 -28zM316 161q40 0 78.5 16.5t66.5 53.5v20q-17 3 -47 6t-48 3q-52 0 -82 -15t-30 -40q0 -20 17.5 -32t44.5 -12z" />
    <glyph glyph-name="Cacute" unicode="&#x106;" horiz-adv-x="744" 
d="M622 745l-213 -155l-95 98l198 185zM667 224l59 -167q-122 -77 -313 -77q-78 0 -139.5 17t-105 41.5t-75 59t-49 78.5t-17.5 94q0 67 29.5 122t84 92t132 56.5t169.5 19.5q83 0 155 -10t119 -27l-49 -175q-87 17 -195 17q-100 0 -150.5 -26t-50.5 -69q0 -42 46.5 -68.5
t135.5 -26.5q130 0 214 49z" />
    <glyph glyph-name="cacute" unicode="&#x107;" horiz-adv-x="634" 
d="M542 603l-213 -155l-95 98l198 185zM568 179l55 -131q-103 -68 -281 -68q-70 0 -129.5 14.5t-101.5 42.5t-65 69t-23 92q0 103 91 160.5t252 57.5q147 0 232 -22l-26 -153q-72 12 -166 12q-71 0 -110 -14t-39 -41q0 -28 37 -41.5t99 -13.5q103 0 175 36z" />
    <glyph glyph-name="Cdotaccent" unicode="&#x10a;" horiz-adv-x="744" 
d="M409 617q-64 0 -100 21.5t-36 59.5t36 59.5t100 21.5t100 -21.5t36 -59.5t-36 -59.5t-100 -21.5zM667 224l59 -167q-122 -77 -313 -77q-78 0 -139.5 17t-105 41.5t-75 59t-49 78.5t-17.5 94q0 67 29.5 122t84 92t132 56.5t169.5 19.5q83 0 155 -10t119 -27l-49 -175
q-87 17 -195 17q-100 0 -150.5 -26t-50.5 -69q0 -42 46.5 -68.5t135.5 -26.5q130 0 214 49z" />
    <glyph glyph-name="cdotaccent" unicode="&#x10b;" horiz-adv-x="634" 
d="M369 489q-64 0 -100 21.5t-36 59.5t36 59.5t100 21.5t100 -21.5t36 -59.5t-36 -59.5t-100 -21.5zM568 179l55 -131q-103 -68 -281 -68q-70 0 -129.5 14.5t-101.5 42.5t-65 69t-23 92q0 103 91 160.5t252 57.5q147 0 232 -22l-26 -153q-72 12 -166 12q-71 0 -110 -14
t-39 -41q0 -28 37 -41.5t99 -13.5q103 0 175 36z" />
    <glyph glyph-name="Ccaron" unicode="&#x10c;" horiz-adv-x="744" 
d="M617 746l-208 -154l-208 154l92 109l116 -87l116 87zM667 224l59 -167q-122 -77 -313 -77q-78 0 -139.5 17t-105 41.5t-75 59t-49 78.5t-17.5 94q0 67 29.5 122t84 92t132 56.5t169.5 19.5q83 0 155 -10t119 -27l-49 -175q-87 17 -195 17q-100 0 -150.5 -26t-50.5 -69
q0 -42 46.5 -68.5t135.5 -26.5q130 0 214 49z" />
    <glyph glyph-name="ccaron" unicode="&#x10d;" horiz-adv-x="634" 
d="M567 597l-208 -154l-208 154l92 109l116 -87l116 87zM568 179l55 -131q-103 -68 -281 -68q-70 0 -129.5 14.5t-101.5 42.5t-65 69t-23 92q0 103 91 160.5t252 57.5q147 0 232 -22l-26 -153q-72 12 -166 12q-71 0 -110 -14t-39 -41q0 -28 37 -41.5t99 -13.5q103 0 175 36z
" />
    <glyph glyph-name="Dcaron" unicode="&#x10e;" horiz-adv-x="802" 
d="M598 746l-208 -154l-208 154l92 109l116 -87l116 87zM390 560q88 0 160 -19.5t121.5 -56.5t76 -91.5t26.5 -122.5q0 -67 -29 -121.5t-81 -92t-122.5 -57t-151.5 -19.5q-162 0 -319 20v540q167 20 319 20zM400 167q28 0 59 10t51 35.5t20 57.5q0 21 -11.5 45t-43.5 41
t-75 17q-56 0 -93 -4v-197q47 -5 93 -5z" />
    <glyph glyph-name="dcaron" unicode="&#x10f;" horiz-adv-x="811" 
d="M861 583q61 0 94.5 -24t33.5 -68q0 -21 -12.5 -49.5t-43 -59t-70.5 -55.5l-71 43q38 29 60 62h-4q-36 0 -64.5 11t-39.5 28t-11 33q0 18 11 37t41.5 30.5t75.5 11.5zM739 154q20 0 38 16l51 -135q-34 -25 -80 -40t-99 -15q-171 0 -182 130q-42 -62 -103 -96t-132 -34
q-94 0 -151 51.5t-57 140.5q0 52 20 97t57.5 78t90.5 51t116 18q86 0 158 -27v161h232v-344q0 -52 41 -52zM317 161q42 0 81.5 18t67.5 58v6q-59 17 -119 17q-42 0 -67 -15t-25 -40q0 -20 17.5 -32t44.5 -12z" />
    <glyph glyph-name="Dcroat" unicode="&#x110;" horiz-adv-x="835" 
d="M423 560q88 0 160 -19.5t121.5 -56.5t76 -91.5t26.5 -122.5q0 -67 -29 -121.5t-81 -92t-122.5 -57t-151.5 -19.5q-162 0 -319 20v206h-93v130h93v204q167 20 319 20zM433 167q28 0 59 10t51 35.5t20 57.5q0 21 -11.5 45t-43.5 41t-75 17q-56 0 -93 -4v-33h116v-130h-116
v-34q47 -5 93 -5z" />
    <glyph glyph-name="dcroat" unicode="&#x111;" horiz-adv-x="811" 
d="M777 170l51 -135q-34 -25 -80 -40t-99 -15q-171 0 -182 130q-42 -62 -103 -96t-132 -34q-94 0 -151 51.5t-57 140.5q0 52 20 97t57.5 78t90.5 51t116 18q86 0 158 -27v49h-90v80h90v32h232v-32h74v-80h-74v-232q0 -52 41 -52q20 0 38 16zM317 161q42 0 81.5 18t67.5 58v6
q-59 17 -119 17q-42 0 -67 -15t-25 -40q0 -20 17.5 -32t44.5 -12z" />
    <glyph glyph-name="Emacron" unicode="&#x112;" horiz-adv-x="775" 
d="M587 749v-132h-366v132h366zM700 171l51 -145q-133 -46 -306 -46q-174 0 -258 50.5t-84 152.5v191h-80v166h706v-166h-390v-38h320v-136h-319q9 -52 146 -52q136 0 214 23z" />
    <glyph glyph-name="emacron" unicode="&#x113;" horiz-adv-x="668" 
d="M522 631v-132h-366v132h366zM385 124q53 0 105.5 7t92.5 20l47 -112q-49 -29 -122 -44t-162 -15q-72 0 -132 14.5t-102.5 42.5t-65.5 69t-23 92q0 52 24 93.5t67.5 69t101 41.5t123.5 14q79 0 138.5 -16.5t96.5 -44t54.5 -61t17.5 -66.5q0 -25 -17.5 -42.5t-46.5 -17.5
h-332q3 -11 17.5 -21.5t46 -16.5t71.5 -6zM339 280q-37 0 -61 -12t-26 -28h168q4 0 5 4q0 11 -23.5 23.5t-62.5 12.5z" />
    <glyph glyph-name="Edotaccent" unicode="&#x116;" horiz-adv-x="775" 
d="M404 617q-64 0 -100 21.5t-36 59.5t36 59.5t100 21.5t100 -21.5t36 -59.5t-36 -59.5t-100 -21.5zM700 171l51 -145q-133 -46 -306 -46q-174 0 -258 50.5t-84 152.5v191h-80v166h706v-166h-390v-38h320v-136h-319q9 -52 146 -52q136 0 214 23z" />
    <glyph glyph-name="edotaccent" unicode="&#x117;" horiz-adv-x="668" 
d="M339 489q-64 0 -100 21.5t-36 59.5t36 59.5t100 21.5t100 -21.5t36 -59.5t-36 -59.5t-100 -21.5zM385 124q53 0 105.5 7t92.5 20l47 -112q-49 -29 -122 -44t-162 -15q-72 0 -132 14.5t-102.5 42.5t-65.5 69t-23 92q0 52 24 93.5t67.5 69t101 41.5t123.5 14
q79 0 138.5 -16.5t96.5 -44t54.5 -61t17.5 -66.5q0 -25 -17.5 -42.5t-46.5 -17.5h-332q3 -11 17.5 -21.5t46 -16.5t71.5 -6zM339 280q-37 0 -61 -12t-26 -28h168q4 0 5 4q0 11 -23.5 23.5t-62.5 12.5z" />
    <glyph glyph-name="Eogonek" unicode="&#x118;" horiz-adv-x="775" 
d="M758 -73l49 -83q-31 -21 -67 -31t-69 -10q-73 0 -116.5 28t-43.5 81q0 7 4 27t24 44q-45 -3 -94 -3q-174 0 -258 50.5t-84 152.5v191h-80v166h706v-166h-390v-38h320v-136h-319q9 -52 146 -52q136 0 214 23l51 -145q-40 -17 -62 -40.5t-22 -43.5q0 -28 44 -28q26 0 47 13
z" />
    <glyph glyph-name="eogonek" unicode="&#x119;" horiz-adv-x="668" 
d="M536 1q-38 -16 -59 -39t-21 -43q0 -28 44 -28q26 0 47 13l49 -83q-31 -21 -67 -31t-69 -10q-73 0 -116.5 28t-43.5 81q0 50 47 91h-1q-72 0 -132 14.5t-102.5 42.5t-65.5 69t-23 92q0 52 24 93.5t67.5 69t101 41.5t123.5 14q79 0 138.5 -16.5t96.5 -44t54.5 -61
t17.5 -66.5q0 -25 -17.5 -42.5t-46.5 -17.5h-332q3 -11 17.5 -21.5t46 -16.5t71.5 -6q53 0 105.5 7t92.5 20l47 -112q-35 -22 -94 -38zM339 280q-37 0 -61 -12t-26 -28h168q4 0 5 4q0 11 -23.5 23.5t-62.5 12.5z" />
    <glyph glyph-name="Ecaron" unicode="&#x11a;" horiz-adv-x="775" 
d="M612 746l-208 -154l-208 154l92 109l116 -87l116 87zM700 171l51 -145q-133 -46 -306 -46q-174 0 -258 50.5t-84 152.5v191h-80v166h706v-166h-390v-38h320v-136h-319q9 -52 146 -52q136 0 214 23z" />
    <glyph glyph-name="ecaron" unicode="&#x11b;" horiz-adv-x="668" 
d="M547 597l-208 -154l-208 154l92 109l116 -87l116 87zM385 124q53 0 105.5 7t92.5 20l47 -112q-49 -29 -122 -44t-162 -15q-72 0 -132 14.5t-102.5 42.5t-65.5 69t-23 92q0 52 24 93.5t67.5 69t101 41.5t123.5 14q79 0 138.5 -16.5t96.5 -44t54.5 -61t17.5 -66.5
q0 -25 -17.5 -42.5t-46.5 -17.5h-332q3 -11 17.5 -21.5t46 -16.5t71.5 -6zM339 280q-37 0 -61 -12t-26 -28h168q4 0 5 4q0 11 -23.5 23.5t-62.5 12.5z" />
    <glyph glyph-name="Gbreve" unicode="&#x11e;" horiz-adv-x="776" 
d="M403 602q-79 0 -139 44t-75 120l133 43q4 -35 25.5 -58.5t55.5 -23.5t55.5 23.5t25.5 58.5l133 -43q-15 -76 -75 -120t-139 -44zM504 273h232v-280q-36 -13 -77 -13q-94 0 -132 59q-27 -29 -72.5 -44t-105.5 -15q-65 0 -123.5 19.5t-103 57t-69.5 92t-25 121.5t29.5 122
t84 92t132 56.5t169.5 19.5q83 0 155 -10t119 -27l-49 -175q-87 17 -195 17q-100 0 -150.5 -26t-50.5 -69q0 -19 12.5 -42t48 -38t91.5 -15q47 0 80 11v87z" />
    <glyph glyph-name="gbreve" unicode="&#x11f;" horiz-adv-x="742" 
d="M384 458q-79 0 -139 44t-75 120l133 43q4 -35 25.5 -58.5t55.5 -23.5t55.5 23.5t25.5 58.5l133 -43q-15 -76 -75 -120t-139 -44zM367 416q190 0 326 -54v-287q0 -70 -22 -126.5t-67 -96.5t-115.5 -61t-163.5 -21q-149 0 -257 45l39 135q87 -28 179 -28q62 0 99.5 16
t56.5 52.5t19 108.5v4q-20 -28 -52.5 -57.5t-80 -47.5t-97.5 -18q-94 0 -151 51.5t-57 140.5q0 52 23 97.5t67.5 78t109.5 50.5t144 18zM316 161q40 0 78.5 16.5t66.5 53.5v20q-17 3 -47 6t-48 3q-52 0 -82 -15t-30 -40q0 -20 17.5 -32t44.5 -12z" />
    <glyph glyph-name="Gdotaccent" unicode="&#x120;" horiz-adv-x="776" 
d="M403 617q-64 0 -100 21.5t-36 59.5t36 59.5t100 21.5t100 -21.5t36 -59.5t-36 -59.5t-100 -21.5zM504 273h232v-280q-36 -13 -77 -13q-94 0 -132 59q-27 -29 -72.5 -44t-105.5 -15q-65 0 -123.5 19.5t-103 57t-69.5 92t-25 121.5t29.5 122t84 92t132 56.5t169.5 19.5
q83 0 155 -10t119 -27l-49 -175q-87 17 -195 17q-100 0 -150.5 -26t-50.5 -69q0 -19 12.5 -42t48 -38t91.5 -15q47 0 80 11v87z" />
    <glyph glyph-name="gdotaccent" unicode="&#x121;" horiz-adv-x="742" 
d="M384 489q-64 0 -100 21.5t-36 59.5t36 59.5t100 21.5t100 -21.5t36 -59.5t-36 -59.5t-100 -21.5zM367 416q190 0 326 -54v-287q0 -70 -22 -126.5t-67 -96.5t-115.5 -61t-163.5 -21q-149 0 -257 45l39 135q87 -28 179 -28q62 0 99.5 16t56.5 52.5t19 108.5v4
q-20 -28 -52.5 -57.5t-80 -47.5t-97.5 -18q-94 0 -151 51.5t-57 140.5q0 52 23 97.5t67.5 78t109.5 50.5t144 18zM316 161q40 0 78.5 16.5t66.5 53.5v20q-17 3 -47 6t-48 3q-52 0 -82 -15t-30 -40q0 -20 17.5 -32t44.5 -12z" />
    <glyph glyph-name="Gcommaaccent" unicode="&#x122;" horiz-adv-x="776" 
d="M504 273h232v-280q-36 -13 -77 -13q-94 0 -132 59q-27 -29 -72.5 -44t-105.5 -15q-65 0 -123.5 19.5t-103 57t-69.5 92t-25 121.5t29.5 122t84 92t132 56.5t169.5 19.5q83 0 155 -10t119 -27l-49 -175q-87 17 -195 17q-100 0 -150.5 -26t-50.5 -69q0 -19 12.5 -42t48 -38
t91.5 -15q47 0 80 11v87zM396 -57q61 0 94.5 -24t33.5 -68q0 -21 -12.5 -49.5t-43 -59t-70.5 -55.5l-71 43q38 29 60 62h-4q-36 0 -64.5 11t-39.5 28t-11 33q0 18 11 37t41.5 30.5t75.5 11.5z" />
    <glyph glyph-name="gcommaaccent" unicode="&#x123;" horiz-adv-x="742" 
d="M384 453q-61 0 -94.5 24t-33.5 68q0 21 12.5 49.5t43 59t70.5 55.5l71 -43q-38 -29 -60 -62h4q36 0 64.5 -11t39.5 -28t11 -33q0 -18 -11 -37t-41.5 -30.5t-75.5 -11.5zM367 416q190 0 326 -54v-287q0 -70 -22 -126.5t-67 -96.5t-115.5 -61t-163.5 -21q-149 0 -257 45
l39 135q87 -28 179 -28q62 0 99.5 16t56.5 52.5t19 108.5v4q-20 -28 -52.5 -57.5t-80 -47.5t-97.5 -18q-94 0 -151 51.5t-57 140.5q0 52 23 97.5t67.5 78t109.5 50.5t144 18zM316 161q40 0 78.5 16.5t66.5 53.5v20q-17 3 -47 6t-48 3q-52 0 -82 -15t-30 -40q0 -20 17.5 -32
t44.5 -12z" />
    <glyph glyph-name="Hbar" unicode="&#x126;" horiz-adv-x="947" 
d="M907 165l47 -133q-76 -52 -183 -52q-82 0 -132.5 38.5t-50.5 114.5v7h-252v-140h-236v329h-80v136h80v75h236v-75h252v75h236v-75h80v-136h-80v-118q0 -62 45 -62q20 0 38 16zM336 276h252v53h-252v-53z" />
    <glyph glyph-name="hbar" unicode="&#x127;" horiz-adv-x="810" 
d="M783 170l51 -135q-34 -25 -80 -40t-99 -15q-183 0 -183 150v20q0 14 -7.5 22.5t-20.5 8.5q-37 0 -74.5 -49t-68.5 -132h-221v408h-75v80h75v62h232v-62h89v-80h-89v-113l-2 -30q17 30 50 65.5t74 56t67.5 25t43.5 4.5q74 1 116.5 -39.5t42.5 -122.5v-48q0 -52 41 -52
q20 0 38 16z" />
    <glyph glyph-name="Itilde" unicode="&#x128;" horiz-adv-x="378" 
d="M380 797l45 -117q-54 -68 -153 -68q-35 0 -87 17.5t-82 17.5t-58.5 -13t-46.5 -34l-45 117q54 68 153 68q35 0 87 -17.5t82 -17.5t58.5 13t46.5 34zM71 0v540h236v-540h-236z" />
    <glyph glyph-name="itilde" unicode="&#x129;" horiz-adv-x="400" 
d="M234 479q-30 0 -74 15.5t-69 15.5q-26 0 -52 -12.5t-41 -32.5l-45 117q51 66 141 66q30 0 74 -15.5t69 -15.5q26 0 52 12.5t41 32.5l45 -117q-49 -66 -141 -66zM374 170l47 -137q-75 -53 -171 -53q-67 0 -111.5 18t-67.5 51.5t-23 83.5v263h232v-187q0 -55 54 -55
q22 0 40 16z" />
    <glyph glyph-name="Imacron" unicode="&#x12a;" horiz-adv-x="378" 
d="M6 749h366v-132h-366v132zM71 540h236v-540h-236v540z" />
    <glyph glyph-name="imacron" unicode="&#x12b;" horiz-adv-x="400" 
d="M347 631v-132h-366v132h366zM374 170l47 -137q-75 -53 -171 -53q-67 0 -111.5 18t-67.5 51.5t-23 83.5v263h232v-187q0 -55 54 -55q22 0 40 16z" />
    <glyph glyph-name="Iogonek" unicode="&#x12e;" horiz-adv-x="378" 
d="M314 -99l49 -83q-31 -21 -67 -31t-69 -10q-73 0 -116.5 28t-43.5 81q0 31 20 60.5t58 53.5h-74v540h236v-540q-40 -17 -62 -40.5t-22 -43.5q0 -28 44 -28q26 0 47 13z" />
    <glyph glyph-name="iogonek" unicode="&#x12f;" horiz-adv-x="400" 
d="M300 570q0 -38 -36 -59.5t-100 -21.5t-100 21.5t-36 59.5t36 59.5t100 21.5t100 -21.5t36 -59.5zM316 -113q26 0 47 13l49 -83q-31 -21 -67 -31t-69 -10q-73 0 -116.5 28t-43.5 81q0 57 60 102q-59 12 -93.5 48.5t-34.5 97.5v263h232v-187q0 -55 54 -55q22 0 40 16
l47 -137q-34 -24 -69 -36q-38 -17 -59 -39.5t-21 -42.5q0 -28 44 -28z" />
    <glyph glyph-name="Idotaccent" unicode="&#x130;" horiz-adv-x="378" 
d="M189 779q64 0 100 -21.5t36 -59.5t-36 -59.5t-100 -21.5t-100 21.5t-36 59.5t36 59.5t100 21.5zM71 540h236v-540h-236v540z" />
    <glyph glyph-name="dotlessi" unicode="&#x131;" horiz-adv-x="400" 
d="M374 170l47 -137q-75 -53 -171 -53q-67 0 -111.5 18t-67.5 51.5t-23 83.5v263h232v-187q0 -55 54 -55q22 0 40 16z" />
    <glyph glyph-name="IJ" unicode="&#x132;" horiz-adv-x="768" 
d="M71 0v540h236v-540h-236zM461 540h236v-559q0 -40 -18 -78.5t-61 -68t-112 -47t-166 -17.5l-29 133q27 0 62.5 8t61.5 31t26 59v539z" />
    <glyph glyph-name="ij" unicode="&#x133;" horiz-adv-x="744" 
d="M300 570q0 -38 -36 -59.5t-100 -21.5t-100 21.5t-36 59.5t36 59.5t100 21.5t100 -21.5t36 -59.5zM576 651q64 0 100 -21.5t36 -59.5t-36 -59.5t-100 -21.5t-100 21.5t-36 59.5t36 59.5t100 21.5zM374 170l47 -137q-75 -53 -171 -53q-67 0 -111.5 18t-67.5 51.5t-23 83.5
v263h232v-187q0 -55 54 -55q22 0 40 16zM460 396h232v-409q0 -53 -22 -94t-63.5 -68.5t-100 -41t-129.5 -13.5l-31 141q51 0 82 22t32 64v399z" />
    <glyph glyph-name="Kcommaaccent" unicode="&#x136;" horiz-adv-x="844" 
d="M792 170l47 -133q-67 -57 -164 -57q-42 0 -83.5 12.5t-84.5 57.5l-94 111q-69 -71 -131 -161h-210l-1 540h236l1 -106q0 -58 -13 -147q85 101 193.5 172.5t236.5 100.5l63 -180q-51 -12 -105 -34t-99 -49l81 -102q24 -30 40 -38t35 -8q31 0 52 21zM430 -57q61 0 94.5 -24
t33.5 -68q0 -21 -12.5 -49.5t-43 -59t-70.5 -55.5l-71 43q38 29 60 62h-4q-36 0 -64.5 11t-39.5 28t-11 33q0 18 11 37t41.5 30.5t75.5 11.5z" />
    <glyph glyph-name="kcommaaccent" unicode="&#x137;" horiz-adv-x="706" 
d="M653 165l47 -135q-66 -50 -150 -50q-41 0 -80 11t-75 46l-52 50q-36 -37 -70 -87h-221v550h232v-255q0 -14 -4 -40q61 69 142 111t172 50l54 -164q-76 -9 -140 -40l37 -37q13 -13 29.5 -21t31.5 -8q25 0 47 19zM360 -57q61 0 94.5 -24t33.5 -68q0 -21 -12.5 -49.5
t-43 -59t-70.5 -55.5l-71 43q38 29 60 62h-4q-36 0 -64.5 11t-39.5 28t-11 33q0 18 11 37t41.5 30.5t75.5 11.5z" />
    <glyph glyph-name="kgreenlandic" unicode="&#x138;" horiz-adv-x="706" 
d="M653 165l47 -135q-66 -50 -150 -50q-41 0 -80 11t-75 46l-47 45q-15 -14 -38.5 -39.5t-36.5 -42.5h-221v396h232v-110q0 -13 -4 -41q65 69 146 113t168 58l54 -164q-67 -13 -133 -47l30 -30q13 -13 29.5 -21t31.5 -8q25 0 47 19z" />
    <glyph glyph-name="Lacute" unicode="&#x139;" horiz-adv-x="643" 
d="M402 745l-213 -155l-95 98l198 185zM307 173h316v-173h-552v540h236v-367z" />
    <glyph glyph-name="lacute" unicode="&#x13a;" horiz-adv-x="398" 
d="M377 755l-213 -155l-95 98l198 185zM374 170l47 -137q-75 -53 -171 -53q-67 0 -111.5 18t-67.5 51.5t-23 83.5v417h232v-341q0 -55 54 -55q22 0 40 16z" />
    <glyph glyph-name="Lcommaaccent" unicode="&#x13b;" horiz-adv-x="643" 
d="M307 173h316v-173h-552v540h236v-367zM347 -57q61 0 94.5 -24t33.5 -68q0 -21 -12.5 -49.5t-43 -59t-70.5 -55.5l-71 43q38 29 60 62h-4q-36 0 -64.5 11t-39.5 28t-11 33q0 18 11 37t41.5 30.5t75.5 11.5z" />
    <glyph glyph-name="lcommaaccent" unicode="&#x13c;" horiz-adv-x="398" 
d="M421 33q-75 -53 -171 -53q-67 0 -111.5 18t-67.5 51.5t-23 83.5v417h232v-341q0 -55 54 -55q22 0 40 16zM247 -57q61 0 94.5 -24t33.5 -68q0 -21 -12.5 -49.5t-43 -59t-70.5 -55.5l-71 43q38 29 60 62h-4q-36 0 -64.5 11t-39.5 28t-11 33q0 18 11 37t41.5 30.5t75.5 11.5
z" />
    <glyph glyph-name="Lcaron" unicode="&#x13d;" horiz-adv-x="643" 
d="M563 579q61 0 94.5 -24t33.5 -68q0 -21 -12.5 -49.5t-43 -59t-70.5 -55.5l-71 43q38 29 60 62h-4q-36 0 -64.5 11t-39.5 28t-11 33q0 18 11 37t41.5 30.5t75.5 11.5zM307 540v-367h316v-173h-552v540h236z" />
    <glyph glyph-name="lcaron" unicode="&#x13e;" horiz-adv-x="398" 
d="M444 583q61 0 94.5 -24t33.5 -68q0 -21 -12.5 -49.5t-43 -59t-70.5 -55.5l-71 43q38 29 60 62h-4q-36 0 -64.5 11t-39.5 28t-11 33q0 18 11 37t41.5 30.5t75.5 11.5zM334 154q22 0 40 16l47 -137q-75 -53 -171 -53q-67 0 -111.5 18t-67.5 51.5t-23 83.5v417h232v-341
q0 -55 54 -55z" />
    <glyph glyph-name="Ldot" unicode="&#x13f;" horiz-adv-x="643" 
d="M307 540v-367h316v-173h-552v540h236zM497 251q-28 0 -58 8t-50 29.5t-20 50.5q0 19 11.5 40t42.5 34.5t74 13.5q28 0 58 -8t50 -29.5t20 -50.5q0 -19 -11.5 -40t-42.5 -34.5t-74 -13.5z" />
    <glyph glyph-name="ldot" unicode="&#x140;" horiz-adv-x="398" 
d="M334 154q22 0 40 16l47 -137q-75 -53 -171 -53q-67 0 -111.5 18t-67.5 51.5t-23 83.5v417h232v-341q0 -55 54 -55zM458 429q28 0 58 -8t50 -29.5t20 -50.5q0 -19 -11.5 -40t-42.5 -34.5t-74 -13.5q-28 0 -58 8t-50 29.5t-20 50.5q0 19 11.5 40t42.5 34.5t74 13.5z" />
    <glyph glyph-name="Lslash" unicode="&#x141;" horiz-adv-x="689" 
d="M353 173h316v-173h-552v164l-72 -34l-39 85l111 52v273h236v-163l99 46l40 -85l-139 -65v-100z" />
    <glyph glyph-name="lslash" unicode="&#x142;" horiz-adv-x="488" 
d="M435 170l47 -137q-75 -53 -171 -53q-67 0 -111.5 18t-67.5 51.5t-23 83.5v36l-70 -33l-39 85l109 51v278h232v-170l90 42l40 -85l-130 -60v-68q0 -55 54 -55q22 0 40 16z" />
    <glyph glyph-name="Nacute" unicode="&#x143;" horiz-adv-x="893" 
d="M658 745l-213 -155l-95 98l198 185zM586 540h236v-540h-211l-282 318q7 -28 12.5 -69.5t5.5 -74.5v-174h-236v370h-80v170h161q100 -1 166.5 -21t115.5 -76l123 -141q-11 53 -11 124v114z" />
    <glyph glyph-name="nacute" unicode="&#x144;" horiz-adv-x="785" 
d="M605 603l-213 -155l-95 98l198 185zM758 170l51 -135q-34 -25 -80 -40t-99 -15q-183 0 -183 150v20q0 14 -7.5 22.5t-20.5 8.5q-37 0 -74.5 -49t-68.5 -132h-224v396h232v-96q0 -16 -4 -44q37 69 102.5 114t137.5 46q74 1 116.5 -39.5t42.5 -122.5v-48q0 -52 41 -52
q20 0 38 16z" />
    <glyph glyph-name="Ncommaaccent" unicode="&#x145;" horiz-adv-x="893" 
d="M586 540h236v-540h-211l-282 318q7 -28 12.5 -69.5t5.5 -74.5v-174h-236v370h-80v170h161q100 -1 166.5 -21t115.5 -76l123 -141q-11 53 -11 124v114zM466 -57q61 0 94.5 -24t33.5 -68q0 -21 -12.5 -49.5t-43 -59t-70.5 -55.5l-71 43q38 29 60 62h-4q-36 0 -64.5 11
t-39.5 28t-11 33q0 18 11 37t41.5 30.5t75.5 11.5z" />
    <glyph glyph-name="ncommaaccent" unicode="&#x146;" horiz-adv-x="785" 
d="M758 170l51 -135q-34 -25 -80 -40t-99 -15q-183 0 -183 150v20q0 14 -7.5 22.5t-20.5 8.5q-37 0 -74.5 -49t-68.5 -132h-224v396h232v-96q0 -16 -4 -44q37 69 102.5 114t137.5 46q74 1 116.5 -39.5t42.5 -122.5v-48q0 -52 41 -52q20 0 38 16zM392 -57q61 0 94.5 -24
t33.5 -68q0 -21 -12.5 -49.5t-43 -59t-70.5 -55.5l-71 43q38 29 60 62h-4q-36 0 -64.5 11t-39.5 28t-11 33q0 18 11 37t41.5 30.5t75.5 11.5z" />
    <glyph glyph-name="Ncaron" unicode="&#x147;" horiz-adv-x="893" 
d="M653 746l-208 -154l-208 154l92 109l116 -87l116 87zM586 540h236v-540h-211l-282 318q7 -28 12.5 -69.5t5.5 -74.5v-174h-236v370h-80v170h161q100 -1 166.5 -21t115.5 -76l123 -141q-11 53 -11 124v114z" />
    <glyph glyph-name="ncaron" unicode="&#x148;" horiz-adv-x="785" 
d="M600 597l-208 -154l-208 154l92 109l116 -87l116 87zM758 170l51 -135q-34 -25 -80 -40t-99 -15q-183 0 -183 150v20q0 14 -7.5 22.5t-20.5 8.5q-37 0 -74.5 -49t-68.5 -132h-224v396h232v-96q0 -16 -4 -44q37 69 102.5 114t137.5 46q74 1 116.5 -39.5t42.5 -122.5v-48
q0 -52 41 -52q20 0 38 16z" />
    <glyph glyph-name="napostrophe" unicode="&#x149;" horiz-adv-x="785" 
d="M-104 667h165l-23 -234h-138zM758 170l51 -135q-34 -25 -80 -40t-99 -15q-183 0 -183 150v20q0 14 -7.5 22.5t-20.5 8.5q-37 0 -74.5 -49t-68.5 -132h-224v396h232v-96q0 -16 -4 -44q37 69 102.5 114t137.5 46q74 1 116.5 -39.5t42.5 -122.5v-48q0 -52 41 -52q20 0 38 16
z" />
    <glyph glyph-name="Eng" unicode="&#x14a;" horiz-adv-x="893" 
d="M586 540h236v-559q0 -40 -18 -78.5t-61 -68t-112 -47t-166 -17.5l-29 133q60 0 105.5 25t46.5 73v25l-259 292q7 -28 12.5 -69.5t5.5 -74.5v-174h-236v370h-80v170h161q100 -1 166.5 -21t115.5 -76l123 -141q-11 53 -11 124v114z" />
    <glyph glyph-name="eng" unicode="&#x14b;" horiz-adv-x="728" 
d="M520 416q74 1 116.5 -39.5t42.5 -122.5v-267q0 -53 -22 -94t-63.5 -68.5t-100 -41t-129.5 -13.5l-31 141q51 0 82 22t32 64v153q0 14 -7.5 22.5t-20.5 8.5q-37 0 -74.5 -49t-68.5 -132h-224v396h232v-96q0 -16 -4 -44q37 69 102.5 114t137.5 46z" />
    <glyph glyph-name="Omacron" unicode="&#x14c;" horiz-adv-x="826" 
d="M596 749v-132h-366v132h366zM413 560q78 0 139.5 -17t105 -41.5t75 -59t49 -78.5t17.5 -94t-17.5 -94t-49 -78.5t-75 -59t-105 -41.5t-139.5 -17t-139.5 17t-105 41.5t-75 59t-49 78.5t-17.5 94t17.5 94t49 78.5t75 59t105 41.5t139.5 17zM413 167q28 0 61.5 10t57 35.5
t23.5 57.5t-23.5 57.5t-57 35.5t-61.5 10t-61.5 -10t-57 -35.5t-23.5 -57.5t23.5 -57.5t57 -35.5t61.5 -10z" />
    <glyph glyph-name="omacron" unicode="&#x14d;" horiz-adv-x="670" 
d="M518 631v-132h-366v132h366zM335 416q66 0 123.5 -14.5t100 -43t66 -69.5t23.5 -91t-23.5 -91t-66 -69.5t-100 -43t-123.5 -14.5t-123.5 14.5t-100 43t-66 69.5t-23.5 91t23.5 91t66 69.5t100 43t123.5 14.5zM335 139q33 0 56 17t23 42t-23 42t-56 17t-56 -17t-23 -42
t23 -42t56 -17z" />
    <glyph glyph-name="Ohungarumlaut" unicode="&#x150;" horiz-adv-x="826" 
d="M471 746l-213 -155l-95 98l198 185zM781 746l-213 -155l-95 98l198 185zM413 560q78 0 139.5 -17t105 -41.5t75 -59t49 -78.5t17.5 -94t-17.5 -94t-49 -78.5t-75 -59t-105 -41.5t-139.5 -17t-139.5 17t-105 41.5t-75 59t-49 78.5t-17.5 94t17.5 94t49 78.5t75 59
t105 41.5t139.5 17zM413 167q28 0 61.5 10t57 35.5t23.5 57.5t-23.5 57.5t-57 35.5t-61.5 10t-61.5 -10t-57 -35.5t-23.5 -57.5t23.5 -57.5t57 -35.5t61.5 -10z" />
    <glyph glyph-name="ohungarumlaut" unicode="&#x151;" horiz-adv-x="670" 
d="M393 603l-213 -155l-95 98l198 185zM703 603l-213 -155l-95 98l198 185zM335 416q66 0 123.5 -14.5t100 -43t66 -69.5t23.5 -91t-23.5 -91t-66 -69.5t-100 -43t-123.5 -14.5t-123.5 14.5t-100 43t-66 69.5t-23.5 91t23.5 91t66 69.5t100 43t123.5 14.5zM335 139
q33 0 56 17t23 42t-23 42t-56 17t-56 -17t-23 -42t23 -42t56 -17z" />
    <glyph glyph-name="OE" unicode="&#x152;" horiz-adv-x="1237" 
d="M1213 26q-133 -46 -306 -46q-214 0 -293 76q-40 -36 -99.5 -56t-130.5 -20q-70 0 -135 19.5t-114.5 57t-78 92.5t-28.5 121t27.5 121t76 92.5t111.5 57t131 19.5q112 0 191 -42v22h626v-166h-390v-38h320v-136h-319q9 -52 146 -52q136 0 214 23zM414 167q47 0 88 14
t63 37v114q-51 41 -145 41q-45 0 -82.5 -17.5t-51.5 -41t-14 -44.5q0 -32 23.5 -57.5t57 -35.5t61.5 -10z" />
    <glyph glyph-name="oe" unicode="&#x153;" horiz-adv-x="1054" 
d="M771 124q53 0 105.5 7t92.5 20l47 -112q-97 -59 -274 -59q-66 0 -120.5 15.5t-91.5 45.5q-38 -29 -94 -45t-121 -16q-58 0 -111.5 14.5t-94 43t-64 69.5t-23.5 91q0 37 15.5 75.5t52.5 70t94.5 52t130.5 20.5q65 0 121 -16t95 -46q37 30 90 46t114 16q57 0 112 -11
t96 -36.5t65 -61.5t24 -79q0 -25 -17.5 -42.5t-46.5 -17.5h-332q3 -11 17.5 -21.5t46 -16.5t71.5 -6zM729 280q-39 0 -64 -12t-27 -28h168q4 0 5 4q0 11 -22.5 23.5t-59.5 12.5zM335 139q33 0 56 17t23 42t-23 42t-56 17t-56 -17t-23 -42t23 -42t56 -17z" />
    <glyph glyph-name="Racute" unicode="&#x154;" horiz-adv-x="853" 
d="M634 745l-213 -155l-95 98l198 185zM790 170l47 -133q-67 -57 -164 -57q-49 0 -86.5 14.5t-73.5 44.5l-106 103h-100v-142h-236v540q188 20 349 20q377 0 377 -190q0 -117 -137 -169l19 -21q27 -31 59 -31q31 0 52 21zM307 391v-91h133q64 0 89 12t25 35t-28 35.5
t-106 12.5q-39 0 -113 -4z" />
    <glyph glyph-name="racute" unicode="&#x155;" horiz-adv-x="567" 
d="M523 603l-213 -155l-95 98l198 185zM281 256q28 51 75 90.5t96 54.5t92 15v-223q-227 0 -268 -193h-224v396h232v-96q0 -16 -4 -44h1z" />
    <glyph glyph-name="Rcommaaccent" unicode="&#x156;" horiz-adv-x="853" 
d="M790 170l47 -133q-67 -57 -164 -57q-49 0 -86.5 14.5t-73.5 44.5l-106 103h-100v-142h-236v540q188 20 349 20q377 0 377 -190q0 -117 -137 -169l19 -21q27 -31 59 -31q31 0 52 21zM307 391v-91h133q64 0 89 12t25 35t-28 35.5t-106 12.5q-39 0 -113 -4zM434 -57
q61 0 94.5 -24t33.5 -68q0 -21 -12.5 -49.5t-43 -59t-70.5 -55.5l-71 43q38 29 60 62h-4q-36 0 -64.5 11t-39.5 28t-11 33q0 18 11 37t41.5 30.5t75.5 11.5z" />
    <glyph glyph-name="rcommaaccent" unicode="&#x157;" horiz-adv-x="567" 
d="M281 256q28 51 75 90.5t96 54.5t92 15v-223q-227 0 -268 -193h-224v396h232v-96q0 -16 -4 -44h1zM164 -57q61 0 94.5 -24t33.5 -68q0 -21 -12.5 -49.5t-43 -59t-70.5 -55.5l-71 43q38 29 60 62h-4q-36 0 -64.5 11t-39.5 28t-11 33q0 18 11 37t41.5 30.5t75.5 11.5z" />
    <glyph glyph-name="Rcaron" unicode="&#x158;" horiz-adv-x="853" 
d="M629 746l-208 -154l-208 154l92 109l116 -87l116 87zM790 170l47 -133q-67 -57 -164 -57q-49 0 -86.5 14.5t-73.5 44.5l-106 103h-100v-142h-236v540q188 20 349 20q377 0 377 -190q0 -117 -137 -169l19 -21q27 -31 59 -31q31 0 52 21zM307 391v-91h133q64 0 89 12t25 35
t-28 35.5t-106 12.5q-39 0 -113 -4z" />
    <glyph glyph-name="rcaron" unicode="&#x159;" horiz-adv-x="567" 
d="M518 597l-208 -154l-208 154l92 109l116 -87l116 87zM281 256q28 51 75 90.5t96 54.5t92 15v-223q-227 0 -268 -193h-224v396h232v-96q0 -16 -4 -44h1z" />
    <glyph glyph-name="Sacute" unicode="&#x15a;" horiz-adv-x="748" 
d="M588 745l-213 -155l-95 98l198 185zM280 376q0 -9 19 -14.5t97.5 -10t117 -10.5t66.5 -13.5t60 -23t54.5 -46.5t22.5 -75q0 -37 -14.5 -74t-50.5 -65.5t-96.5 -46t-150.5 -17.5q-115 0 -204.5 18t-168.5 56l58 144q128 -58 297 -58q48 0 67 7t19 22q0 5 -6 9.5t-23 8
t-112.5 11t-141 20t-70.5 25.5t-44 31t-29.5 43t-10.5 55q0 59 40.5 100t122.5 64.5t214 23.5q65 0 145.5 -8t145.5 -29l-42 -149q-49 12 -112 19t-120 7q-150 0 -150 -24z" />
    <glyph glyph-name="sacute" unicode="&#x15b;" horiz-adv-x="645" 
d="M535 603l-213 -155l-95 98l198 185zM387 256q68 -5 118 -17t81 -39t31 -70q0 -49 -32.5 -82t-95 -50.5t-156.5 -17.5q-162 0 -299 42l28 122q108 -40 257 -40q25 0 44.5 4.5t19.5 14.5q0 7 -15 11.5t-64 8t-68 5.5q-63 6 -109 19.5t-73.5 39t-27.5 65.5q0 71 84 108
t249 36q159 0 252 -22l-21 -118q-89 13 -212 16q-74 0 -95.5 -4.5t-21.5 -12.5q0 -5 12 -9t56 -6.5t58 -3.5z" />
    <glyph glyph-name="Scedilla" unicode="&#x15e;" horiz-adv-x="748" 
d="M717 183q0 -50 -21.5 -88.5t-61.5 -63.5t-97 -38t-127 -13l-2 -23q62 -10 94 -36.5t32 -65.5t-35.5 -63.5t-108.5 -24.5q-68 0 -112 18l33 78q23 -6 48 -6q32 0 32 13q0 20 -89 20h-2l13 93q-157 11 -281 71l58 144q128 -58 297 -58q48 0 67 7t19 22q0 5 -6 9.5t-23 8
t-112.5 11t-141 20t-70.5 25.5t-44 31t-29.5 43t-10.5 55q0 59 40.5 100t122.5 64.5t214 23.5q65 0 145.5 -8t145.5 -29l-42 -149q-49 12 -112 19t-120 7q-150 0 -150 -24q0 -9 19 -14.5t97.5 -10t117 -10.5t66.5 -13.5t60 -23t54.5 -46.5t22.5 -75z" />
    <glyph glyph-name="scedilla" unicode="&#x15f;" horiz-adv-x="645" 
d="M617 130q0 -65 -62 -105t-196 -45l-2 -23q62 -10 94 -36.5t32 -65.5t-35.5 -63.5t-108.5 -24.5q-68 0 -112 18l33 78q23 -6 48 -6q32 0 32 13q0 20 -89 20h-2l13 92q-117 7 -228 40l28 122q108 -40 257 -40q25 0 44.5 4.5t19.5 14.5q0 7 -15 11.5t-64 8t-68 5.5
q-63 6 -109 19.5t-73.5 39t-27.5 65.5q0 71 84 108t249 36q159 0 252 -22l-21 -118q-89 13 -212 16q-74 0 -95.5 -4.5t-21.5 -12.5q0 -5 12 -9t56 -6.5t58 -3.5q68 -5 118 -17t81 -39t31 -70z" />
    <glyph glyph-name="Scaron" unicode="&#x160;" horiz-adv-x="748" 
d="M583 746l-208 -154l-208 154l92 109l116 -87l116 87zM280 376q0 -9 19 -14.5t97.5 -10t117 -10.5t66.5 -13.5t60 -23t54.5 -46.5t22.5 -75q0 -37 -14.5 -74t-50.5 -65.5t-96.5 -46t-150.5 -17.5q-115 0 -204.5 18t-168.5 56l58 144q128 -58 297 -58q48 0 67 7t19 22
q0 5 -6 9.5t-23 8t-112.5 11t-141 20t-70.5 25.5t-44 31t-29.5 43t-10.5 55q0 59 40.5 100t122.5 64.5t214 23.5q65 0 145.5 -8t145.5 -29l-42 -149q-49 12 -112 19t-120 7q-150 0 -150 -24z" />
    <glyph glyph-name="scaron" unicode="&#x161;" horiz-adv-x="645" 
d="M530 597l-208 -154l-208 154l92 109l116 -87l116 87zM387 256q68 -5 118 -17t81 -39t31 -70q0 -49 -32.5 -82t-95 -50.5t-156.5 -17.5q-162 0 -299 42l28 122q108 -40 257 -40q25 0 44.5 4.5t19.5 14.5q0 7 -15 11.5t-64 8t-68 5.5q-63 6 -109 19.5t-73.5 39t-27.5 65.5
q0 71 84 108t249 36q159 0 252 -22l-21 -118q-89 13 -212 16q-74 0 -95.5 -4.5t-21.5 -12.5q0 -5 12 -9t56 -6.5t58 -3.5z" />
    <glyph glyph-name="Tcommaaccent" unicode="&#x162;" horiz-adv-x="783" 
d="M759 349h-270v-126q0 -74 65 -74q29 0 53 16l46 -134q-76 -48 -185 -51l-2 -23q62 -10 94 -36.5t32 -65.5t-35.5 -63.5t-108.5 -24.5q-68 0 -112 18l33 78q23 -6 48 -6q32 0 32 13q0 20 -89 20h-2l14 100q-55 15 -87 51.5t-32 93.5v214h-234v191h740v-191z" />
    <glyph glyph-name="tcommaaccent" unicode="&#x163;" horiz-adv-x="581" 
d="M362 -43q62 -10 94 -36.5t32 -65.5t-35.5 -63.5t-108.5 -24.5q-68 0 -112 18l33 78q23 -6 48 -6q32 0 32 13q0 20 -89 20h-2l14 97q-80 17 -125 69t-45 145v47h-82v148h82v40l232 104v-144h213v-148h-213v-22q0 -36 24 -54t78 -18q48 0 85 16l44 -135q-82 -50 -197 -55z
" />
    <glyph glyph-name="Tcaron" unicode="&#x164;" horiz-adv-x="783" 
d="M597 746l-208 -154l-208 154l92 109l116 -87l116 87zM759 349h-270v-126q0 -74 65 -74q29 0 53 16l46 -134q-80 -51 -197 -51q-67 0 -112 19.5t-68 53t-23 82.5v214h-234v191h740v-191z" />
    <glyph glyph-name="tcaron" unicode="&#x165;" horiz-adv-x="581" 
d="M504 672q61 0 94.5 -24t33.5 -68q0 -21 -12.5 -49.5t-43 -59t-70.5 -55.5l-71 43q38 29 60 62h-4q-36 0 -64.5 11t-39.5 28t-11 33q0 18 11 37t41.5 30.5t75.5 11.5zM432 154q48 0 85 16l44 -135q-42 -26 -98 -40.5t-115 -14.5q-84 0 -138.5 26t-83 74t-28.5 121v47h-82
v148h82v40l232 104v-144h213v-148h-213v-22q0 -36 24 -54t78 -18z" />
    <glyph glyph-name="Tbar" unicode="&#x166;" horiz-adv-x="783" 
d="M572 749v-132h-366v132h366zM759 349h-270v-126q0 -74 65 -74q29 0 53 16l46 -134q-80 -51 -197 -51q-67 0 -112 19.5t-68 53t-23 82.5v214h-234v191h740v-191z" />
    <glyph glyph-name="tbar" unicode="&#x167;" horiz-adv-x="581" 
d="M517 170l44 -135q-42 -26 -98 -40.5t-115 -14.5q-54 0 -99.5 12t-79 38t-52.5 68.5t-19 99.5h-82v80h82v38h-82v80h82v40l232 104v-144h213v-80h-213v-38h213v-80h-209q15 -44 98 -44q48 0 85 16z" />
    <glyph glyph-name="Utilde" unicode="&#x168;" horiz-adv-x="890" 
d="M317 650q-34 0 -66 -13t-52 -36l-45 117q60 70 166 70q40 0 99 -19.5t94 -19.5q34 0 66 13t52 36l45 -117q-58 -70 -166 -70q-40 0 -99 19.5t-94 19.5zM850 165l47 -133q-76 -52 -183 -52q-73 0 -121.5 30.5t-58.5 90.5q-42 -63 -105.5 -92t-133.5 -29q-106 0 -169 59
t-63 171v330h236v-276q0 -45 22 -69t59 -24q52 0 85 34t49.5 103.5t16.5 191.5v40h236v-329q0 -62 45 -62q20 0 38 16z" />
    <glyph glyph-name="utilde" unicode="&#x169;" horiz-adv-x="800" 
d="M272 514q-34 0 -66 -13t-52 -36l-45 117q60 70 166 70q40 0 99 -19.5t94 -19.5q34 0 66 13t52 36l45 -117q-58 -70 -166 -70q-40 0 -99 19.5t-94 19.5zM764 170l51 -135q-34 -25 -80 -40t-99 -15q-183 0 -183 150v1l1 10q-42 -68 -109.5 -114t-142.5 -47
q-72 -1 -113 39.5t-41 122.5v254h232v-150q0 -14 7.5 -22.5t20.5 -8.5q30 0 71 48.5t82 132.5h224v-190q0 -52 41 -52q20 0 38 16z" />
    <glyph glyph-name="Umacron" unicode="&#x16a;" horiz-adv-x="890" 
d="M598 749v-132h-366v132h366zM850 165l47 -133q-76 -52 -183 -52q-73 0 -121.5 30.5t-58.5 90.5q-42 -63 -105.5 -92t-133.5 -29q-106 0 -169 59t-63 171v330h236v-276q0 -45 22 -69t59 -24q52 0 85 34t49.5 103.5t16.5 191.5v40h236v-329q0 -62 45 -62q20 0 38 16z" />
    <glyph glyph-name="umacron" unicode="&#x16b;" horiz-adv-x="800" 
d="M553 631v-132h-366v132h366zM764 170l51 -135q-34 -25 -80 -40t-99 -15q-183 0 -183 150v1l1 10q-42 -68 -109.5 -114t-142.5 -47q-72 -1 -113 39.5t-41 122.5v254h232v-150q0 -14 7.5 -22.5t20.5 -8.5q30 0 71 48.5t82 132.5h224v-190q0 -52 41 -52q20 0 38 16z" />
    <glyph glyph-name="Uring" unicode="&#x16e;" horiz-adv-x="890" 
d="M415 600q-31 0 -68 10t-62.5 38t-25.5 69q0 53 44 84t112 31t112 -31t44 -84q0 -34 -18.5 -60t-54.5 -41.5t-83 -15.5zM415 748q-19 0 -31 -8.5t-12 -22.5q0 -11 9.5 -21.5t33.5 -10.5q19 0 31 8.5t12 23.5q0 14 -12 22.5t-31 8.5zM850 165l47 -133q-76 -52 -183 -52
q-73 0 -121.5 30.5t-58.5 90.5q-42 -63 -105.5 -92t-133.5 -29q-106 0 -169 59t-63 171v330h236v-276q0 -45 22 -69t59 -24q52 0 85 34t49.5 103.5t16.5 191.5v40h236v-329q0 -62 45 -62q20 0 38 16z" />
    <glyph glyph-name="uring" unicode="&#x16f;" horiz-adv-x="800" 
d="M370 453q-31 0 -68 10t-62.5 38t-25.5 69q0 53 44 84t112 31t112 -31t44 -84q0 -34 -18.5 -60t-54.5 -41.5t-83 -15.5zM370 601q-19 0 -31 -8.5t-12 -22.5q0 -11 9.5 -21.5t33.5 -10.5q19 0 31 8.5t12 23.5q0 14 -12 22.5t-31 8.5zM764 170l51 -135q-34 -25 -80 -40
t-99 -15q-183 0 -183 150v1l1 10q-42 -68 -109.5 -114t-142.5 -47q-72 -1 -113 39.5t-41 122.5v254h232v-150q0 -14 7.5 -22.5t20.5 -8.5q30 0 71 48.5t82 132.5h224v-190q0 -52 41 -52q20 0 38 16z" />
    <glyph glyph-name="Uhungarumlaut" unicode="&#x170;" horiz-adv-x="890" 
d="M473 746l-213 -155l-95 98l198 185zM783 746l-213 -155l-95 98l198 185zM850 165l47 -133q-76 -52 -183 -52q-73 0 -121.5 30.5t-58.5 90.5q-42 -63 -105.5 -92t-133.5 -29q-106 0 -169 59t-63 171v330h236v-276q0 -45 22 -69t59 -24q52 0 85 34t49.5 103.5t16.5 191.5
v40h236v-329q0 -62 45 -62q20 0 38 16z" />
    <glyph glyph-name="uhungarumlaut" unicode="&#x171;" horiz-adv-x="800" 
d="M428 603l-213 -155l-95 98l198 185zM738 603l-213 -155l-95 98l198 185zM764 170l51 -135q-34 -25 -80 -40t-99 -15q-183 0 -183 150v1l1 10q-42 -68 -109.5 -114t-142.5 -47q-72 -1 -113 39.5t-41 122.5v254h232v-150q0 -14 7.5 -22.5t20.5 -8.5q30 0 71 48.5t82 132.5
h224v-190q0 -52 41 -52q20 0 38 16z" />
    <glyph glyph-name="Uogonek" unicode="&#x172;" horiz-adv-x="890" 
d="M793 -113q26 0 47 13l49 -83q-31 -21 -67 -31t-69 -10q-73 0 -116.5 28t-43.5 81q0 27 15 53t44 48q-47 11 -78.5 40t-39.5 75q-42 -63 -105.5 -92t-133.5 -29q-106 0 -169 59t-63 171v330h236v-276q0 -45 22 -69t59 -24q52 0 85 34t49.5 103.5t16.5 191.5v40h236v-329
q0 -62 45 -62q20 0 38 16l47 -133q-31 -22 -67 -34q-39 -17 -60 -40t-21 -43q0 -28 44 -28z" />
    <glyph glyph-name="uogonek" unicode="&#x173;" horiz-adv-x="808" 
d="M707 -113q26 0 47 13l49 -83q-31 -21 -67 -31t-69 -10q-73 0 -116.5 28t-43.5 81q0 57 60 102q-54 12 -84 47t-30 96v1l1 10q-42 -68 -109.5 -114t-142.5 -47q-72 -1 -113 39.5t-41 122.5v254h232v-150q0 -14 7.5 -22.5t20.5 -8.5q30 0 71 48.5t82 132.5h224v-190
q0 -52 41 -52q20 0 38 16l51 -135q-37 -26 -73 -38q-37 -17 -58 -39.5t-21 -42.5q0 -28 44 -28z" />
    <glyph glyph-name="Wcircumflex" unicode="&#x174;" horiz-adv-x="1137" 
d="M590 679l-116 -87l-92 109l208 154l208 -154l-92 -109zM883 540h252l-253 -540h-164l-101 237l-27 76l-27 -76l-101 -237h-165l-148 324q-15 34 -29.5 50.5t-39.5 16.5q-31 0 -52 -21l-47 133q67 57 164 57q69 0 111 -29t66 -86l35 -85q13 -34 25 -80q17 56 27 80l78 180
h206l78 -180q8 -18 23 -67q13 48 20 67z" />
    <glyph glyph-name="wcircumflex" unicode="&#x175;" horiz-adv-x="1108" 
d="M608 530l-116 -87l-92 109l208 154l208 -154l-92 -109zM855 396h235q0 -99 -36 -178.5t-95 -132t-128 -79t-134 -26.5q-73 0 -114 40t-41 122v3q0 13 3 22q-43 -83 -119 -135t-157 -52q-70 0 -110 40t-40 122v48q0 52 -41 52q-20 0 -38 -16l-51 135q34 25 80 40t99 15
q183 0 183 -150v-30q0 -14 6 -22.5t17 -8.5q24 0 59 50.5t69 140.5h212v-160q0 -31 27 -31q20 0 47.5 22t47 64t19.5 105z" />
    <glyph glyph-name="Ycircumflex" unicode="&#x176;" horiz-adv-x="804" 
d="M417 679l-116 -87l-92 109l208 154l208 -154l-92 -109zM836 540l-304 -337v-203h-236v192l-147 168q-27 31 -59 31q-31 0 -52 -21l-47 133q67 57 164 57q111 0 165 -63l43 -51q36 -42 55 -73q12 23 52 73l74 94h292z" />
    <glyph glyph-name="ycircumflex" unicode="&#x177;" horiz-adv-x="797" 
d="M407 530l-116 -87l-92 109l208 154l208 -154l-92 -109zM522 396h224v-321q0 -70 -22 -126.5t-67 -96.5t-115.5 -61t-163.5 -21q-149 0 -257 45l39 135q87 -28 179 -28q62 0 99.5 16t56.5 52.5t19 108.5v1q0 19 3 38q-37 -68 -102 -112.5t-137 -45.5q-74 -1 -116.5 39.5
t-42.5 122.5v48q0 52 -41 52q-20 0 -38 -16l-51 135q34 25 80 40t99 15q183 0 183 -150v-20q0 -14 7.5 -22.5t20.5 -8.5q37 0 74.5 49t68.5 132z" />
    <glyph glyph-name="Ydieresis" unicode="&#x178;" horiz-adv-x="804" 
d="M272 617q-53 0 -84.5 22t-31.5 59t31.5 59t84.5 22t84.5 -22t31.5 -59t-31.5 -59t-84.5 -22zM562 617q-53 0 -84.5 22t-31.5 59t31.5 59t84.5 22t84.5 -22t31.5 -59t-31.5 -59t-84.5 -22zM836 540l-304 -337v-203h-236v192l-147 168q-27 31 -59 31q-31 0 -52 -21l-47 133
q67 57 164 57q111 0 165 -63l43 -51q36 -42 55 -73q12 23 52 73l74 94h292z" />
    <glyph glyph-name="Zacute" unicode="&#x179;" horiz-adv-x="763" 
d="M586 745l-213 -155l-95 98l198 185zM683 206l58 -150q-43 -47 -92 -61.5t-104 -14.5q-67 0 -155 20.5t-143 20.5q-89 0 -185 -42l-26 178l356 204q-54 -6 -118 -6h-226v185h651v-185l-237 -146q-8 -5 -22.5 -12t-24.5 -10q13 -3 47 -11.5t57.5 -11.5t43.5 -3q81 0 120 45
z" />
    <glyph glyph-name="zacute" unicode="&#x17a;" horiz-adv-x="668" 
d="M543 603l-213 -155l-95 98l198 185zM591 172l63 -116q-22 -34 -64.5 -55.5t-103.5 -21.5q-39 0 -70 6t-90.5 24.5t-98.5 18.5q-86 0 -176 -49l-21 144l243 115h-232v158h578v-148l-201 -83q43 -12 56.5 -14t27.5 -2q11 0 37.5 3.5t51.5 19.5z" />
    <glyph glyph-name="Zdotaccent" unicode="&#x17b;" horiz-adv-x="763" 
d="M373 617q-64 0 -100 21.5t-36 59.5t36 59.5t100 21.5t100 -21.5t36 -59.5t-36 -59.5t-100 -21.5zM683 206l58 -150q-43 -47 -92 -61.5t-104 -14.5q-67 0 -155 20.5t-143 20.5q-89 0 -185 -42l-26 178l356 204q-54 -6 -118 -6h-226v185h651v-185l-237 -146
q-8 -5 -22.5 -12t-24.5 -10q13 -3 47 -11.5t57.5 -11.5t43.5 -3q81 0 120 45z" />
    <glyph glyph-name="zdotaccent" unicode="&#x17c;" horiz-adv-x="668" 
d="M330 489q-64 0 -100 21.5t-36 59.5t36 59.5t100 21.5t100 -21.5t36 -59.5t-36 -59.5t-100 -21.5zM591 172l63 -116q-22 -34 -64.5 -55.5t-103.5 -21.5q-39 0 -70 6t-90.5 24.5t-98.5 18.5q-86 0 -176 -49l-21 144l243 115h-232v158h578v-148l-201 -83q43 -12 56.5 -14
t27.5 -2q11 0 37.5 3.5t51.5 19.5z" />
    <glyph glyph-name="Zcaron" unicode="&#x17d;" horiz-adv-x="763" 
d="M581 746l-208 -154l-208 154l92 109l116 -87l116 87zM683 206l58 -150q-43 -47 -92 -61.5t-104 -14.5q-67 0 -155 20.5t-143 20.5q-89 0 -185 -42l-26 178l356 204q-54 -6 -118 -6h-226v185h651v-185l-237 -146q-8 -5 -22.5 -12t-24.5 -10q13 -3 47 -11.5t57.5 -11.5
t43.5 -3q81 0 120 45z" />
    <glyph glyph-name="zcaron" unicode="&#x17e;" horiz-adv-x="668" 
d="M538 597l-208 -154l-208 154l92 109l116 -87l116 87zM591 172l63 -116q-22 -34 -64.5 -55.5t-103.5 -21.5q-39 0 -70 6t-90.5 24.5t-98.5 18.5q-86 0 -176 -49l-21 144l243 115h-232v158h578v-148l-201 -83q43 -12 56.5 -14t27.5 -2q11 0 37.5 3.5t51.5 19.5z" />
    <glyph glyph-name="uni01EA" unicode="&#x1ea;" horiz-adv-x="826" 
d="M555 -2q-37 -17 -57.5 -39.5t-20.5 -42.5q0 -28 44 -28q26 0 47 13l49 -83q-31 -21 -67 -31t-69 -10q-73 0 -116.5 28t-43.5 81t52 95q-71 5 -134.5 26.5t-111 58.5t-74 89.5t-26.5 114.5q0 50 17.5 94t49 78.5t75 59t105 41.5t139.5 17t139.5 -17t105 -41.5t75 -59
t49 -78.5t17.5 -94q0 -64 -27.5 -116.5t-81.5 -93.5t-135 -62zM271 270q0 -32 23.5 -57.5t57 -35.5t61.5 -10t61.5 10t57 35.5t23.5 57.5t-23.5 57.5t-57 35.5t-61.5 10t-61.5 -10t-57 -35.5t-23.5 -57.5z" />
    <glyph glyph-name="uni01EB" unicode="&#x1eb;" horiz-adv-x="670" 
d="M474 -1q-39 -17 -61 -40.5t-22 -43.5q0 -28 44 -28q26 0 47 13l49 -83q-31 -21 -67 -31t-69 -10q-73 0 -116.5 28t-43.5 81t53 97q-57 5 -106 21.5t-85 44t-55.5 66t-19.5 84.5q0 50 23.5 91t66 69.5t100 43t123.5 14.5t123.5 -14.5t100 -43t66 -69.5t23.5 -91
q0 -45 -21 -86.5t-62.5 -69.5t-90.5 -43zM256 198q0 -25 23 -42t56 -17t56 17t23 42t-23 42t-56 17t-56 -17t-23 -42z" />
    <glyph glyph-name="AEacute" unicode="&#x1fc;" horiz-adv-x="1154" 
d="M841 745l-213 -155l-95 98l198 185zM1079 171l51 -145q-129 -46 -296 -46q-217 0 -291 84h-234l-33 -64h-264l217 370h-76v170h955v-166h-370v-38h300v-136h-299q9 -52 136 -52q130 0 204 23zM470 374l-90 -174h122v174h-32z" />
    <glyph glyph-name="aeacute" unicode="&#x1fd;" horiz-adv-x="1098" 
d="M800 603l-213 -155l-95 98l198 185zM816 124q53 0 105.5 7t92.5 20l47 -112q-49 -29 -122 -44t-162 -15q-116 0 -196 36t-110 102q-41 -65 -104.5 -101.5t-135.5 -36.5q-94 0 -151 51.5t-57 140.5q0 52 23 97.5t67.5 78t109.5 50.5t144 18q134 0 238 -26q34 12 78 19
t87 7q79 0 138.5 -16.5t96.5 -44t54.5 -61t17.5 -66.5q0 -25 -17.5 -42.5t-46.5 -17.5h-332q3 -11 17.5 -21.5t46 -16.5t71.5 -6zM856 244q0 11 -23.5 23.5t-62.5 12.5q-37 0 -61 -12t-26 -28h168q4 0 5 4zM316 161q27 0 55 8t49.5 23.5t35.5 32.5l5 26q-17 3 -47 6t-48 3
q-52 0 -82 -15t-30 -40q0 -20 17.5 -32t44.5 -12z" />
    <glyph glyph-name="Oslashacute" unicode="&#x1fe;" horiz-adv-x="887" 
d="M656 745l-213 -155l-95 98l198 185zM885 424l-83 -38q27 -51 27 -116q0 -50 -17.5 -94t-49 -78.5t-75 -59t-105 -41.5t-139.5 -17q-66 0 -128 14.5t-104.5 38t-67.5 45.5l-102 -47l-39 85l82 38q-27 54 -27 116q0 50 17.5 94t49 78.5t75 59t105 41.5t139.5 17
q66 0 128 -14.5t104.5 -38t67.5 -45.5l102 47zM301 270l1 -14l218 101q-35 16 -77 16q-28 0 -61.5 -10t-57 -35.5t-23.5 -57.5zM585 270l-1 14l-218 -102q37 -15 77 -15q28 0 61.5 10t57 35.5t23.5 57.5z" />
    <glyph glyph-name="oslashacute" unicode="&#x1ff;" horiz-adv-x="762" 
d="M595 603l-213 -155l-95 98l198 185zM752 318l-76 -36q19 -40 19 -84q0 -50 -23.5 -91t-66 -69.5t-100 -43t-123.5 -14.5q-67 0 -127 15.5t-101 44.5l-103 -48l-39 85l77 36q-20 38 -20 85q0 50 23.5 91t66 69.5t100 43t123.5 14.5q68 0 127.5 -15.5t100.5 -44.5l102 47z
M382 257q-27 0 -48 -12t-28 -31l91 42zM382 139q27 0 48 12t28 30l-89 -41z" />
    <glyph glyph-name="Scommaaccent" unicode="&#x218;" horiz-adv-x="748" 
d="M280 376q0 -9 19 -14.5t97.5 -10t117 -10.5t66.5 -13.5t60 -23t54.5 -46.5t22.5 -75q0 -37 -14.5 -74t-50.5 -65.5t-96.5 -46t-150.5 -17.5q-115 0 -204.5 18t-168.5 56l58 144q128 -58 297 -58q48 0 67 7t19 22q0 5 -6 9.5t-23 8t-112.5 11t-141 20t-70.5 25.5t-44 31
t-29.5 43t-10.5 55q0 59 40.5 100t122.5 64.5t214 23.5q65 0 145.5 -8t145.5 -29l-42 -149q-49 12 -112 19t-120 7q-150 0 -150 -24zM374 -57q61 0 94.5 -24t33.5 -68q0 -21 -12.5 -49.5t-43 -59t-70.5 -55.5l-71 43q38 29 60 62h-4q-36 0 -64.5 11t-39.5 28t-11 33
q0 18 11 37t41.5 30.5t75.5 11.5z" />
    <glyph glyph-name="scommaaccent" unicode="&#x219;" horiz-adv-x="645" 
d="M387 256q68 -5 118 -17t81 -39t31 -70q0 -49 -32.5 -82t-95 -50.5t-156.5 -17.5q-162 0 -299 42l28 122q108 -40 257 -40q25 0 44.5 4.5t19.5 14.5q0 7 -15 11.5t-64 8t-68 5.5q-63 6 -109 19.5t-73.5 39t-27.5 65.5q0 71 84 108t249 36q159 0 252 -22l-21 -118
q-89 13 -212 16q-74 0 -95.5 -4.5t-21.5 -12.5q0 -5 12 -9t56 -6.5t58 -3.5zM323 -57q61 0 94.5 -24t33.5 -68q0 -21 -12.5 -49.5t-43 -59t-70.5 -55.5l-71 43q38 29 60 62h-4q-36 0 -64.5 11t-39.5 28t-11 33q0 18 11 37t41.5 30.5t75.5 11.5z" />
    <glyph glyph-name="uni021A" unicode="&#x21a;" horiz-adv-x="783" 
d="M759 349h-270v-126q0 -74 65 -74q29 0 53 16l46 -134q-80 -51 -197 -51q-67 0 -112 19.5t-68 53t-23 82.5v214h-234v191h740v-191zM432 -57q61 0 94.5 -24t33.5 -68q0 -21 -12.5 -49.5t-43 -59t-70.5 -55.5l-71 43q38 29 60 62h-4q-36 0 -64.5 11t-39.5 28t-11 33
q0 18 11 37t41.5 30.5t75.5 11.5z" />
    <glyph glyph-name="uni021B" unicode="&#x21b;" horiz-adv-x="581" 
d="M561 35q-42 -26 -98 -40.5t-115 -14.5q-84 0 -138.5 26t-83 74t-28.5 121v47h-82v148h82v40l232 104v-144h213v-148h-213v-22q0 -36 24 -54t78 -18q48 0 85 16zM328 -57q61 0 94.5 -24t33.5 -68q0 -21 -12.5 -49.5t-43 -59t-70.5 -55.5l-71 43q38 29 60 62h-4
q-36 0 -64.5 11t-39.5 28t-11 33q0 18 11 37t41.5 30.5t75.5 11.5z" />
    <glyph glyph-name="circumflex" unicode="&#x2c6;" horiz-adv-x="456" 
d="M228 706l208 -154l-92 -109l-116 87l-116 -87l-92 109z" />
    <glyph glyph-name="caron" unicode="&#x2c7;" horiz-adv-x="456" 
d="M344 706l92 -109l-208 -154l-208 154l92 109l116 -87z" />
    <glyph glyph-name="breve" unicode="&#x2d8;" horiz-adv-x="468" 
d="M315 665l133 -43q-15 -76 -75 -120t-139 -44t-139 44t-75 120l133 43q4 -35 25.5 -58.5t55.5 -23.5t55.5 23.5t25.5 58.5z" />
    <glyph glyph-name="dotaccent" unicode="&#x2d9;" horiz-adv-x="312" 
d="M156 651q64 0 100 -21.5t36 -59.5t-36 -59.5t-100 -21.5t-100 21.5t-36 59.5t36 59.5t100 21.5z" />
    <glyph glyph-name="ring" unicode="&#x2da;" horiz-adv-x="352" 
d="M176 685q68 0 112 -31t44 -84q0 -34 -18.5 -60t-54.5 -41.5t-83 -15.5q-31 0 -68 10t-62.5 38t-25.5 69q0 53 44 84t112 31zM176 538q19 0 31 8.5t12 23.5q0 14 -12 22.5t-31 8.5t-31 -8.5t-12 -22.5q0 -11 9.5 -21.5t33.5 -10.5z" />
    <glyph glyph-name="ogonek" unicode="&#x2db;" horiz-adv-x="336" 
d="M233 53l27 -54q-40 -17 -62 -40.5t-22 -43.5q0 -28 44 -28q26 0 47 13l49 -83q-31 -21 -67 -31t-69 -10q-73 0 -116.5 28t-43.5 81t54.5 97.5t158.5 70.5z" />
    <glyph glyph-name="tilde" unicode="&#x2dc;" horiz-adv-x="562" 
d="M497 662l45 -117q-58 -70 -166 -70q-40 0 -99 19.5t-94 19.5q-34 0 -66 -13t-52 -36l-45 117q60 70 166 70q40 0 99 -19.5t94 -19.5q34 0 66 13t52 36z" />
    <glyph glyph-name="hungarumlaut" unicode="&#x2dd;" horiz-adv-x="658" 
d="M218 731l110 -128l-213 -155l-95 98zM528 731l110 -128l-213 -155l-95 98z" />
    <glyph glyph-name="uni0326" unicode="&#x326;" horiz-adv-x="0" 
d="M-148 -57q61 0 94.5 -24t33.5 -68q0 -21 -12.5 -49.5t-43 -59t-70.5 -55.5l-71 43q38 29 60 62h-4q-36 0 -64.5 11t-39.5 28t-11 33q0 18 11 37t41.5 30.5t75.5 11.5z" />
    <glyph glyph-name="Wgrave" unicode="&#x1e80;" horiz-adv-x="1137" 
d="M685 690l-95 -98l-213 155l110 128zM883 540h252l-253 -540h-164l-101 237l-27 76l-27 -76l-101 -237h-165l-148 324q-15 34 -29.5 50.5t-39.5 16.5q-31 0 -52 -21l-47 133q67 57 164 57q69 0 111 -29t66 -86l35 -85q13 -34 25 -80q17 56 27 80l78 180h206l78 -180
q8 -18 23 -67q13 48 20 67z" />
    <glyph glyph-name="wgrave" unicode="&#x1e81;" horiz-adv-x="1108" 
d="M703 546l-95 -98l-213 155l110 128zM855 396h235q0 -99 -36 -178.5t-95 -132t-128 -79t-134 -26.5q-73 0 -114 40t-41 122v3q0 13 3 22q-43 -83 -119 -135t-157 -52q-70 0 -110 40t-40 122v48q0 52 -41 52q-20 0 -38 -16l-51 135q34 25 80 40t99 15q183 0 183 -150v-30
q0 -14 6 -22.5t17 -8.5q24 0 59 50.5t69 140.5h212v-160q0 -31 27 -31q20 0 47.5 22t47 64t19.5 105z" />
    <glyph glyph-name="Wacute" unicode="&#x1e82;" horiz-adv-x="1137" 
d="M803 745l-213 -155l-95 98l198 185zM883 540h252l-253 -540h-164l-101 237l-27 76l-27 -76l-101 -237h-165l-148 324q-15 34 -29.5 50.5t-39.5 16.5q-31 0 -52 -21l-47 133q67 57 164 57q69 0 111 -29t66 -86l35 -85q13 -34 25 -80q17 56 27 80l78 180h206l78 -180
q8 -18 23 -67q13 48 20 67z" />
    <glyph glyph-name="wacute" unicode="&#x1e83;" horiz-adv-x="1108" 
d="M821 603l-213 -155l-95 98l198 185zM855 396h235q0 -99 -36 -178.5t-95 -132t-128 -79t-134 -26.5q-73 0 -114 40t-41 122v3q0 13 3 22q-43 -83 -119 -135t-157 -52q-70 0 -110 40t-40 122v48q0 52 -41 52q-20 0 -38 -16l-51 135q34 25 80 40t99 15q183 0 183 -150v-30
q0 -14 6 -22.5t17 -8.5q24 0 59 50.5t69 140.5h212v-160q0 -31 27 -31q20 0 47.5 22t47 64t19.5 105z" />
    <glyph glyph-name="Wdieresis" unicode="&#x1e84;" horiz-adv-x="1137" 
d="M445 617q-53 0 -84.5 22t-31.5 59t31.5 59t84.5 22t84.5 -22t31.5 -59t-31.5 -59t-84.5 -22zM735 617q-53 0 -84.5 22t-31.5 59t31.5 59t84.5 22t84.5 -22t31.5 -59t-31.5 -59t-84.5 -22zM883 540h252l-253 -540h-164l-101 237l-27 76l-27 -76l-101 -237h-165l-148 324
q-15 34 -29.5 50.5t-39.5 16.5q-31 0 -52 -21l-47 133q67 57 164 57q69 0 111 -29t66 -86l35 -85q13 -34 25 -80q17 56 27 80l78 180h206l78 -180q8 -18 23 -67q13 48 20 67z" />
    <glyph glyph-name="wdieresis" unicode="&#x1e85;" horiz-adv-x="1108" 
d="M463 489q-53 0 -84.5 22t-31.5 59t31.5 59t84.5 22t84.5 -22t31.5 -59t-31.5 -59t-84.5 -22zM753 489q-53 0 -84.5 22t-31.5 59t31.5 59t84.5 22t84.5 -22t31.5 -59t-31.5 -59t-84.5 -22zM855 396h235q0 -99 -36 -178.5t-95 -132t-128 -79t-134 -26.5q-73 0 -114 40
t-41 122v3q0 13 3 22q-43 -83 -119 -135t-157 -52q-70 0 -110 40t-40 122v48q0 52 -41 52q-20 0 -38 -16l-51 135q34 25 80 40t99 15q183 0 183 -150v-30q0 -14 6 -22.5t17 -8.5q24 0 59 50.5t69 140.5h212v-160q0 -31 27 -31q20 0 47.5 22t47 64t19.5 105z" />
    <glyph glyph-name="uni1E9E" unicode="&#x1e9e;" horiz-adv-x="1009" 
d="M691 363q0 -10 13.5 -17.5t63 -20t70.5 -21t38.5 -17.5t33 -23.5t27.5 -37t12 -56.5q0 -91 -71 -140.5t-202 -49.5q-69 0 -136 16.5t-121 48.5l58 144q46 -25 94.5 -37t89.5 -12q28 0 45.5 6.5t17.5 18.5q0 7 -11.5 13.5t-59 16.5t-69 16.5t-37.5 13.5t-31 18.5t-25 29.5
t-10 41q0 41 23 72l-21 -1h-16q-49 0 -85 -27t-36 -72v-286h-236v319q0 114 88.5 167.5t268.5 53.5h355v-152q-70 0 -100.5 -5.5t-30.5 -19.5z" />
    <glyph glyph-name="Ygrave" unicode="&#x1ef2;" horiz-adv-x="804" 
d="M512 690l-95 -98l-213 155l110 128zM836 540l-304 -337v-203h-236v192l-147 168q-27 31 -59 31q-31 0 -52 -21l-47 133q67 57 164 57q111 0 165 -63l43 -51q36 -42 55 -73q12 23 52 73l74 94h292z" />
    <glyph glyph-name="ygrave" unicode="&#x1ef3;" horiz-adv-x="797" 
d="M502 546l-95 -98l-213 155l110 128zM522 396h224v-321q0 -70 -22 -126.5t-67 -96.5t-115.5 -61t-163.5 -21q-149 0 -257 45l39 135q87 -28 179 -28q62 0 99.5 16t56.5 52.5t19 108.5v1q0 19 3 38q-37 -68 -102 -112.5t-137 -45.5q-74 -1 -116.5 39.5t-42.5 122.5v48
q0 52 -41 52q-20 0 -38 -16l-51 135q34 25 80 40t99 15q183 0 183 -150v-20q0 -14 7.5 -22.5t20.5 -8.5q37 0 74.5 49t68.5 132z" />
    <glyph glyph-name="uni1EF8" unicode="&#x1ef8;" horiz-adv-x="804" 
d="M319 650q-34 0 -66 -13t-52 -36l-45 117q60 70 166 70q40 0 99 -19.5t94 -19.5q34 0 66 13t52 36l45 -117q-58 -70 -166 -70q-40 0 -99 19.5t-94 19.5zM836 540l-304 -337v-203h-236v192l-147 168q-27 31 -59 31q-31 0 -52 -21l-47 133q67 57 164 57q111 0 165 -63
l43 -51q36 -42 55 -73q12 23 52 73l74 94h292z" />
    <glyph glyph-name="uni1EF9" unicode="&#x1ef9;" horiz-adv-x="797" 
d="M309 514q-34 0 -66 -13t-52 -36l-45 117q60 70 166 70q40 0 99 -19.5t94 -19.5q34 0 66 13t52 36l45 -117q-58 -70 -166 -70q-40 0 -99 19.5t-94 19.5zM522 396h224v-321q0 -70 -22 -126.5t-67 -96.5t-115.5 -61t-163.5 -21q-149 0 -257 45l39 135q87 -28 179 -28
q62 0 99.5 16t56.5 52.5t19 108.5v1q0 19 3 38q-37 -68 -102 -112.5t-137 -45.5q-74 -1 -116.5 39.5t-42.5 122.5v48q0 52 -41 52q-20 0 -38 -16l-51 135q34 25 80 40t99 15q183 0 183 -150v-20q0 -14 7.5 -22.5t20.5 -8.5q37 0 74.5 49t68.5 132z" />
    <glyph glyph-name="endash" unicode="&#x2013;" horiz-adv-x="612" 
d="M46 293h520v-154h-520v154z" />
    <glyph glyph-name="emdash" unicode="&#x2014;" horiz-adv-x="1112" 
d="M46 293h1020v-154h-1020v154z" />
    <glyph glyph-name="quoteleft" unicode="&#x2018;" horiz-adv-x="301" 
d="M195 500q39 -8 61.5 -30t22.5 -54q0 -19 -11.5 -40t-42.5 -34.5t-74 -13.5q-28 0 -58 10.5t-50 39.5t-20 68q0 32 12 71.5t41.5 79t67.5 71.5l111 -57q-43 -52 -60 -111z" />
    <glyph glyph-name="quoteright" unicode="&#x2019;" horiz-adv-x="298" 
d="M149 668q28 0 58 -10.5t50 -39.5t20 -68q0 -32 -12 -71.5t-41.5 -79t-67.5 -71.5l-111 57q43 52 60 111q-39 8 -61.5 30t-22.5 54q0 19 11.5 40t42.5 34.5t74 13.5z" />
    <glyph glyph-name="quotesinglbase" unicode="&#x201a;" horiz-adv-x="323" 
d="M160 155q28 0 58 -10.5t50 -39.5t20 -68q0 -32 -12 -71.5t-41.5 -79t-67.5 -71.5l-111 57q43 52 60 111q-39 8 -61.5 30t-22.5 54q0 19 11.5 40t42.5 34.5t74 13.5z" />
    <glyph glyph-name="quotedblleft" unicode="&#x201c;" horiz-adv-x="611" 
d="M195 500q39 -8 61.5 -30t22.5 -54q0 -19 -11.5 -40t-42.5 -34.5t-74 -13.5q-28 0 -58 10.5t-50 39.5t-20 68q0 32 12 71.5t41.5 79t67.5 71.5l111 -57q-43 -52 -60 -111zM505 500q39 -8 61.5 -30t22.5 -54q0 -19 -11.5 -40t-42.5 -34.5t-74 -13.5q-28 0 -58 10.5
t-50 39.5t-20 68q0 32 12 71.5t41.5 79t67.5 71.5l111 -57q-43 -52 -60 -111z" />
    <glyph glyph-name="quotedblright" unicode="&#x201d;" horiz-adv-x="608" 
d="M149 668q28 0 58 -10.5t50 -39.5t20 -68q0 -32 -12 -71.5t-41.5 -79t-67.5 -71.5l-111 57q43 52 60 111q-39 8 -61.5 30t-22.5 54q0 19 11.5 40t42.5 34.5t74 13.5zM459 668q28 0 58 -10.5t50 -39.5t20 -68q0 -32 -12 -71.5t-41.5 -79t-67.5 -71.5l-111 57q43 52 60 111
q-39 8 -61.5 30t-22.5 54q0 19 11.5 40t42.5 34.5t74 13.5z" />
    <glyph glyph-name="quotedblbase" unicode="&#x201e;" horiz-adv-x="633" 
d="M160 155q28 0 58 -10.5t50 -39.5t20 -68q0 -32 -12 -71.5t-41.5 -79t-67.5 -71.5l-111 57q43 52 60 111q-39 8 -61.5 30t-22.5 54q0 19 11.5 40t42.5 34.5t74 13.5zM470 155q28 0 58 -10.5t50 -39.5t20 -68q0 -32 -12 -71.5t-41.5 -79t-67.5 -71.5l-111 57q43 52 60 111
q-39 8 -61.5 30t-22.5 54q0 19 11.5 40t42.5 34.5t74 13.5z" />
    <glyph glyph-name="dagger" unicode="&#x2020;" horiz-adv-x="730" 
d="M697 366v-193q-116 0 -210 6v-8q0 -80 -3 -154t-7 -145.5t-5 -81.5h-214q-1 10 -5 81.5t-7 145.5t-3 154v8q-94 -6 -210 -6v193h210v174h244v-174h210z" />
    <glyph glyph-name="daggerdbl" unicode="&#x2021;" horiz-adv-x="730" 
d="M487 179v-8l-1 -97q78 5 167 5v-159h-173l-8 -130h-214l-8 130h-173v159q90 0 167 -5l-1 97v8q-94 -6 -210 -6v193h210v174h244v-174h210v-193q-116 0 -210 6z" />
    <glyph glyph-name="bullet" unicode="&#x2022;" horiz-adv-x="510" 
d="M255 135q-92 0 -147.5 42.5t-55.5 116.5t55.5 116.5t147.5 42.5t147.5 -42.5t55.5 -116.5t-55.5 -116.5t-147.5 -42.5z" />
    <glyph glyph-name="ellipsis" unicode="&#x2026;" horiz-adv-x="956" 
d="M160 -21q-28 0 -58 8t-50 29.5t-20 50.5q0 19 11.5 40t42.5 34.5t74 13.5q28 0 58 -8t50 -29.5t20 -50.5q0 -19 -11.5 -40t-42.5 -34.5t-74 -13.5zM477 -21q-28 0 -58 8t-50 29.5t-20 50.5q0 19 11.5 40t42.5 34.5t74 13.5q28 0 58 -8t50 -29.5t20 -50.5q0 -19 -11.5 -40
t-42.5 -34.5t-74 -13.5zM796 -21q-28 0 -58 8t-50 29.5t-20 50.5q0 19 11.5 40t42.5 34.5t74 13.5q28 0 58 -8t50 -29.5t20 -50.5q0 -19 -11.5 -40t-42.5 -34.5t-74 -13.5z" />
    <glyph glyph-name="perthousand" unicode="&#x2030;" horiz-adv-x="1204" 
d="M190 281q-29 0 -58.5 9t-51.5 28t-34.5 46t-12.5 59t12.5 59t34.5 46t51.5 28t58.5 9t58.5 -9t51.5 -28t34.5 -46t12.5 -59t-12.5 -59t-34.5 -46t-51.5 -28t-58.5 -9zM753 560l-475 -560h-195l477 560h193zM190 373q17 0 29.5 14.5t12.5 35.5t-12.5 35.5t-29.5 14.5
t-29.5 -14.5t-12.5 -35.5t12.5 -35.5t29.5 -14.5zM660 -5q-29 0 -58.5 9t-51.5 28t-34.5 46t-12.5 59t12.5 59t34.5 46t51.5 28t58.5 9t58.5 -9t51.5 -28t34.5 -46t12.5 -59t-12.5 -59t-34.5 -46t-51.5 -28t-58.5 -9zM1020 -5q-29 0 -58.5 9t-51.5 28t-34.5 46t-12.5 59
t12.5 59t34.5 46t51.5 28t58.5 9t58.5 -9t51.5 -28t34.5 -46t12.5 -59t-12.5 -59t-34.5 -46t-51.5 -28t-58.5 -9zM660 87q17 0 29.5 14.5t12.5 35.5t-12.5 35.5t-29.5 14.5t-29.5 -14.5t-12.5 -35.5t12.5 -35.5t29.5 -14.5zM1020 87q17 0 29.5 14.5t12.5 35.5t-12.5 35.5
t-29.5 14.5t-29.5 -14.5t-12.5 -35.5t12.5 -35.5t29.5 -14.5z" />
    <glyph glyph-name="guilsinglleft" unicode="&#x2039;" horiz-adv-x="389" 
d="M237 268q69 -35 119 -89l-93 -129q-20 26 -53 58t-81.5 61.5t-99.5 48.5v130q33 12 75.5 34.5t85.5 58t73 75.5l93 -129q-50 -54 -119 -89l-32 -15z" />
    <glyph glyph-name="guilsinglright" unicode="&#x203a;" horiz-adv-x="390" 
d="M126 516q20 -26 53 -58t81.5 -61.5t99.5 -48.5v-130q-33 -12 -75.5 -34.5t-85.5 -58t-73 -75.5l-93 129q50 54 119 89l32 15l-32 15q-69 35 -119 89z" />
    <glyph glyph-name="fraction" unicode="&#x2044;" horiz-adv-x="658" 
d="M668 560l-475 -560h-195l477 560h193z" />
    <glyph glyph-name="Euro" unicode="&#x20ac;" horiz-adv-x="744" 
d="M668 206l55 -154q-113 -72 -293 -72q-63 0 -121 14t-104.5 41t-79 66.5t-44.5 87.5h-81v50h73v13v13h-73v50h80q12 49 44 88t81 66t113.5 40.5t138.5 13.5q160 0 256 -34l-47 -162q-83 16 -181 16q-96 0 -145 -28h185v-50h-226l-1 -14l1 -12h226v-50h-190q44 -29 132 -29
q123 0 201 46z" />
    <glyph glyph-name="trademark" unicode="&#x2122;" horiz-adv-x="1184" 
d="M497 540v-131h-166v-76q0 -22 10 -34.5t28 -12.5q21 0 36 12l29 -85q-52 -33 -128 -33q-59 0 -96 25t-37 73v131h-142v131h466zM1122 298l29 -84q-49 -34 -119 -34q-54 0 -87.5 24.5t-33.5 71.5v27q0 31 8 69l-99 -118l-100 123q8 -40 8 -75v-109h-157v230h-46v117h101
q73 -1 115.5 -18t68.5 -53l19 -25l91 96h149v-215q0 -39 26 -39q13 0 27 12z" />
    <glyph glyph-name="minus" unicode="&#x2212;" horiz-adv-x="600" 
d="M49 192v156h502v-156h-502z" />
    <glyph glyph-name="approxequal" unicode="&#x2248;" horiz-adv-x="634" 
d="M189 363q-32 0 -59 -10.5t-41 -28.5l-45 127q51 53 157 53q7 0 25.5 -1t41.5 -6t82.5 -24.5t94.5 -19.5q32 0 59 10.5t41 28.5l45 -127q-51 -53 -157 -53q-7 0 -25.5 1t-41.5 6t-82.5 24.5t-94.5 19.5zM445 185q32 0 59 10.5t41 28.5l45 -127q-51 -53 -157 -53
q-7 0 -25.5 1t-41.5 6t-82.5 24.5t-94.5 19.5q-32 0 -59 -10.5t-41 -28.5l-45 127q51 53 157 53q7 0 25.5 -1t41.5 -6t82.5 -24.5t94.5 -19.5z" />
    <glyph glyph-name="notequal" unicode="&#x2260;" horiz-adv-x="640" 
d="M571 335h-148l-33 -122h181v-156h-224l-23 -84h-175l23 84h-103v156h146l34 122h-180v156h223l22 79h173l-22 -79h106v-156z" />
    <glyph glyph-name="uniF6BE" unicode="&#xf6be;" horiz-adv-x="344" 
d="M60 396h232v-409q0 -53 -22 -94t-63.5 -68.5t-100 -41t-129.5 -13.5l-31 141q51 0 82 22t32 64v399z" />
    <glyph glyph-name="uniF8FF" unicode="&#xf8ff;" horiz-adv-x="1451" 
d="M691 583q0 26 18 44t43 18q26 0 44 -18t18 -44q0 -25 -18 -43t-44 -18q-25 0 -43 18t-18 43zM219 270h-119q0 134 9 314h100q0 -4 2 -34.5t3 -62t3 -88t2 -129.5zM694 270q0 92 3 147h-61l3 -65q4 -4 15 -4q13 0 18 5v-74q-14 -15 -68 -15q-40 0 -61 17t-21 49l4 87h-22
v79l119 30l1 -17h178q10 -64 10 -239h-118zM328 265q-43 0 -67.5 29t-24.5 85q0 65 33.5 100t100.5 35q64 0 94 -31.5t30 -85.5v-127h-83l-8 61q-6 -32 -23.5 -49t-51.5 -17zM1090 270h-114l2 93q0 6 -1.5 17.5t-13.5 11.5q-8 0 -13 -5.5t-5 -23.5q0 -7 1.5 -37t1.5 -56
h-114q0 175 10 239h80q6 -44 6 -76q4 37 26 59t54 22q21 0 39.5 -8.5t27.5 -32.5t10 -65zM1351 391q0 -61 -30.5 -93.5t-92.5 -32.5q-63 0 -92.5 33.5t-29.5 90.5q0 37 13 65.5t40.5 44t70.5 15.5q121 0 121 -123zM390 375q0 26 -24 26q-22 0 -22 -26q0 -14 6 -22t16 -8
q11 0 17.5 8.5t6.5 21.5zM1251 375q0 26 -23 26q-21 0 -21 -26q0 -14 5.5 -22t15.5 -8t16.5 8.5t6.5 21.5zM428 238h104q3 -18 6.5 -60t3.5 -78q0 -81 -34 -115.5t-118 -34.5q-61 0 -88 17v83q24 -16 70 -16q29 0 41.5 10t12.5 18q-16 -11 -49 -11q-90 0 -90 83v13h-55
l3 -65q6 -4 15 -4q13 0 18 5v-73q-19 -15 -68 -15q-44 0 -62.5 17.5t-18.5 53.5l3 81h-18v80l117 29l-1 -18h177v-119q0 -15 3.5 -21t11.5 -6q16 0 16 27v119zM733 243q37 0 58.5 -29.5t21.5 -83.5q0 -135 -137 -135l1 -39h-119q0 142 10 282h78q2 -11 4.5 -38t2.5 -38
q8 38 28.5 59.5t51.5 21.5zM1070 127q0 -21 -3 -35h-124q4 -6 16 -12t34 -6q34 0 55 12v-75q-23 -16 -78 -16q-70 0 -105.5 31t-35.5 91q0 27 10.5 56.5t39.5 49.5t75 20q54 0 85 -30.5t31 -85.5zM978 109q1 13 -3.5 20t-13.5 7q-10 0 -16.5 -7.5t-6.5 -19.5h40zM670 72
q15 0 26 11t11 26q0 11 -5.5 17t-14.5 6q-22 0 -22 -31q0 -14 5 -29zM1074 13q0 -10 7 -16.5t17 -6.5t17 6.5t7 16.5t-7 16.5t-17 6.5t-17 -6.5t-7 -16.5zM1080 13q0 8 5 13t13 5t13 -5t5 -13t-5 -13t-13 -5t-13 5t-5 13zM1108 2l-6 9q2 0 4.5 2t2.5 5q0 7 -10 7h-11v-23h5
v9h5l4 -9h6zM1100 15h-7v6h7q3 0 4 -3q-1 -3 -4 -3z" />
    <glyph glyph-name="A.salt" horiz-adv-x="852" 
d="M821 165l47 -133q-76 -52 -183 -52q-73 0 -121 30t-59 90h-211v-100h-236v270q0 71 25 126t71 91.5t108.5 54.5t135.5 18t135.5 -18t108.5 -54.5t71 -91.5t25 -126v-59q0 -62 45 -62q20 0 38 16zM294 270v-8h208v8q0 40 -28 66.5t-76 26.5t-76 -26.5t-28 -66.5z" />
    <glyph glyph-name="Aacute.aalt" horiz-adv-x="852" 
d="M611 745l-213 -155l-95 98l198 185zM821 165l47 -133q-76 -52 -183 -52q-73 0 -121 30t-59 90h-211v-100h-236v270q0 71 25 126t71 91.5t108.5 54.5t135.5 18t135.5 -18t108.5 -54.5t71 -91.5t25 -126v-59q0 -62 45 -62q20 0 38 16zM294 270v-8h208v8q0 40 -28 66.5
t-76 26.5t-76 -26.5t-28 -66.5z" />
    <glyph glyph-name="Abreve.aalt" horiz-adv-x="852" 
d="M398 602q-79 0 -139 44t-75 120l133 43q4 -35 25.5 -58.5t55.5 -23.5t55.5 23.5t25.5 58.5l133 -43q-15 -76 -75 -120t-139 -44zM821 165l47 -133q-76 -52 -183 -52q-73 0 -121 30t-59 90h-211v-100h-236v270q0 71 25 126t71 91.5t108.5 54.5t135.5 18t135.5 -18
t108.5 -54.5t71 -91.5t25 -126v-59q0 -62 45 -62q20 0 38 16zM294 270v-8h208v8q0 40 -28 66.5t-76 26.5t-76 -26.5t-28 -66.5z" />
    <glyph glyph-name="Acircumflex.aalt" horiz-adv-x="852" 
d="M398 679l-116 -87l-92 109l208 154l208 -154l-92 -109zM821 165l47 -133q-76 -52 -183 -52q-73 0 -121 30t-59 90h-211v-100h-236v270q0 71 25 126t71 91.5t108.5 54.5t135.5 18t135.5 -18t108.5 -54.5t71 -91.5t25 -126v-59q0 -62 45 -62q20 0 38 16zM294 270v-8h208v8
q0 40 -28 66.5t-76 26.5t-76 -26.5t-28 -66.5z" />
    <glyph glyph-name="Adieresis.aalt" horiz-adv-x="852" 
d="M253 617q-53 0 -84.5 22t-31.5 59t31.5 59t84.5 22t84.5 -22t31.5 -59t-31.5 -59t-84.5 -22zM543 617q-53 0 -84.5 22t-31.5 59t31.5 59t84.5 22t84.5 -22t31.5 -59t-31.5 -59t-84.5 -22zM821 165l47 -133q-76 -52 -183 -52q-73 0 -121 30t-59 90h-211v-100h-236v270
q0 71 25 126t71 91.5t108.5 54.5t135.5 18t135.5 -18t108.5 -54.5t71 -91.5t25 -126v-59q0 -62 45 -62q20 0 38 16zM294 270v-8h208v8q0 40 -28 66.5t-76 26.5t-76 -26.5t-28 -66.5z" />
    <glyph glyph-name="Agrave.aalt" horiz-adv-x="852" 
d="M493 690l-95 -98l-213 155l110 128zM821 165l47 -133q-76 -52 -183 -52q-73 0 -121 30t-59 90h-211v-100h-236v270q0 71 25 126t71 91.5t108.5 54.5t135.5 18t135.5 -18t108.5 -54.5t71 -91.5t25 -126v-59q0 -62 45 -62q20 0 38 16zM294 270v-8h208v8q0 40 -28 66.5
t-76 26.5t-76 -26.5t-28 -66.5z" />
    <glyph glyph-name="Amacron.aalt" horiz-adv-x="852" 
d="M581 749v-132h-366v132h366zM821 165l47 -133q-76 -52 -183 -52q-73 0 -121 30t-59 90h-211v-100h-236v270q0 71 25 126t71 91.5t108.5 54.5t135.5 18t135.5 -18t108.5 -54.5t71 -91.5t25 -126v-59q0 -62 45 -62q20 0 38 16zM294 270v-8h208v8q0 40 -28 66.5t-76 26.5
t-76 -26.5t-28 -66.5z" />
    <glyph glyph-name="Aogonek.aalt" horiz-adv-x="852" 
d="M764 -113q26 0 47 13l49 -83q-31 -21 -67 -31t-69 -10q-73 0 -116.5 28t-43.5 81q0 27 15 53t44 48q-48 11 -79 39.5t-39 74.5h-211v-100h-236v270q0 71 25 126t71 91.5t108.5 54.5t135.5 18t135.5 -18t108.5 -54.5t71 -91.5t25 -126v-59q0 -62 45 -62q20 0 38 16
l47 -133q-31 -22 -67 -34q-39 -17 -60 -40t-21 -43q0 -28 44 -28zM294 270v-8h208v8q0 40 -28 66.5t-76 26.5t-76 -26.5t-28 -66.5z" />
    <glyph glyph-name="Aring.aalt" horiz-adv-x="852" 
d="M398 600q-31 0 -68 10t-62.5 38t-25.5 69q0 53 44 84t112 31t112 -31t44 -84q0 -34 -18.5 -60t-54.5 -41.5t-83 -15.5zM398 748q-19 0 -31 -8.5t-12 -22.5q0 -11 9.5 -21.5t33.5 -10.5q19 0 31 8.5t12 23.5q0 14 -12 22.5t-31 8.5zM821 165l47 -133q-76 -52 -183 -52
q-73 0 -121 30t-59 90h-211v-100h-236v270q0 71 25 126t71 91.5t108.5 54.5t135.5 18t135.5 -18t108.5 -54.5t71 -91.5t25 -126v-59q0 -62 45 -62q20 0 38 16zM294 270v-8h208v8q0 40 -28 66.5t-76 26.5t-76 -26.5t-28 -66.5z" />
    <glyph glyph-name="Atilde.aalt" horiz-adv-x="852" 
d="M300 650q-34 0 -66 -13t-52 -36l-45 117q60 70 166 70q40 0 99 -19.5t94 -19.5q34 0 66 13t52 36l45 -117q-58 -70 -166 -70q-40 0 -99 19.5t-94 19.5zM821 165l47 -133q-76 -52 -183 -52q-73 0 -121 30t-59 90h-211v-100h-236v270q0 71 25 126t71 91.5t108.5 54.5
t135.5 18t135.5 -18t108.5 -54.5t71 -91.5t25 -126v-59q0 -62 45 -62q20 0 38 16zM294 270v-8h208v8q0 40 -28 66.5t-76 26.5t-76 -26.5t-28 -66.5z" />
    <glyph glyph-name="AE.aalt" horiz-adv-x="1158" 
d="M1097 175l39 -154q-65 -19 -148 -30t-169 -11q-158 0 -248.5 27.5t-117.5 82.5h-159v-90h-236v270q0 71 25 126t69 91.5t104 54.5t129 18q92 0 159 -38q89 38 254 38q194 0 322 -35l-40 -157q-89 28 -231 28q-137 0 -137 -36q0 -23 47 -23h294l6 -129h-304q-53 0 -53 -26
q0 -18 33 -25.5t125 -7.5q156 0 237 26zM294 270v-8h228q24 10 48 17q-87 26 -109 80q-19 4 -43 4q-57 0 -90.5 -26.5t-33.5 -66.5z" />
    <glyph glyph-name="AEacute.aalt" horiz-adv-x="1158" 
d="M788 745l-213 -155l-95 98l198 185zM1097 175l39 -154q-65 -19 -148 -30t-169 -11q-158 0 -248.5 27.5t-117.5 82.5h-159v-90h-236v270q0 71 25 126t69 91.5t104 54.5t129 18q92 0 159 -38q89 38 254 38q194 0 322 -35l-40 -157q-89 28 -231 28q-137 0 -137 -36
q0 -23 47 -23h294l6 -129h-304q-53 0 -53 -26q0 -18 33 -25.5t125 -7.5q156 0 237 26zM294 270v-8h228q24 10 48 17q-87 26 -109 80q-19 4 -43 4q-57 0 -90.5 -26.5t-33.5 -66.5z" />
    <glyph glyph-name="E.aalt" horiz-adv-x="750" 
d="M689 175l39 -154q-65 -19 -148 -30t-169 -11q-192 0 -284.5 40.5t-92.5 122.5q0 48 29.5 83t98.5 53q-118 34 -118 127q0 72 85 113t261 41q194 0 322 -35l-40 -157q-89 28 -231 28q-137 0 -137 -36q0 -23 47 -23h294l6 -129h-304q-53 0 -53 -26q0 -18 33 -25.5t125 -7.5
q156 0 237 26z" />
    <glyph glyph-name="Eacute.aalt" horiz-adv-x="750" 
d="M603 745l-213 -155l-95 98l198 185zM689 175l39 -154q-65 -19 -148 -30t-169 -11q-192 0 -284.5 40.5t-92.5 122.5q0 48 29.5 83t98.5 53q-118 34 -118 127q0 72 85 113t261 41q194 0 322 -35l-40 -157q-89 28 -231 28q-137 0 -137 -36q0 -23 47 -23h294l6 -129h-304
q-53 0 -53 -26q0 -18 33 -25.5t125 -7.5q156 0 237 26z" />
    <glyph glyph-name="Ecaron.aalt" horiz-adv-x="750" 
d="M598 746l-208 -154l-208 154l92 109l116 -87l116 87zM689 175l39 -154q-65 -19 -148 -30t-169 -11q-192 0 -284.5 40.5t-92.5 122.5q0 48 29.5 83t98.5 53q-118 34 -118 127q0 72 85 113t261 41q194 0 322 -35l-40 -157q-89 28 -231 28q-137 0 -137 -36q0 -23 47 -23h294
l6 -129h-304q-53 0 -53 -26q0 -18 33 -25.5t125 -7.5q156 0 237 26z" />
    <glyph glyph-name="Ecircumflex.aalt" horiz-adv-x="750" 
d="M390 679l-116 -87l-92 109l208 154l208 -154l-92 -109zM689 175l39 -154q-65 -19 -148 -30t-169 -11q-192 0 -284.5 40.5t-92.5 122.5q0 48 29.5 83t98.5 53q-118 34 -118 127q0 72 85 113t261 41q194 0 322 -35l-40 -157q-89 28 -231 28q-137 0 -137 -36q0 -23 47 -23
h294l6 -129h-304q-53 0 -53 -26q0 -18 33 -25.5t125 -7.5q156 0 237 26z" />
    <glyph glyph-name="Edieresis.aalt" horiz-adv-x="750" 
d="M245 617q-53 0 -84.5 22t-31.5 59t31.5 59t84.5 22t84.5 -22t31.5 -59t-31.5 -59t-84.5 -22zM535 617q-53 0 -84.5 22t-31.5 59t31.5 59t84.5 22t84.5 -22t31.5 -59t-31.5 -59t-84.5 -22zM689 175l39 -154q-65 -19 -148 -30t-169 -11q-192 0 -284.5 40.5t-92.5 122.5
q0 48 29.5 83t98.5 53q-118 34 -118 127q0 72 85 113t261 41q194 0 322 -35l-40 -157q-89 28 -231 28q-137 0 -137 -36q0 -23 47 -23h294l6 -129h-304q-53 0 -53 -26q0 -18 33 -25.5t125 -7.5q156 0 237 26z" />
    <glyph glyph-name="Edotaccent.aalt" horiz-adv-x="750" 
d="M390 617q-64 0 -100 21.5t-36 59.5t36 59.5t100 21.5t100 -21.5t36 -59.5t-36 -59.5t-100 -21.5zM689 175l39 -154q-65 -19 -148 -30t-169 -11q-192 0 -284.5 40.5t-92.5 122.5q0 48 29.5 83t98.5 53q-118 34 -118 127q0 72 85 113t261 41q194 0 322 -35l-40 -157
q-89 28 -231 28q-137 0 -137 -36q0 -23 47 -23h294l6 -129h-304q-53 0 -53 -26q0 -18 33 -25.5t125 -7.5q156 0 237 26z" />
    <glyph glyph-name="Egrave.aalt" horiz-adv-x="750" 
d="M485 690l-95 -98l-213 155l110 128zM689 175l39 -154q-65 -19 -148 -30t-169 -11q-192 0 -284.5 40.5t-92.5 122.5q0 48 29.5 83t98.5 53q-118 34 -118 127q0 72 85 113t261 41q194 0 322 -35l-40 -157q-89 28 -231 28q-137 0 -137 -36q0 -23 47 -23h294l6 -129h-304
q-53 0 -53 -26q0 -18 33 -25.5t125 -7.5q156 0 237 26z" />
    <glyph glyph-name="Emacron.aalt" horiz-adv-x="750" 
d="M573 749v-132h-366v132h366zM689 175l39 -154q-65 -19 -148 -30t-169 -11q-192 0 -284.5 40.5t-92.5 122.5q0 48 29.5 83t98.5 53q-118 34 -118 127q0 72 85 113t261 41q194 0 322 -35l-40 -157q-89 28 -231 28q-137 0 -137 -36q0 -23 47 -23h294l6 -129h-304
q-53 0 -53 -26q0 -18 33 -25.5t125 -7.5q156 0 237 26z" />
    <glyph glyph-name="Eogonek.aalt" horiz-adv-x="750" 
d="M735 -78l49 -83q-31 -21 -67 -31t-69 -10q-73 0 -116.5 28t-43.5 81q0 19 9 39.5t24 38.5q-60 -5 -110 -5q-192 0 -284.5 40.5t-92.5 122.5q0 48 29.5 83t98.5 53q-118 34 -118 127q0 72 85 113t261 41q194 0 322 -35l-40 -157q-89 28 -231 28q-137 0 -137 -36
q0 -23 47 -23h294l6 -129h-304q-53 0 -53 -26q0 -18 33 -25.5t125 -7.5q156 0 237 26l39 -154q-40 -17 -62 -40.5t-22 -43.5q0 -28 44 -28q26 0 47 13z" />
    <glyph glyph-name="H.aalt" horiz-adv-x="953" 
d="M913 165l47 -133q-76 -52 -183 -52q-82 0 -132.5 38.5t-50.5 114.5v46h-240v-179h-236v309q0 61 -45 61h-49v170h157q47 0 88.5 -16t63 -52.5t21.5 -84.5v-17h240v170h236v-329q0 -62 45 -62q20 0 38 16z" />
    <glyph glyph-name="IJ.aalt" horiz-adv-x="934" 
d="M71 0v540h236v-540h-236zM635 540h236v-334q0 -75 -28 -124t-83 -75.5t-143 -26.5q-143 0 -243 58l47 133q51 -22 118 -22q45 0 70.5 23.5t25.5 65.5v302z" />
    <glyph glyph-name="J.aalt" horiz-adv-x="556" 
d="M257 540h236v-334q0 -75 -28 -124t-83 -75.5t-143 -26.5q-143 0 -243 58l47 133q51 -22 118 -22q45 0 70.5 23.5t25.5 65.5v302z" />
    <glyph glyph-name="M.aalt" horiz-adv-x="1337" 
d="M1313 165l47 -133q-76 -52 -183 -52q-82 0 -132.5 38.5t-50.5 114.5v117q0 45 -21 69t-55 24q-40 0 -67.5 -35.5t-43 -103t-15.5 -164.5v-40h-236v250q0 45 -21 69t-55 24q-40 0 -67.5 -35.5t-43 -103t-15.5 -164.5v-40h-236v309q0 61 -45 61h-49v170h157
q50 0 86.5 -15.5t57.5 -41.5t27 -64q19 38 49.5 71.5t77 51.5t96.5 18q79 0 134 -39t74 -115q24 53 58 87t77.5 50.5t94.5 16.5q46 0 86 -14.5t69.5 -43t45.5 -72.5t16 -100v-119q0 -62 45 -62q20 0 38 16z" />
    <glyph glyph-name="N.aalt" horiz-adv-x="919" 
d="M895 165l47 -133q-76 -52 -183 -52q-82 0 -132.5 38.5t-50.5 114.5v117q0 45 -21 69t-55 24q-46 0 -78 -35.5t-50 -103t-18 -164.5v-40h-236v309q0 61 -45 61h-49v170h157q71 0 117 -31.5t54 -94.5q25 50 61.5 82t82.5 48t99 16q46 0 86 -14.5t69.5 -43t45.5 -72.5
t16 -100v-119q0 -62 45 -62q20 0 38 16z" />
    <glyph glyph-name="Nacute.aalt" horiz-adv-x="919" 
d="M757 745l-213 -155l-95 98l198 185zM895 165l47 -133q-76 -52 -183 -52q-82 0 -132.5 38.5t-50.5 114.5v117q0 45 -21 69t-55 24q-46 0 -78 -35.5t-50 -103t-18 -164.5v-40h-236v309q0 61 -45 61h-49v170h157q71 0 117 -31.5t54 -94.5q25 50 61.5 82t82.5 48t99 16
q46 0 86 -14.5t69.5 -43t45.5 -72.5t16 -100v-119q0 -62 45 -62q20 0 38 16z" />
    <glyph glyph-name="Ncaron.aalt" horiz-adv-x="919" 
d="M752 746l-208 -154l-208 154l92 109l116 -87l116 87zM895 165l47 -133q-76 -52 -183 -52q-82 0 -132.5 38.5t-50.5 114.5v117q0 45 -21 69t-55 24q-46 0 -78 -35.5t-50 -103t-18 -164.5v-40h-236v309q0 61 -45 61h-49v170h157q71 0 117 -31.5t54 -94.5q25 50 61.5 82
t82.5 48t99 16q46 0 86 -14.5t69.5 -43t45.5 -72.5t16 -100v-119q0 -62 45 -62q20 0 38 16z" />
    <glyph glyph-name="Ncommaaccent.aalt" horiz-adv-x="919" 
d="M895 165l47 -133q-76 -52 -183 -52q-82 0 -132.5 38.5t-50.5 114.5v117q0 45 -21 69t-55 24q-46 0 -78 -35.5t-50 -103t-18 -164.5v-40h-236v309q0 61 -45 61h-49v170h157q71 0 117 -31.5t54 -94.5q25 50 61.5 82t82.5 48t99 16q46 0 86 -14.5t69.5 -43t45.5 -72.5
t16 -100v-119q0 -62 45 -62q20 0 38 16zM479 -57q61 0 94.5 -24t33.5 -68q0 -21 -12.5 -49.5t-43 -59t-70.5 -55.5l-71 43q38 29 60 62h-4q-36 0 -64.5 11t-39.5 28t-11 33q0 18 11 37t41.5 30.5t75.5 11.5z" />
    <glyph glyph-name="Eng.aalt" horiz-adv-x="886" 
d="M600 560q47 0 88 -14.5t71 -43t46.5 -72.5t16.5 -100v-349q0 -40 -18 -78.5t-61 -68t-112 -47t-166 -17.5l-29 133q59 0 104 25t46 73v249q0 45 -22 69t-59 24q-48 0 -81 -35.5t-51.5 -103t-18.5 -164.5v-40h-236v309q0 61 -45 61h-49v170h157q71 0 117 -32t54 -95
q26 50 63 82.5t84 48.5t101 16z" />
    <glyph glyph-name="Ntilde.aalt" horiz-adv-x="919" 
d="M446 650q-34 0 -66 -13t-52 -36l-45 117q60 70 166 70q40 0 99 -19.5t94 -19.5q34 0 66 13t52 36l45 -117q-58 -70 -166 -70q-40 0 -99 19.5t-94 19.5zM895 165l47 -133q-76 -52 -183 -52q-82 0 -132.5 38.5t-50.5 114.5v117q0 45 -21 69t-55 24q-46 0 -78 -35.5
t-50 -103t-18 -164.5v-40h-236v309q0 61 -45 61h-49v170h157q71 0 117 -31.5t54 -94.5q25 50 61.5 82t82.5 48t99 16q46 0 86 -14.5t69.5 -43t45.5 -72.5t16 -100v-119q0 -62 45 -62q20 0 38 16z" />
    <glyph glyph-name="Q.salt" horiz-adv-x="826" 
d="M641 -41q38 0 62 21l47 -133q-62 -57 -153 -57q-84 0 -166 56.5t-127 143.5q-59 11 -110 35t-88.5 60t-58 83t-20.5 102q0 50 17.5 94t49 78.5t75 59t105 41.5t139.5 17t139.5 -17t105 -41.5t75 -59t49 -78.5t17.5 -94q0 -65 -28 -118t-83.5 -94t-138.5 -62
q22 -17 46.5 -27t45.5 -10zM413 373q-28 0 -61.5 -10t-57 -35.5t-23.5 -57.5t23.5 -57.5t57 -35.5t61.5 -10t61.5 10t57 35.5t23.5 57.5t-23.5 57.5t-57 35.5t-61.5 10z" />
    <glyph glyph-name="U.salt" horiz-adv-x="926" 
d="M886 165l47 -133q-76 -52 -183 -52q-73 0 -121 30t-59 90q-42 -63 -103 -91.5t-130 -28.5q-105 0 -167.5 59t-62.5 171v99q0 61 -45 61h-49v170h157q47 0 88.5 -16t63 -52.5t21.5 -84.5v-123q0 -45 21.5 -69t57.5 -24q50 0 81.5 34t47.5 103.5t16 191.5v40h236v-329
q0 -62 45 -62q20 0 38 16z" />
    <glyph glyph-name="Uacute.salt" horiz-adv-x="926" 
d="M661 745l-213 -155l-95 98l198 185zM886 165l47 -133q-76 -52 -183 -52q-73 0 -121 30t-59 90q-42 -63 -103 -91.5t-130 -28.5q-105 0 -167.5 59t-62.5 171v99q0 61 -45 61h-49v170h157q47 0 88.5 -16t63 -52.5t21.5 -84.5v-123q0 -45 21.5 -69t57.5 -24q50 0 81.5 34
t47.5 103.5t16 191.5v40h236v-329q0 -62 45 -62q20 0 38 16z" />
    <glyph glyph-name="Ucircumflex.salt" horiz-adv-x="926" 
d="M448 679l-116 -87l-92 109l208 154l208 -154l-92 -109zM886 165l47 -133q-76 -52 -183 -52q-73 0 -121 30t-59 90q-42 -63 -103 -91.5t-130 -28.5q-105 0 -167.5 59t-62.5 171v99q0 61 -45 61h-49v170h157q47 0 88.5 -16t63 -52.5t21.5 -84.5v-123q0 -45 21.5 -69
t57.5 -24q50 0 81.5 34t47.5 103.5t16 191.5v40h236v-329q0 -62 45 -62q20 0 38 16z" />
    <glyph glyph-name="Udieresis.salt" horiz-adv-x="926" 
d="M303 617q-53 0 -84.5 22t-31.5 59t31.5 59t84.5 22t84.5 -22t31.5 -59t-31.5 -59t-84.5 -22zM593 617q-53 0 -84.5 22t-31.5 59t31.5 59t84.5 22t84.5 -22t31.5 -59t-31.5 -59t-84.5 -22zM886 165l47 -133q-76 -52 -183 -52q-73 0 -121 30t-59 90q-42 -63 -103 -91.5
t-130 -28.5q-105 0 -167.5 59t-62.5 171v99q0 61 -45 61h-49v170h157q47 0 88.5 -16t63 -52.5t21.5 -84.5v-123q0 -45 21.5 -69t57.5 -24q50 0 81.5 34t47.5 103.5t16 191.5v40h236v-329q0 -62 45 -62q20 0 38 16z" />
    <glyph glyph-name="Ugrave.salt" horiz-adv-x="926" 
d="M543 690l-95 -98l-213 155l110 128zM886 165l47 -133q-76 -52 -183 -52q-73 0 -121 30t-59 90q-42 -63 -103 -91.5t-130 -28.5q-105 0 -167.5 59t-62.5 171v99q0 61 -45 61h-49v170h157q47 0 88.5 -16t63 -52.5t21.5 -84.5v-123q0 -45 21.5 -69t57.5 -24q50 0 81.5 34
t47.5 103.5t16 191.5v40h236v-329q0 -62 45 -62q20 0 38 16z" />
    <glyph glyph-name="Uhungarumlaut.salt" horiz-adv-x="926" 
d="M506 746l-213 -155l-95 98l198 185zM816 746l-213 -155l-95 98l198 185zM886 165l47 -133q-76 -52 -183 -52q-73 0 -121 30t-59 90q-42 -63 -103 -91.5t-130 -28.5q-105 0 -167.5 59t-62.5 171v99q0 61 -45 61h-49v170h157q47 0 88.5 -16t63 -52.5t21.5 -84.5v-123
q0 -45 21.5 -69t57.5 -24q50 0 81.5 34t47.5 103.5t16 191.5v40h236v-329q0 -62 45 -62q20 0 38 16z" />
    <glyph glyph-name="Umacron.salt" horiz-adv-x="926" 
d="M631 749v-132h-366v132h366zM886 165l47 -133q-76 -52 -183 -52q-73 0 -121 30t-59 90q-42 -63 -103 -91.5t-130 -28.5q-105 0 -167.5 59t-62.5 171v99q0 61 -45 61h-49v170h157q47 0 88.5 -16t63 -52.5t21.5 -84.5v-123q0 -45 21.5 -69t57.5 -24q50 0 81.5 34
t47.5 103.5t16 191.5v40h236v-329q0 -62 45 -62q20 0 38 16z" />
    <glyph glyph-name="Uogonek.salt" horiz-adv-x="927" 
d="M829 -113q26 0 47 13l49 -83q-31 -21 -67 -31t-69 -10q-73 0 -116.5 28t-43.5 81q0 27 15 53t44 48q-48 11 -79 39.5t-39 74.5q-42 -63 -103 -91.5t-130 -28.5q-105 0 -167.5 59t-62.5 171v99q0 61 -45 61h-49v170h157q47 0 88.5 -16t63 -52.5t21.5 -84.5v-123
q0 -45 21.5 -69t57.5 -24q50 0 81.5 34t47.5 103.5t16 191.5v40h236v-329q0 -62 45 -62q20 0 38 16l47 -133q-31 -22 -67 -34q-39 -17 -60 -40t-21 -43q0 -28 44 -28z" />
    <glyph glyph-name="Uring.salt" horiz-adv-x="926" 
d="M448 600q-31 0 -68 10t-62.5 38t-25.5 69q0 53 44 84t112 31t112 -31t44 -84q0 -34 -18.5 -60t-54.5 -41.5t-83 -15.5zM448 748q-19 0 -31 -8.5t-12 -22.5q0 -11 9.5 -21.5t33.5 -10.5q19 0 31 8.5t12 23.5q0 14 -12 22.5t-31 8.5zM886 165l47 -133q-76 -52 -183 -52
q-73 0 -121 30t-59 90q-42 -63 -103 -91.5t-130 -28.5q-105 0 -167.5 59t-62.5 171v99q0 61 -45 61h-49v170h157q47 0 88.5 -16t63 -52.5t21.5 -84.5v-123q0 -45 21.5 -69t57.5 -24q50 0 81.5 34t47.5 103.5t16 191.5v40h236v-329q0 -62 45 -62q20 0 38 16z" />
    <glyph glyph-name="Utilde.salt" horiz-adv-x="926" 
d="M350 650q-34 0 -66 -13t-52 -36l-45 117q60 70 166 70q40 0 99 -19.5t94 -19.5q34 0 66 13t52 36l45 -117q-58 -70 -166 -70q-40 0 -99 19.5t-94 19.5zM886 165l47 -133q-76 -52 -183 -52q-73 0 -121 30t-59 90q-42 -63 -103 -91.5t-130 -28.5q-105 0 -167.5 59
t-62.5 171v99q0 61 -45 61h-49v170h157q47 0 88.5 -16t63 -52.5t21.5 -84.5v-123q0 -45 21.5 -69t57.5 -24q50 0 81.5 34t47.5 103.5t16 191.5v40h236v-329q0 -62 45 -62q20 0 38 16z" />
    <glyph glyph-name="W.aalt" horiz-adv-x="1302" 
d="M1227 570q43 -83 43 -177q0 -86 -28.5 -162.5t-82 -132.5t-128 -87t-161.5 -31q-98 0 -159.5 38.5t-82.5 105.5q-29 -49 -71.5 -81t-96 -47.5t-114.5 -15.5q-46 0 -86 14.5t-69.5 43t-45.5 72.5t-16 100v119q0 62 -45 62q-20 0 -38 -16l-47 133q76 52 183 52
q82 0 132.5 -38.5t50.5 -114.5v-117q0 -45 21 -69t55 -24q39 0 66.5 32.5t43.5 98.5t16 172v40h236v-250q0 -45 21.5 -69t56.5 -24q24 0 49.5 12t49 42t35 71t11.5 71q0 28 -6 59t-15.5 53t-18.5 35z" />
    <glyph glyph-name="Wacute.aalt" horiz-adv-x="1302" 
d="M890 745l-213 -155l-95 98l198 185zM1227 570q43 -83 43 -177q0 -86 -28.5 -162.5t-82 -132.5t-128 -87t-161.5 -31q-98 0 -159.5 38.5t-82.5 105.5q-29 -49 -71.5 -81t-96 -47.5t-114.5 -15.5q-46 0 -86 14.5t-69.5 43t-45.5 72.5t-16 100v119q0 62 -45 62
q-20 0 -38 -16l-47 133q76 52 183 52q82 0 132.5 -38.5t50.5 -114.5v-117q0 -45 21 -69t55 -24q39 0 66.5 32.5t43.5 98.5t16 172v40h236v-250q0 -45 21.5 -69t56.5 -24q24 0 49.5 12t49 42t35 71t11.5 71q0 28 -6 59t-15.5 53t-18.5 35z" />
    <glyph glyph-name="Wcircumflex.aalt" horiz-adv-x="1302" 
d="M677 679l-116 -87l-92 109l208 154l208 -154l-92 -109zM1227 570q43 -83 43 -177q0 -86 -28.5 -162.5t-82 -132.5t-128 -87t-161.5 -31q-98 0 -159.5 38.5t-82.5 105.5q-29 -49 -71.5 -81t-96 -47.5t-114.5 -15.5q-46 0 -86 14.5t-69.5 43t-45.5 72.5t-16 100v119
q0 62 -45 62q-20 0 -38 -16l-47 133q76 52 183 52q82 0 132.5 -38.5t50.5 -114.5v-117q0 -45 21 -69t55 -24q39 0 66.5 32.5t43.5 98.5t16 172v40h236v-250q0 -45 21.5 -69t56.5 -24q24 0 49.5 12t49 42t35 71t11.5 71q0 28 -6 59t-15.5 53t-18.5 35z" />
    <glyph glyph-name="Wdieresis.aalt" horiz-adv-x="1302" 
d="M532 617q-53 0 -84.5 22t-31.5 59t31.5 59t84.5 22t84.5 -22t31.5 -59t-31.5 -59t-84.5 -22zM822 617q-53 0 -84.5 22t-31.5 59t31.5 59t84.5 22t84.5 -22t31.5 -59t-31.5 -59t-84.5 -22zM1227 570q43 -83 43 -177q0 -86 -28.5 -162.5t-82 -132.5t-128 -87t-161.5 -31
q-98 0 -159.5 38.5t-82.5 105.5q-29 -49 -71.5 -81t-96 -47.5t-114.5 -15.5q-46 0 -86 14.5t-69.5 43t-45.5 72.5t-16 100v119q0 62 -45 62q-20 0 -38 -16l-47 133q76 52 183 52q82 0 132.5 -38.5t50.5 -114.5v-117q0 -45 21 -69t55 -24q39 0 66.5 32.5t43.5 98.5t16 172v40
h236v-250q0 -45 21.5 -69t56.5 -24q24 0 49.5 12t49 42t35 71t11.5 71q0 28 -6 59t-15.5 53t-18.5 35z" />
    <glyph glyph-name="Wgrave.aalt" horiz-adv-x="1302" 
d="M772 690l-95 -98l-213 155l110 128zM1227 570q43 -83 43 -177q0 -86 -28.5 -162.5t-82 -132.5t-128 -87t-161.5 -31q-98 0 -159.5 38.5t-82.5 105.5q-29 -49 -71.5 -81t-96 -47.5t-114.5 -15.5q-46 0 -86 14.5t-69.5 43t-45.5 72.5t-16 100v119q0 62 -45 62
q-20 0 -38 -16l-47 133q76 52 183 52q82 0 132.5 -38.5t50.5 -114.5v-117q0 -45 21 -69t55 -24q39 0 66.5 32.5t43.5 98.5t16 172v40h236v-250q0 -45 21.5 -69t56.5 -24q24 0 49.5 12t49 42t35 71t11.5 71q0 28 -6 59t-15.5 53t-18.5 35z" />
    <glyph glyph-name="Q.ss02" horiz-adv-x="826" 
d="M617 -39q75 0 114 40l50 -141q-61 -54 -183 -54q-29 0 -58 5t-80 20.5t-80.5 20.5t-58.5 5q-92 0 -173 -46l-56 159q23 17 64.5 34t99.5 27q48 8 102.5 27t99 47.5t71 65.5t26.5 79q0 52 -41.5 87.5t-102.5 35.5q-28 0 -61.5 -10t-57.5 -35.5t-24 -57.5t24 -57.5
t57.5 -35.5t61.5 -10q-23 -41 -74 -64t-116 -23q-84 0 -140 56t-56 144q0 61 30.5 113.5t83.5 89.5t124 57t148 20q82 0 153 -19.5t123.5 -58t81.5 -94t29 -124.5q0 -107 -73 -180t-218 -95q2 -1 40.5 -14.5t69.5 -13.5z" />
    <glyph glyph-name="U.ss02" horiz-adv-x="786" 
d="M492 540h236v-270q0 -71 -25 -126t-70 -91.5t-106.5 -54.5t-133.5 -18t-133.5 18t-106.5 54.5t-70 91.5t-25 126v270h236v-270q0 -40 26.5 -66.5t72.5 -26.5t72.5 26.5t26.5 66.5v270z" />
    <glyph glyph-name="Uacute.ss02" horiz-adv-x="786" 
d="M606 745l-213 -155l-95 98l198 185zM492 540h236v-270q0 -71 -25 -126t-70 -91.5t-106.5 -54.5t-133.5 -18t-133.5 18t-106.5 54.5t-70 91.5t-25 126v270h236v-270q0 -40 26.5 -66.5t72.5 -26.5t72.5 26.5t26.5 66.5v270z" />
    <glyph glyph-name="Ucircumflex.ss02" horiz-adv-x="786" 
d="M393 679l-116 -87l-92 109l208 154l208 -154l-92 -109zM492 540h236v-270q0 -71 -25 -126t-70 -91.5t-106.5 -54.5t-133.5 -18t-133.5 18t-106.5 54.5t-70 91.5t-25 126v270h236v-270q0 -40 26.5 -66.5t72.5 -26.5t72.5 26.5t26.5 66.5v270z" />
    <glyph glyph-name="Udieresis.ss02" horiz-adv-x="786" 
d="M248 617q-53 0 -84.5 22t-31.5 59t31.5 59t84.5 22t84.5 -22t31.5 -59t-31.5 -59t-84.5 -22zM538 617q-53 0 -84.5 22t-31.5 59t31.5 59t84.5 22t84.5 -22t31.5 -59t-31.5 -59t-84.5 -22zM492 540h236v-270q0 -71 -25 -126t-70 -91.5t-106.5 -54.5t-133.5 -18t-133.5 18
t-106.5 54.5t-70 91.5t-25 126v270h236v-270q0 -40 26.5 -66.5t72.5 -26.5t72.5 26.5t26.5 66.5v270z" />
    <glyph glyph-name="Ugrave.ss02" horiz-adv-x="786" 
d="M488 690l-95 -98l-213 155l110 128zM492 540h236v-270q0 -71 -25 -126t-70 -91.5t-106.5 -54.5t-133.5 -18t-133.5 18t-106.5 54.5t-70 91.5t-25 126v270h236v-270q0 -40 26.5 -66.5t72.5 -26.5t72.5 26.5t26.5 66.5v270z" />
    <glyph glyph-name="Uhungarumlaut.ss02" horiz-adv-x="786" 
d="M451 746l-213 -155l-95 98l198 185zM761 746l-213 -155l-95 98l198 185zM492 270v270h236v-270q0 -71 -25 -126t-70 -91.5t-106.5 -54.5t-133.5 -18t-133.5 18t-106.5 54.5t-70 91.5t-25 126v270h236v-270q0 -40 26.5 -66.5t72.5 -26.5t72.5 26.5t26.5 66.5z" />
    <glyph glyph-name="Umacron.ss02" horiz-adv-x="786" 
d="M576 749v-132h-366v132h366zM492 540h236v-270q0 -71 -25 -126t-70 -91.5t-106.5 -54.5t-133.5 -18t-133.5 18t-106.5 54.5t-70 91.5t-25 126v270h236v-270q0 -40 26.5 -66.5t72.5 -26.5t72.5 26.5t26.5 66.5v270z" />
    <glyph glyph-name="Uogonek.ss02" horiz-adv-x="786" 
d="M492 540h236v-270q0 -105 -52.5 -173.5t-144.5 -97.5q-39 -17 -60.5 -40t-21.5 -43q0 -28 44 -28q26 0 47 13l49 -83q-31 -21 -67 -31t-69 -10q-73 0 -116.5 28t-43.5 81t52 96q-96 9 -159.5 48t-95.5 99t-32 141v270h236v-270q0 -40 26.5 -66.5t72.5 -26.5t72.5 26.5
t26.5 66.5v270z" />
    <glyph glyph-name="Uring.ss02" horiz-adv-x="786" 
d="M393 600q-31 0 -68 10t-62.5 38t-25.5 69q0 53 44 84t112 31t112 -31t44 -84q0 -34 -18.5 -60t-54.5 -41.5t-83 -15.5zM393 748q-19 0 -31 -8.5t-12 -22.5q0 -11 9.5 -21.5t33.5 -10.5q19 0 31 8.5t12 23.5q0 14 -12 22.5t-31 8.5zM492 540h236v-270q0 -71 -25 -126
t-70 -91.5t-106.5 -54.5t-133.5 -18t-133.5 18t-106.5 54.5t-70 91.5t-25 126v270h236v-270q0 -40 26.5 -66.5t72.5 -26.5t72.5 26.5t26.5 66.5v270z" />
    <glyph glyph-name="Utilde.ss02" horiz-adv-x="786" 
d="M295 650q-34 0 -66 -13t-52 -36l-45 117q60 70 166 70q40 0 99 -19.5t94 -19.5q34 0 66 13t52 36l45 -117q-58 -70 -166 -70q-40 0 -99 19.5t-94 19.5zM492 540h236v-270q0 -71 -25 -126t-70 -91.5t-106.5 -54.5t-133.5 -18t-133.5 18t-106.5 54.5t-70 91.5t-25 126v270
h236v-270q0 -40 26.5 -66.5t72.5 -26.5t72.5 26.5t26.5 66.5v270z" />
    <glyph glyph-name="i.aalt" horiz-adv-x="400" 
d="M300 570q0 -38 -36 -59.5t-100 -21.5t-100 21.5t-36 59.5t36 59.5t100 21.5t100 -21.5t36 -59.5zM374 170l47 -137q-75 -53 -171 -53q-67 0 -111.5 18t-67.5 51.5t-23 83.5v263h232v-187q0 -55 54 -55q22 0 40 16z" />
    <glyph glyph-name="f.salt" horiz-adv-x="544" 
d="M430 431q-30 0 -50.5 -9.5t-26.5 -25.5h178v-148h-179v-458h-230v458h-99v148h100q5 38 24.5 70t53 55.5t82 36t109.5 12.5q86 0 166 -10l-6 -132q-84 3 -122 3z" />
    <glyph glyph-name="g.aalt" horiz-adv-x="700" 
d="M344 396h327v-112h-21q-14 0 -39 9q14 -19 22.5 -44.5t8.5 -50.5q0 -46 -23 -83t-65 -62.5t-98.5 -39t-121.5 -13.5h-21q-27 -12 -27 -32q0 -9 7.5 -14.5t18.5 -5.5h149q84 0 130 -36t46 -102q0 -11 -3 -28t-6 -27h-125q0 35 -42 35h-273q-27 0 -56.5 9t-49.5 34.5
t-20 61.5q0 35 23 71.5t63 67.5q-58 25 -90 67t-32 97q0 34 15.5 69t54 63.5t100.5 47t148 18.5zM334 149q30 0 52 14t22 35t-22 35t-52 14t-52 -14t-22 -35t22 -35t52 -14z" />
    <glyph glyph-name="gbreve.aalt" horiz-adv-x="700" 
d="M340 458q-79 0 -139 44t-75 120l133 43q4 -35 25.5 -58.5t55.5 -23.5t55.5 23.5t25.5 58.5l133 -43q-15 -76 -75 -120t-139 -44zM344 396h327v-112h-21q-14 0 -39 9q14 -19 22.5 -44.5t8.5 -50.5q0 -46 -23 -83t-65 -62.5t-98.5 -39t-121.5 -13.5h-21q-27 -12 -27 -32
q0 -9 7.5 -14.5t18.5 -5.5h149q84 0 130 -36t46 -102q0 -11 -3 -28t-6 -27h-125q0 35 -42 35h-273q-27 0 -56.5 9t-49.5 34.5t-20 61.5q0 35 23 71.5t63 67.5q-58 25 -90 67t-32 97q0 34 15.5 69t54 63.5t100.5 47t148 18.5zM334 149q30 0 52 14t22 35t-22 35t-52 14
t-52 -14t-22 -35t22 -35t52 -14z" />
    <glyph glyph-name="gcommaaccent.aalt" horiz-adv-x="700" 
d="M340 453q-61 0 -94.5 24t-33.5 68q0 21 12.5 49.5t43 59t70.5 55.5l71 -43q-38 -29 -60 -62h4q36 0 64.5 -11t39.5 -28t11 -33q0 -18 -11 -37t-41.5 -30.5t-75.5 -11.5zM344 396h327v-112h-21q-14 0 -39 9q14 -19 22.5 -44.5t8.5 -50.5q0 -46 -23 -83t-65 -62.5
t-98.5 -39t-121.5 -13.5h-21q-27 -12 -27 -32q0 -9 7.5 -14.5t18.5 -5.5h149q84 0 130 -36t46 -102q0 -11 -3 -28t-6 -27h-125q0 35 -42 35h-273q-27 0 -56.5 9t-49.5 34.5t-20 61.5q0 35 23 71.5t63 67.5q-58 25 -90 67t-32 97q0 34 15.5 69t54 63.5t100.5 47t148 18.5z
M334 149q30 0 52 14t22 35t-22 35t-52 14t-52 -14t-22 -35t22 -35t52 -14z" />
    <glyph glyph-name="gdotaccent.aalt" horiz-adv-x="700" 
d="M340 489q-64 0 -100 21.5t-36 59.5t36 59.5t100 21.5t100 -21.5t36 -59.5t-36 -59.5t-100 -21.5zM344 396h327v-112h-21q-14 0 -39 9q14 -19 22.5 -44.5t8.5 -50.5q0 -46 -23 -83t-65 -62.5t-98.5 -39t-121.5 -13.5h-21q-27 -12 -27 -32q0 -9 7.5 -14.5t18.5 -5.5h149
q84 0 130 -36t46 -102q0 -11 -3 -28t-6 -27h-125q0 35 -42 35h-273q-27 0 -56.5 9t-49.5 34.5t-20 61.5q0 35 23 71.5t63 67.5q-58 25 -90 67t-32 97q0 34 15.5 69t54 63.5t100.5 47t148 18.5zM334 149q30 0 52 14t22 35t-22 35t-52 14t-52 -14t-22 -35t22 -35t52 -14z" />
    <glyph glyph-name="k.aalt" horiz-adv-x="741" 
d="M692 136l31 -118q-64 -38 -156 -38q-76 0 -135.5 19.5t-98.5 53.5v138q33 -5 67 -5q38 -1 58.5 8t20.5 25q0 14 -17.5 22t-51.5 8q-30 0 -64.5 -9.5t-61.5 -25.5v-214h-232v550h232v-155l-3 -44q46 30 102 47.5t114 17.5q67 0 113 -20.5t69.5 -53.5t23.5 -78
q0 -62 -52 -101t-136 -45q16 -4 39 -4q94 0 138 22z" />
    <glyph glyph-name="kcommaaccent.aalt" horiz-adv-x="741" 
d="M692 136l31 -118q-64 -38 -156 -38q-76 0 -135.5 19.5t-98.5 53.5v138q33 -5 67 -5q38 -1 58.5 8t20.5 25q0 14 -17.5 22t-51.5 8q-30 0 -64.5 -9.5t-61.5 -25.5v-214h-232v550h232v-155l-3 -44q46 30 102 47.5t114 17.5q67 0 113 -20.5t69.5 -53.5t23.5 -78
q0 -62 -52 -101t-136 -45q16 -4 39 -4q94 0 138 22zM360 -57q61 0 94.5 -24t33.5 -68q0 -21 -12.5 -49.5t-43 -59t-70.5 -55.5l-71 43q38 29 60 62h-4q-36 0 -64.5 11t-39.5 28t-11 33q0 18 11 37t41.5 30.5t75.5 11.5z" />
    <glyph glyph-name="m.aalt" horiz-adv-x="1138" 
d="M1111 170l51 -135q-34 -25 -80 -40t-99 -15q-183 0 -183 150v20q0 14 -7.5 22.5t-20.5 8.5q-27 0 -58 -43.5t-60 -137.5h-232v150q0 14 -7.5 22.5t-20.5 8.5q-27 0 -58 -43.5t-60 -137.5h-224v200q0 20 -10.5 31t-30.5 11t-38 -16l-51 135q73 55 184 55q83 0 130 -36.5
t47 -92.5v-1q0 -12 -3 -27q36 69 95.5 112.5t129.5 44.5q24 0 49 -6t47 -23t37.5 -49.5t15.5 -83.5v-4q33 70 93.5 117.5t135.5 48.5q24 0 49 -6t47 -23t37.5 -49.5t15.5 -83.5v-48q0 -52 41 -52q20 0 38 16z" />
    <glyph glyph-name="n.aalt" 
d="M821 170l51 -135q-34 -25 -80 -40t-99 -15q-183 0 -183 150v20q0 14 -7.5 22.5t-20.5 8.5q-37 0 -74.5 -49t-68.5 -132h-224v200q0 20 -10.5 31t-30.5 11t-38 -16l-51 135q73 55 184 55q83 0 130 -36.5t47 -92.5v-1q0 -13 -3 -30q37 69 102.5 114t137.5 46
q74 1 116.5 -39.5t42.5 -122.5v-48q0 -52 41 -52q20 0 38 16z" />
    <glyph glyph-name="nacute.aalt" 
d="M668 603l-213 -155l-95 98l198 185zM821 170l51 -135q-34 -25 -80 -40t-99 -15q-183 0 -183 150v20q0 14 -7.5 22.5t-20.5 8.5q-37 0 -74.5 -49t-68.5 -132h-224v200q0 20 -10.5 31t-30.5 11t-38 -16l-51 135q73 55 184 55q83 0 130 -36.5t47 -92.5v-1q0 -13 -3 -30
q37 69 102.5 114t137.5 46q74 1 116.5 -39.5t42.5 -122.5v-48q0 -52 41 -52q20 0 38 16z" />
    <glyph glyph-name="napostrophe.aalt" 
d="M74 667l-23 -234h-138l-4 234h165zM821 170l51 -135q-34 -25 -80 -40t-99 -15q-183 0 -183 150v20q0 14 -7.5 22.5t-20.5 8.5q-37 0 -74.5 -49t-68.5 -132h-224v200q0 20 -10.5 31t-30.5 11t-38 -16l-51 135q73 55 184 55q83 0 130 -36.5t47 -92.5v-1q0 -13 -3 -30
q37 69 102.5 114t137.5 46q74 1 116.5 -39.5t42.5 -122.5v-48q0 -52 41 -52q20 0 38 16z" />
    <glyph glyph-name="ncaron.aalt" 
d="M663 597l-208 -154l-208 154l92 109l116 -87l116 87zM821 170l51 -135q-34 -25 -80 -40t-99 -15q-183 0 -183 150v20q0 14 -7.5 22.5t-20.5 8.5q-37 0 -74.5 -49t-68.5 -132h-224v200q0 20 -10.5 31t-30.5 11t-38 -16l-51 135q73 55 184 55q83 0 130 -36.5t47 -92.5v-1
q0 -13 -3 -30q37 69 102.5 114t137.5 46q74 1 116.5 -39.5t42.5 -122.5v-48q0 -52 41 -52q20 0 38 16z" />
    <glyph glyph-name="ncommaaccent.aalt" 
d="M821 170l51 -135q-34 -25 -80 -40t-99 -15q-183 0 -183 150v20q0 14 -7.5 22.5t-20.5 8.5q-37 0 -74.5 -49t-68.5 -132h-224v200q0 20 -10.5 31t-30.5 11t-38 -16l-51 135q73 55 184 55q83 0 130 -36.5t47 -92.5v-1q0 -13 -3 -30q37 69 102.5 114t137.5 46
q74 1 116.5 -39.5t42.5 -122.5v-48q0 -52 41 -52q20 0 38 16zM455 -57q61 0 94.5 -24t33.5 -68q0 -21 -12.5 -49.5t-43 -59t-70.5 -55.5l-71 43q38 29 60 62h-4q-36 0 -64.5 11t-39.5 28t-11 33q0 18 11 37t41.5 30.5t75.5 11.5z" />
    <glyph glyph-name="eng.aalt" horiz-adv-x="790" 
d="M583 416q74 1 116.5 -39.5t42.5 -122.5v-267q0 -53 -22 -94t-63.5 -68.5t-100 -41t-129.5 -13.5l-31 141q51 0 82 22t32 64v153q0 14 -7.5 22.5t-20.5 8.5q-37 0 -74.5 -49t-68.5 -132h-224v200q0 20 -10.5 31t-30.5 11t-38 -16l-51 135q73 55 184 55q83 0 130 -36.5
t47 -92.5v-1q0 -13 -3 -30q37 69 102.5 114t137.5 46z" />
    <glyph glyph-name="ntilde.aalt" 
d="M357 514q-34 0 -66 -13t-52 -36l-45 117q60 70 166 70q40 0 99 -19.5t94 -19.5q34 0 66 13t52 36l45 -117q-58 -70 -166 -70q-40 0 -99 19.5t-94 19.5zM821 170l51 -135q-34 -25 -80 -40t-99 -15q-183 0 -183 150v20q0 14 -7.5 22.5t-20.5 8.5q-37 0 -74.5 -49
t-68.5 -132h-224v200q0 20 -10.5 31t-30.5 11t-38 -16l-51 135q73 55 184 55q83 0 130 -36.5t47 -92.5v-1q0 -13 -3 -30q37 69 102.5 114t137.5 46q74 1 116.5 -39.5t42.5 -122.5v-48q0 -52 41 -52q20 0 38 16z" />
    <glyph glyph-name="u.aalt" 
d="M812 170l51 -135q-34 -25 -80 -40t-99 -15q-183 0 -183 150v1l1 9q-41 -67 -105.5 -113t-136.5 -47t-113 39.5t-41 122.5v48q0 52 -41 52q-20 0 -38 -16l-51 135q34 25 80 40t99 15q183 0 183 -150v-20q0 -14 7.5 -22.5t20.5 -8.5q20 0 47.5 27t52.5 71t43 83h224v-190
q0 -52 41 -52q20 0 38 16z" />
    <glyph glyph-name="uacute.aalt" 
d="M611 603l-213 -155l-95 98l198 185zM812 170l51 -135q-34 -25 -80 -40t-99 -15q-183 0 -183 150v1l1 9q-41 -67 -105.5 -113t-136.5 -47t-113 39.5t-41 122.5v48q0 52 -41 52q-20 0 -38 -16l-51 135q34 25 80 40t99 15q183 0 183 -150v-20q0 -14 7.5 -22.5t20.5 -8.5
q20 0 47.5 27t52.5 71t43 83h224v-190q0 -52 41 -52q20 0 38 16z" />
    <glyph glyph-name="ucircumflex.aalt" 
d="M398 530l-116 -87l-92 109l208 154l208 -154l-92 -109zM812 170l51 -135q-34 -25 -80 -40t-99 -15q-183 0 -183 150v1l1 9q-41 -67 -105.5 -113t-136.5 -47t-113 39.5t-41 122.5v48q0 52 -41 52q-20 0 -38 -16l-51 135q34 25 80 40t99 15q183 0 183 -150v-20
q0 -14 7.5 -22.5t20.5 -8.5q20 0 47.5 27t52.5 71t43 83h224v-190q0 -52 41 -52q20 0 38 16z" />
    <glyph glyph-name="udieresis.aalt" 
d="M253 489q-53 0 -84.5 22t-31.5 59t31.5 59t84.5 22t84.5 -22t31.5 -59t-31.5 -59t-84.5 -22zM543 489q-53 0 -84.5 22t-31.5 59t31.5 59t84.5 22t84.5 -22t31.5 -59t-31.5 -59t-84.5 -22zM812 170l51 -135q-34 -25 -80 -40t-99 -15q-183 0 -183 150v1l1 9
q-41 -67 -105.5 -113t-136.5 -47t-113 39.5t-41 122.5v48q0 52 -41 52q-20 0 -38 -16l-51 135q34 25 80 40t99 15q183 0 183 -150v-20q0 -14 7.5 -22.5t20.5 -8.5q20 0 47.5 27t52.5 71t43 83h224v-190q0 -52 41 -52q20 0 38 16z" />
    <glyph glyph-name="ugrave.aalt" 
d="M493 546l-95 -98l-213 155l110 128zM812 170l51 -135q-34 -25 -80 -40t-99 -15q-183 0 -183 150v1l1 9q-41 -67 -105.5 -113t-136.5 -47t-113 39.5t-41 122.5v48q0 52 -41 52q-20 0 -38 -16l-51 135q34 25 80 40t99 15q183 0 183 -150v-20q0 -14 7.5 -22.5t20.5 -8.5
q20 0 47.5 27t52.5 71t43 83h224v-190q0 -52 41 -52q20 0 38 16z" />
    <glyph glyph-name="uhungarumlaut.aalt" 
d="M456 603l-213 -155l-95 98l198 185zM766 603l-213 -155l-95 98l198 185zM812 170l51 -135q-34 -25 -80 -40t-99 -15q-183 0 -183 150v1l1 9q-41 -67 -105.5 -113t-136.5 -47t-113 39.5t-41 122.5v48q0 52 -41 52q-20 0 -38 -16l-51 135q34 25 80 40t99 15q183 0 183 -150
v-20q0 -14 7.5 -22.5t20.5 -8.5q20 0 47.5 27t52.5 71t43 83h224v-190q0 -52 41 -52q20 0 38 16z" />
    <glyph glyph-name="umacron.aalt" 
d="M581 631v-132h-366v132h366zM812 170l51 -135q-34 -25 -80 -40t-99 -15q-183 0 -183 150v1l1 9q-41 -67 -105.5 -113t-136.5 -47t-113 39.5t-41 122.5v48q0 52 -41 52q-20 0 -38 -16l-51 135q34 25 80 40t99 15q183 0 183 -150v-20q0 -14 7.5 -22.5t20.5 -8.5
q20 0 47.5 27t52.5 71t43 83h224v-190q0 -52 41 -52q20 0 38 16z" />
    <glyph glyph-name="uogonek.aalt" 
d="M756 -113q26 0 47 13l49 -83q-31 -21 -67 -31t-69 -10q-73 0 -116.5 28t-43.5 81q0 55 59 102q-54 12 -84 47t-30 96v1l1 9q-41 -67 -105.5 -113t-136.5 -47t-113 39.5t-41 122.5v48q0 52 -41 52q-20 0 -38 -16l-51 135q34 25 80 40t99 15q183 0 183 -150v-20
q0 -14 7.5 -22.5t20.5 -8.5q20 0 47.5 27t52.5 71t43 83h224v-190q0 -52 41 -52q20 0 38 16l51 -135q-32 -23 -67 -36q-40 -17 -62 -40.5t-22 -43.5q0 -28 44 -28z" />
    <glyph glyph-name="uring.aalt" 
d="M398 453q-31 0 -68 10t-62.5 38t-25.5 69q0 53 44 84t112 31t112 -31t44 -84q0 -34 -18.5 -60t-54.5 -41.5t-83 -15.5zM398 601q-19 0 -31 -8.5t-12 -22.5q0 -11 9.5 -21.5t33.5 -10.5q19 0 31 8.5t12 23.5q0 14 -12 22.5t-31 8.5zM812 170l51 -135q-34 -25 -80 -40
t-99 -15q-183 0 -183 150v1l1 9q-41 -67 -105.5 -113t-136.5 -47t-113 39.5t-41 122.5v48q0 52 -41 52q-20 0 -38 -16l-51 135q34 25 80 40t99 15q183 0 183 -150v-20q0 -14 7.5 -22.5t20.5 -8.5q20 0 47.5 27t52.5 71t43 83h224v-190q0 -52 41 -52q20 0 38 16z" />
    <glyph glyph-name="utilde.aalt" 
d="M300 514q-34 0 -66 -13t-52 -36l-45 117q60 70 166 70q40 0 99 -19.5t94 -19.5q34 0 66 13t52 36l45 -117q-58 -70 -166 -70q-40 0 -99 19.5t-94 19.5zM812 170l51 -135q-34 -25 -80 -40t-99 -15q-183 0 -183 150v1l1 9q-41 -67 -105.5 -113t-136.5 -47t-113 39.5
t-41 122.5v48q0 52 -41 52q-20 0 -38 -16l-51 135q34 25 80 40t99 15q183 0 183 -150v-20q0 -14 7.5 -22.5t20.5 -8.5q20 0 47.5 27t52.5 71t43 83h224v-190q0 -52 41 -52q20 0 38 16z" />
    <glyph glyph-name="v.salt" horiz-adv-x="741" 
d="M677 436q42 -58 42 -129q0 -75 -39 -137t-102.5 -104t-138.5 -64t-145 -22q-81 0 -128 40t-47 122v48q0 52 -41 52q-20 0 -38 -16l-51 135q34 25 80 40t99 15q183 0 183 -150v-40q0 -14 7.5 -22.5t20.5 -8.5q27 0 53.5 16.5t39 42t12.5 50.5q0 42 -22 77z" />
    <glyph glyph-name="w.salt" horiz-adv-x="1104" 
d="M1039 436q42 -58 42 -129q0 -56 -20.5 -106t-55.5 -89t-80 -66.5t-103 -46.5t-120 -19q-75 0 -117.5 40t-42.5 122v3q0 13 3 22q-43 -83 -119 -135t-157 -52q-70 0 -110 40t-40 122v48q0 52 -41 52q-20 0 -38 -16l-51 135q34 25 80 40t99 15q183 0 183 -150v-30
q0 -14 6 -22.5t17 -8.5q24 0 59 50.5t69 140.5h212v-154q0 -37 36 -37q25 0 49.5 15.5t35.5 39t11 44.5q0 42 -22 77z" />
    <glyph glyph-name="wacute.salt" horiz-adv-x="1104" 
d="M813 603l-213 -155l-95 98l198 185zM1039 436q42 -58 42 -129q0 -56 -20.5 -106t-55.5 -89t-80 -66.5t-103 -46.5t-120 -19q-75 0 -117.5 40t-42.5 122v3q0 13 3 22q-43 -83 -119 -135t-157 -52q-70 0 -110 40t-40 122v48q0 52 -41 52q-20 0 -38 -16l-51 135q34 25 80 40
t99 15q183 0 183 -150v-30q0 -14 6 -22.5t17 -8.5q24 0 59 50.5t69 140.5h212v-154q0 -37 36 -37q25 0 49.5 15.5t35.5 39t11 44.5q0 42 -22 77z" />
    <glyph glyph-name="wcircumflex.salt" horiz-adv-x="1104" 
d="M600 530l-116 -87l-92 109l208 154l208 -154l-92 -109zM1039 436q42 -58 42 -129q0 -56 -20.5 -106t-55.5 -89t-80 -66.5t-103 -46.5t-120 -19q-75 0 -117.5 40t-42.5 122v3q0 13 3 22q-43 -83 -119 -135t-157 -52q-70 0 -110 40t-40 122v48q0 52 -41 52q-20 0 -38 -16
l-51 135q34 25 80 40t99 15q183 0 183 -150v-30q0 -14 6 -22.5t17 -8.5q24 0 59 50.5t69 140.5h212v-154q0 -37 36 -37q25 0 49.5 15.5t35.5 39t11 44.5q0 42 -22 77z" />
    <glyph glyph-name="wdieresis.salt" horiz-adv-x="1104" 
d="M455 489q-53 0 -84.5 22t-31.5 59t31.5 59t84.5 22t84.5 -22t31.5 -59t-31.5 -59t-84.5 -22zM745 489q-53 0 -84.5 22t-31.5 59t31.5 59t84.5 22t84.5 -22t31.5 -59t-31.5 -59t-84.5 -22zM1039 436q42 -58 42 -129q0 -56 -20.5 -106t-55.5 -89t-80 -66.5t-103 -46.5
t-120 -19q-75 0 -117.5 40t-42.5 122v3q0 13 3 22q-43 -83 -119 -135t-157 -52q-70 0 -110 40t-40 122v48q0 52 -41 52q-20 0 -38 -16l-51 135q34 25 80 40t99 15q183 0 183 -150v-30q0 -14 6 -22.5t17 -8.5q24 0 59 50.5t69 140.5h212v-154q0 -37 36 -37q25 0 49.5 15.5
t35.5 39t11 44.5q0 42 -22 77z" />
    <glyph glyph-name="f.ss02" horiz-adv-x="546" 
d="M431 431q-30 0 -50.5 -9.5t-26.5 -25.5h178v-148h-178v-248h-232v248h-98v148h100q5 38 24.5 70t53 55.5t82 36t109.5 12.5q86 0 166 -10l-6 -132q-84 3 -122 3z" />
    <glyph glyph-name="v.ss02" horiz-adv-x="729" 
d="M529 467q81 0 129.5 -48t48.5 -122q0 -76 -41 -136.5t-108.5 -100.5t-148 -60t-156.5 -20q-95 0 -150 40t-55 122v254h232v-165q0 -22 13.5 -34t39.5 -12q52 0 96 21.5t44 56.5q0 16 -10 25t-26 9q-19 0 -38 -17l-47 136q33 24 79 37.5t98 13.5z" />
    <glyph glyph-name="w.ss02" horiz-adv-x="1083" 
d="M883 467q81 0 129.5 -48t48.5 -122q0 -76 -38.5 -136.5t-101.5 -100.5t-138 -60t-146 -20q-74 0 -120.5 26.5t-59.5 80.5q-45 -52 -108 -79.5t-131 -27.5q-85 0 -127.5 39t-42.5 123v254h232v-170q0 -20 10.5 -30.5t25.5 -10.5q27 0 49.5 15t40.5 59t25 137h203v-165
q0 -22 13.5 -34t39.5 -12q52 0 96 21.5t44 56.5q0 16 -10 25t-26 9q-19 0 -38 -17l-47 136q33 24 79 37.5t98 13.5z" />
    <glyph glyph-name="wacute.ss02" horiz-adv-x="1083" 
d="M746 603l-213 -155l-95 98l198 185zM883 467q81 0 129.5 -48t48.5 -122q0 -76 -38.5 -136.5t-101.5 -100.5t-138 -60t-146 -20q-74 0 -120.5 26.5t-59.5 80.5q-45 -52 -108 -79.5t-131 -27.5q-85 0 -127.5 39t-42.5 123v254h232v-170q0 -20 10.5 -30.5t25.5 -10.5
q27 0 49.5 15t40.5 59t25 137h203v-165q0 -22 13.5 -34t39.5 -12q52 0 96 21.5t44 56.5q0 16 -10 25t-26 9q-19 0 -38 -17l-47 136q33 24 79 37.5t98 13.5z" />
    <glyph glyph-name="wcircumflex.ss02" horiz-adv-x="1083" 
d="M533 530l-116 -87l-92 109l208 154l208 -154l-92 -109zM883 467q81 0 129.5 -48t48.5 -122q0 -76 -38.5 -136.5t-101.5 -100.5t-138 -60t-146 -20q-74 0 -120.5 26.5t-59.5 80.5q-45 -52 -108 -79.5t-131 -27.5q-85 0 -127.5 39t-42.5 123v254h232v-170q0 -20 10.5 -30.5
t25.5 -10.5q27 0 49.5 15t40.5 59t25 137h203v-165q0 -22 13.5 -34t39.5 -12q52 0 96 21.5t44 56.5q0 16 -10 25t-26 9q-19 0 -38 -17l-47 136q33 24 79 37.5t98 13.5z" />
    <glyph glyph-name="wdieresis.ss02" horiz-adv-x="1083" 
d="M388 489q-53 0 -84.5 22t-31.5 59t31.5 59t84.5 22t84.5 -22t31.5 -59t-31.5 -59t-84.5 -22zM678 489q-53 0 -84.5 22t-31.5 59t31.5 59t84.5 22t84.5 -22t31.5 -59t-31.5 -59t-84.5 -22zM883 467q81 0 129.5 -48t48.5 -122q0 -76 -38.5 -136.5t-101.5 -100.5t-138 -60
t-146 -20q-74 0 -120.5 26.5t-59.5 80.5q-45 -52 -108 -79.5t-131 -27.5q-85 0 -127.5 39t-42.5 123v254h232v-170q0 -20 10.5 -30.5t25.5 -10.5q27 0 49.5 15t40.5 59t25 137h203v-165q0 -22 13.5 -34t39.5 -12q52 0 96 21.5t44 56.5q0 16 -10 25t-26 9q-19 0 -38 -17
l-47 136q33 24 79 37.5t98 13.5z" />
    <glyph glyph-name="wgrave.ss02" horiz-adv-x="1083" 
d="M628 546l-95 -98l-213 155l110 128zM883 467q81 0 129.5 -48t48.5 -122q0 -76 -38.5 -136.5t-101.5 -100.5t-138 -60t-146 -20q-74 0 -120.5 26.5t-59.5 80.5q-45 -52 -108 -79.5t-131 -27.5q-85 0 -127.5 39t-42.5 123v254h232v-170q0 -20 10.5 -30.5t25.5 -10.5
q27 0 49.5 15t40.5 59t25 137h203v-165q0 -22 13.5 -34t39.5 -12q52 0 96 21.5t44 56.5q0 16 -10 25t-26 9q-19 0 -38 -17l-47 136q33 24 79 37.5t98 13.5z" />
    <glyph glyph-name="f.ss03" horiz-adv-x="486" 
d="M376 431q-35 0 -59.5 -9.5t-31.5 -25.5h187v-148h-188v-248h-232v365q0 33 10 62.5t29.5 54t49.5 43t78.5 32t118.5 13.5q100 0 181 -11l-6 -132q-124 4 -137 4z" />
    <glyph glyph-name="wgrave.ss03" horiz-adv-x="1104" 
d="M695 546l-95 -98l-213 155l110 128zM1039 436q42 -58 42 -129q0 -56 -20.5 -106t-55.5 -89t-80 -66.5t-103 -46.5t-120 -19q-75 0 -117.5 40t-42.5 122v3q0 13 3 22q-43 -83 -119 -135t-157 -52q-70 0 -110 40t-40 122v48q0 52 -41 52q-20 0 -38 -16l-51 135q34 25 80 40
t99 15q183 0 183 -150v-30q0 -14 6 -22.5t17 -8.5q24 0 59 50.5t69 140.5h212v-154q0 -37 36 -37q25 0 49.5 15.5t35.5 39t11 44.5q0 42 -22 77z" />
    <glyph glyph-name="T_h.dlig" horiz-adv-x="1424" 
d="M1397 170l51 -135q-34 -25 -80 -40t-99 -15q-183 0 -183 150v20q0 14 -7.5 22.5t-20.5 8.5q-37 0 -74.5 -49t-68.5 -132h-221v349h-210v-126q0 -74 65 -74q29 0 53 16l46 -134q-80 -51 -197 -51q-67 0 -112 19.5t-68 53t-23 82.5v214h-234v191h912v-245l-2 -30
q17 30 50 65.5t74 56t67.5 25t43.5 4.5q74 1 116.5 -39.5t42.5 -122.5v-48q0 -52 41 -52q20 0 38 16z" />
    <glyph glyph-name="c_h.dlig" horiz-adv-x="1411" 
d="M1384 170l51 -135q-34 -25 -80 -40t-99 -15q-183 0 -183 150v20q0 14 -7.5 22.5t-20.5 8.5q-37 0 -74.5 -49t-68.5 -132h-221v445h-16q-86 0 -86 -39q0 -16 17 -23l-24 -142q-72 12 -166 12q-71 0 -110 -14t-39 -41q0 -28 37 -41.5t99 -13.5q103 0 175 36l55 -131
q-103 -68 -281 -68q-70 0 -129.5 14.5t-101.5 42.5t-65 69t-23 92q0 103 91 160.5t252 57.5l65 -2q-21 17 -21 45q0 33 31 57t93 38t156 14q133 0 223 -18v-255l-2 -30q17 30 50 65.5t74 56t67.5 25t43.5 4.5q74 1 116.5 -39.5t42.5 -122.5v-48q0 -52 41 -52q20 0 38 16z
" />
    <glyph glyph-name="c_k.dlig" horiz-adv-x="1335" 
d="M1282 165l47 -135q-66 -50 -150 -50q-41 0 -80 11t-75 46l-52 50q-36 -37 -70 -87h-221v445h-16q-86 0 -86 -39q0 -16 17 -23l-24 -142q-72 12 -166 12q-71 0 -110 -14t-39 -41q0 -28 37 -41.5t99 -13.5q103 0 175 36l55 -131q-103 -68 -281 -68q-70 0 -129.5 14.5
t-101.5 42.5t-65 69t-23 92q0 103 91 160.5t252 57.5l65 -2q-21 17 -21 45q0 33 31 57t93 38t156 14q133 0 223 -18v-255q0 -14 -4 -40q61 69 142 111t172 50l54 -164q-76 -9 -140 -40l37 -37q13 -13 29.5 -21t31.5 -8q25 0 47 19z" />
    <glyph glyph-name="c_l.dlig" horiz-adv-x="1031" 
d="M1007 170l47 -137q-75 -53 -171 -53q-67 0 -111.5 18t-67.5 51.5t-23 83.5v312h-16q-86 0 -86 -39q0 -16 17 -23l-24 -142q-72 12 -166 12q-71 0 -110 -14t-39 -41q0 -28 37 -41.5t99 -13.5q103 0 175 36l55 -131q-103 -68 -281 -68q-70 0 -129.5 14.5t-101.5 42.5
t-65 69t-23 92q0 103 91 160.5t252 57.5l65 -2q-21 17 -21 45q0 33 31 57t93 38t156 14q133 0 223 -18v-341q0 -55 54 -55q22 0 40 16z" />
    <glyph glyph-name="c_t.dlig" horiz-adv-x="1184" 
d="M1120 170l44 -135q-45 -26 -103 -40.5t-120 -14.5q-87 0 -144 26t-86.5 74t-29.5 121v239l-22 1q-81 0 -81 -35q0 -16 18 -23l-24 -142q-72 12 -166 12q-71 0 -110 -14t-39 -41q0 -28 37 -41.5t99 -13.5q103 0 175 36l55 -131q-103 -68 -281 -68q-70 0 -129.5 14.5
t-101.5 42.5t-65 69t-23 92q0 103 91 160.5t252 57.5l64 -2q-21 17 -21 45q0 32 30.5 54.5t90.5 36.5t149 14q137 0 234 -44v-124h233v-148h-233v-22q0 -36 26.5 -54t85.5 -18q53 0 95 16z" />
    <glyph glyph-name="k_u.dlig" horiz-adv-x="1455" 
d="M1419 170l51 -135q-34 -25 -80 -40t-99 -15q-183 0 -183 150v1l1 9q-41 -67 -105.5 -113t-136.5 -47t-113 39.5t-41 122.5v58q0 44 -69 44q-29 0 -65 -9t-69 -25l35 -35q29 -29 56 -29q21 0 42 19l47 -135q-65 -50 -145 -50q-39 0 -77 11t-73 46l-51 49q-39 -39 -71 -86
h-221v550h232v-255q0 -14 -4 -42q74 83 179 123t229 40q257 0 257 -150v-20q0 -14 7.5 -22.5t20.5 -8.5q20 0 47.5 27t52.5 71t43 83h224v-190q0 -52 41 -52q20 0 38 16z" />
    <glyph glyph-name="k_v.dlig" horiz-adv-x="1330" 
d="M1082 396h235q0 -63 -16 -118t-48.5 -105t-88.5 -95t-132.5 -71.5t-148.5 -26.5q-79 0 -124.5 40t-45.5 122v58q0 44 -69 44q-29 0 -65 -9t-69 -25l35 -35q29 -29 56 -29q21 0 42 19l47 -135q-65 -50 -145 -50q-39 0 -77 11t-73 46l-51 49q-39 -39 -71 -86h-221v550h232
v-255q0 -14 -4 -42q74 83 179 123t229 40q257 0 257 -150v-40q0 -14 6 -22.5t17 -8.5t30 10.5t38 33.5t32.5 63t13.5 94z" />
    <glyph glyph-name="k_w.dlig" horiz-adv-x="1702" 
d="M1449 396h235q0 -99 -36 -178.5t-95 -132t-128 -79t-134 -26.5q-73 0 -114 40t-41 122v3q0 13 3 22q-43 -83 -119 -135t-157 -52q-70 0 -110 40t-40 122v58q0 44 -69 44q-29 0 -65 -9t-69 -25l35 -35q29 -29 56 -29q21 0 42 19l47 -135q-65 -50 -145 -50q-39 0 -77 11
t-73 46l-51 49q-39 -39 -71 -86h-221v550h232v-255q0 -14 -4 -42q74 83 179 123t229 40q257 0 257 -150v-30q0 -14 6 -22.5t17 -8.5q24 0 59 50.5t69 140.5h212v-150q0 -31 27 -31q11 0 30 9.5t38 30.5t32.5 57t13.5 84z" />
    <glyph glyph-name="k_y.dlig" horiz-adv-x="1391" 
d="M1116 396h224v-321q0 -70 -22 -126.5t-67 -96.5t-115.5 -61t-163.5 -21q-149 0 -257 45l39 135q87 -28 179 -28q62 0 99.5 16t56.5 52.5t19 108.5v1l3 39q-37 -69 -102 -113.5t-137 -45.5q-74 -1 -116.5 39.5t-42.5 122.5v58q0 44 -69 44q-29 0 -65 -9t-69 -25l35 -35
q29 -29 56 -29q21 0 42 19l47 -135q-65 -50 -145 -50q-39 0 -77 11t-73 46l-51 49q-39 -39 -71 -86h-221v550h232v-255q0 -14 -4 -42q74 83 179 123t229 40q257 0 257 -150v-20q0 -14 7.5 -22.5t20.5 -8.5q37 0 74.5 49t68.5 132z" />
    <glyph glyph-name="r_y.dlig" horiz-adv-x="1183" 
d="M908 396h224v-321q0 -70 -22 -126.5t-67 -96.5t-115.5 -61t-163.5 -21q-149 0 -257 45l39 135q87 -28 179 -28q62 0 99.5 16t56.5 52.5t19 108.5v1l3 39q-37 -69 -102 -113.5t-137 -45.5q-74 -1 -116.5 39.5t-42.5 122.5v51q-36 -2 -73 -14t-69 -35.5t-55 -60t-32 -83.5
h-224v396h232v-96q0 -14 -4 -42q47 70 129 114t185 44q86 0 143 -20v-150q0 -14 7.5 -22.5t20.5 -8.5q37 0 74.5 49t68.5 132z" />
    <glyph glyph-name="s_h.dlig" horiz-adv-x="1424" 
d="M1397 170l51 -135q-34 -25 -80 -40t-99 -15q-183 0 -183 150v20q0 14 -7.5 22.5t-20.5 8.5q-37 0 -74.5 -49t-68.5 -132h-221v445h-16q-86 0 -86 -39q0 -16 17 -23l-19 -107q-89 13 -212 16q-74 0 -95.5 -4.5t-21.5 -12.5q0 -5 12 -9t56 -6.5t58 -3.5q68 -5 118 -17
t81 -39t31 -70q0 -49 -32.5 -82t-95 -50.5t-156.5 -17.5q-162 0 -299 42l28 122q108 -40 257 -40q25 0 44.5 4.5t19.5 14.5q0 7 -15 11.5t-64 8t-68 5.5q-63 6 -109 19.5t-73.5 39t-27.5 65.5q0 71 84 108t249 36q46 0 86 -3q-22 17 -22 46q0 33 31 57t93 38t156 14
q133 0 223 -18v-255l-2 -30q17 30 50 65.5t74 56t67.5 25t43.5 4.5q74 1 116.5 -39.5t42.5 -122.5v-48q0 -52 41 -52q20 0 38 16z" />
    <glyph glyph-name="s_k.dlig" horiz-adv-x="1348" 
d="M1295 165l47 -135q-66 -50 -150 -50q-41 0 -80 11t-75 46l-52 50q-36 -37 -70 -87h-221v445h-16q-86 0 -86 -39q0 -16 17 -23l-19 -107q-89 13 -212 16q-74 0 -95.5 -4.5t-21.5 -12.5q0 -5 12 -9t56 -6.5t58 -3.5q68 -5 118 -17t81 -39t31 -70q0 -49 -32.5 -82t-95 -50.5
t-156.5 -17.5q-162 0 -299 42l28 122q108 -40 257 -40q25 0 44.5 4.5t19.5 14.5q0 7 -15 11.5t-64 8t-68 5.5q-63 6 -109 19.5t-73.5 39t-27.5 65.5q0 71 84 108t249 36q46 0 86 -3q-22 17 -22 46q0 33 31 57t93 38t156 14q133 0 223 -18v-255q0 -14 -4 -40q61 69 142 111
t172 50l54 -164q-76 -9 -140 -40l37 -37q13 -13 29.5 -21t31.5 -8q25 0 47 19z" />
    <glyph glyph-name="s_l.dlig" horiz-adv-x="1044" 
d="M1020 170l47 -137q-75 -53 -171 -53q-67 0 -111.5 18t-67.5 51.5t-23 83.5v312h-16q-86 0 -86 -39q0 -16 17 -23l-19 -107q-89 13 -212 16q-74 0 -95.5 -4.5t-21.5 -12.5q0 -5 12 -9t56 -6.5t58 -3.5q68 -5 118 -17t81 -39t31 -70q0 -49 -32.5 -82t-95 -50.5
t-156.5 -17.5q-162 0 -299 42l28 122q108 -40 257 -40q25 0 44.5 4.5t19.5 14.5q0 7 -15 11.5t-64 8t-68 5.5q-63 6 -109 19.5t-73.5 39t-27.5 65.5q0 71 84 108t249 36q46 0 86 -3q-22 17 -22 46q0 33 31 57t93 38t156 14q133 0 223 -18v-341q0 -55 54 -55q22 0 40 16z" />
    <glyph glyph-name="s_p.dlig" horiz-adv-x="1388" 
d="M1156 416q94 0 151 -51.5t57 -140.5q0 -52 -20 -97t-57.5 -78t-90.5 -51t-116 -18q-85 0 -154 25v-215h-232v650l-21 1q-81 0 -81 -35q0 -16 17 -23l-19 -107q-89 13 -212 16q-74 0 -95.5 -4.5t-21.5 -12.5q0 -5 12 -9t56 -6.5t58 -3.5q68 -5 118 -17t81 -39t31 -70
q0 -49 -32.5 -82t-95 -50.5t-156.5 -17.5q-162 0 -299 42l28 122q108 -40 257 -40q25 0 44.5 4.5t19.5 14.5q0 7 -15 11.5t-64 8t-68 5.5q-63 6 -109 19.5t-73.5 39t-27.5 65.5q0 71 84 108t249 36q46 0 86 -3q-22 17 -22 46q0 32 30.5 54.5t90.5 36.5t149 14q136 0 233 -44
v-227q41 58 102 90.5t128 32.5zM1041 136q42 0 67 15t25 40q0 20 -17.5 32t-44.5 12q-40 0 -78.5 -16.5t-66.5 -53.5v-13q59 -16 115 -16z" />
    <glyph glyph-name="s_t.dlig" horiz-adv-x="1197" 
d="M1133 170l44 -135q-45 -26 -103 -40.5t-120 -14.5q-87 0 -144 26t-86.5 74t-29.5 121v239l-21 1q-81 0 -81 -35q0 -16 17 -23l-19 -107q-89 13 -212 16q-74 0 -95.5 -4.5t-21.5 -12.5q0 -5 12 -9t56 -6.5t58 -3.5q68 -5 118 -17t81 -39t31 -70q0 -49 -32.5 -82t-95 -50.5
t-156.5 -17.5q-162 0 -299 42l28 122q108 -40 257 -40q25 0 44.5 4.5t19.5 14.5q0 7 -15 11.5t-64 8t-68 5.5q-63 6 -109 19.5t-73.5 39t-27.5 65.5q0 71 84 108t249 36q46 0 86 -3q-22 17 -22 46q0 32 30.5 54.5t90.5 36.5t149 14q136 0 233 -44v-124h233v-148h-233v-22
q0 -36 26.5 -54t85.5 -18q53 0 95 16z" />
    <glyph glyph-name="t_f.dlig" horiz-adv-x="1031" 
d="M917 431q-30 0 -50.5 -9.5t-26.5 -25.5h178v-148h-180v-261q0 -53 -22 -94t-62.5 -68.5t-99 -41t-129.5 -13.5l-31 141q52 0 83.5 22t32.5 64v251h-280v-22q0 -36 24 -54t78 -18q48 0 85 16l44 -135q-42 -26 -98 -40.5t-115 -14.5q-84 0 -138.5 26t-83 74t-28.5 121v47
h-82v148h82v40l232 104v-144h280q5 38 24.5 70t53 55.5t82 36t109.5 12.5q86 0 166 -10l-6 -132q-84 3 -122 3z" />
    <glyph glyph-name="t_t.dlig" horiz-adv-x="1062" 
d="M998 170l44 -135q-42 -26 -98 -40.5t-115 -14.5q-84 0 -138.5 26t-83 74t-28.5 121v47h-249v-22q0 -36 24 -54t78 -18q48 0 85 16l44 -135q-42 -26 -98 -40.5t-115 -14.5q-84 0 -138.5 26t-83 74t-28.5 121v47h-82v148h82v40l232 104v-144h249v40l232 104v-144h213v-148
h-213v-22q0 -36 24 -54t78 -18q48 0 85 16z" />
    <glyph glyph-name="k_v.dlig.salt" horiz-adv-x="1336" 
d="M1271 436q42 -58 42 -129q0 -75 -39 -137t-102.5 -104t-138.5 -64t-145 -22q-81 0 -128 40t-47 122v58q0 44 -69 44q-29 0 -65 -9t-69 -25l35 -35q29 -29 56 -29q21 0 42 19l47 -135q-65 -50 -145 -50q-39 0 -77 11t-73 46l-51 49q-39 -39 -71 -86h-221v550h232v-255
q0 -14 -4 -42q74 83 179 123t229 40q257 0 257 -150v-40q0 -14 7.5 -22.5t20.5 -8.5q27 0 53.5 16.5t39 42t12.5 50.5q0 42 -22 77z" />
    <glyph glyph-name="k_w.dlig.salt" horiz-adv-x="1698" 
d="M1633 436q42 -58 42 -129q0 -56 -20.5 -106t-55.5 -89t-80 -66.5t-103 -46.5t-120 -19q-75 0 -117.5 40t-42.5 122v3q0 13 3 22q-43 -83 -119 -135t-157 -52q-70 0 -110 40t-40 122v58q0 44 -69 44q-29 0 -65 -9t-69 -25l35 -35q29 -29 56 -29q21 0 42 19l47 -135
q-65 -50 -145 -50q-39 0 -77 11t-73 46l-51 49q-39 -39 -71 -86h-221v550h232v-255q0 -14 -4 -42q74 83 179 123t229 40q257 0 257 -150v-30q0 -14 6 -22.5t17 -8.5q24 0 59 50.5t69 140.5h212v-154q0 -37 36 -37q25 0 49.5 15.5t35.5 39t11 44.5q0 42 -22 77z" />
    <glyph glyph-name="ampersand.salt" horiz-adv-x="1056" 
d="M900 199q-11 -52 -53.5 -96t-106.5 -66q28 -17 58.5 -27t54.5 -10q41 0 77 19l47 -135q-69 -50 -160 -50q-75 0 -164.5 46t-168.5 120h-94q-190 0 -281 54t-91 155q0 81 68 135.5t187 63.5q13 71 85 111.5t185 40.5q69 0 129 -10t100 -27l-45 -155q-68 17 -153 17
q-37 0 -58 -11.5t-21 -33.5q0 -29 31 -81.5t78 -104.5q65 7 76 56q-51 3 -99 11v120h225q57 0 91 18.5t44 53.5l123 -69q-6 -43 -33 -75.5t-63.5 -48.5t-67.5 -21zM252 225q0 -30 28.5 -49.5t73.5 -22.5q-42 62 -66 131q-17 -8 -26.5 -24t-9.5 -35z" />
    <glyph glyph-name="ampersand.ss02" horiz-adv-x="893" 
d="M878 337v-129h-75v-22q0 -104 -97 -155t-298 -51q-192 0 -284.5 40.5t-92.5 122.5q0 48 29.5 83t98.5 53q-118 34 -118 127q0 72 85 113t261 41q194 0 322 -35l-42 -164q-91 27 -230 27q-76 0 -111 -7t-35 -25q0 -19 47 -19h540zM575 196v12h-241q-53 0 -53 -22
q0 -16 35 -22.5t132 -6.5q68 0 97.5 9.5t29.5 29.5z" />
    <glyph glyph-name="glyph481" horiz-adv-x="296" 
d="M148 695q61 0 94.5 -24t33.5 -68q0 -21 -12.5 -49.5t-43 -59t-70.5 -55.5l-71 43q38 29 60 62h-4q-36 0 -64.5 11t-39.5 28t-11 33q0 18 11 37t41.5 30.5t75.5 11.5z" />
    <glyph glyph-name="acute.aalt" horiz-adv-x="348" 
d="M218 873l110 -128l-213 -155l-95 98z" />
    <glyph glyph-name="breve.aalt" horiz-adv-x="468" 
d="M315 809l133 -43q-15 -76 -75 -120t-139 -44t-139 44t-75 120l133 43q4 -35 25.5 -58.5t55.5 -23.5t55.5 23.5t25.5 58.5z" />
    <glyph glyph-name="caron.aalt" horiz-adv-x="456" 
d="M344 855l92 -109l-208 -154l-208 154l92 109l116 -87z" />
    <glyph glyph-name="circumflex.aalt" horiz-adv-x="456" 
d="M228 855l208 -154l-92 -109l-116 87l-116 -87l-92 109z" />
    <glyph glyph-name="dieresis.aalt" horiz-adv-x="612" 
d="M136 617q-53 0 -84.5 22t-31.5 59t31.5 59t84.5 22t84.5 -22t31.5 -59t-31.5 -59t-84.5 -22zM426 617q-53 0 -84.5 22t-31.5 59t31.5 59t84.5 22t84.5 -22t31.5 -59t-31.5 -59t-84.5 -22z" />
    <glyph glyph-name="dotaccent.aalt" horiz-adv-x="312" 
d="M156 779q64 0 100 -21.5t36 -59.5t-36 -59.5t-100 -21.5t-100 21.5t-36 59.5t36 59.5t100 21.5z" />
    <glyph glyph-name="grave.aalt" horiz-adv-x="348" 
d="M130 875l198 -185l-95 -98l-213 155z" />
    <glyph glyph-name="hungarumlaut.aalt" horiz-adv-x="658" 
d="M218 874l110 -128l-213 -155l-95 98zM528 874l110 -128l-213 -155l-95 98z" />
    <glyph glyph-name="macron.aalt" horiz-adv-x="406" 
d="M20 749h366v-132h-366v132z" />
    <glyph glyph-name="ring.aalt" horiz-adv-x="352" 
d="M176 832q68 0 112 -31t44 -84q0 -34 -18.5 -60t-54.5 -41.5t-83 -15.5q-31 0 -68 10t-62.5 38t-25.5 69q0 53 44 84t112 31zM176 685q19 0 31 8.5t12 23.5q0 14 -12 22.5t-31 8.5t-31 -8.5t-12 -22.5q0 -11 9.5 -21.5t33.5 -10.5z" />
    <glyph glyph-name="tilde.aalt" horiz-adv-x="562" 
d="M497 798l45 -117q-58 -70 -166 -70q-40 0 -99 19.5t-94 19.5q-34 0 -66 -13t-52 -36l-45 117q60 70 166 70q40 0 99 -19.5t94 -19.5q34 0 66 13t52 36z" />
    <glyph glyph-name="glyph493" horiz-adv-x="768" 
d="M402 745l-213 -155l-95 98l198 185zM792 745l-213 -155l-95 98l198 185zM71 0v540h236v-540h-236zM461 540h236v-559q0 -40 -18 -78.5t-61 -68t-112 -47t-166 -17.5l-29 133q27 0 62.5 8t61.5 31t26 59v539z" />
    <glyph glyph-name="glyph494" horiz-adv-x="744" 
d="M377 603l-213 -155l-95 98l198 185zM789 603l-213 -155l-95 98l198 185zM374 170l47 -137q-75 -53 -171 -53q-67 0 -111.5 18t-67.5 51.5t-23 83.5v263h232v-187q0 -55 54 -55q22 0 40 16zM460 396h232v-409q0 -53 -22 -94t-63.5 -68.5t-100 -41t-129.5 -13.5l-31 141
q51 0 82 22t32 64v399z" />
    </font>
</defs>
</svg>
